<?xml version="1.0" encoding="UTF-8" standalone="yes"?>
<svg xmlns="http://www.w3.org/2000/svg" xmlns:xlink="http://www.w3.org/1999/xlink" width="572.414pt" height="341.437pt" version="1.1" viewBox="1720.831 247.708 572.414 341.437">
  <!--
	Exported with Concepts: Smarter Sketching
	Version: 1055 on iOS 15.2
	https://concepts.app/
	-->
  <title>Sketchnoting Objects</title>
  <desc>Drawing exported from Concepts: Smarter Sketching</desc>
  <defs></defs>
  <g id="Layer_Copy_3" opacity="1.000">
    <path id="STROKE_c9edc052-bd8d-45f3-ac3c-9cc24e500886" opacity="1.000" fill="none" stroke="#000000" stroke-width="3.933" stroke-opacity="1.000" stroke-linecap="round" stroke-linejoin="round" d="M 1751.446 261.754 Q 1751.667 262.497 1752.927 272.990 Q 1754.187 283.484 1755.180 299.644 Q 1756.174 315.804 1757.078 328.989 Q 1757.982 342.173 1758.510 350.544 Q 1759.038 358.915 1759.276 363.248 Q 1759.513 367.581 1759.839 381.607 Q 1760.166 395.632 1759.791 422.216 Q 1759.417 448.800 1759.314 454.503 Q 1759.212 460.207 1759.055 466.839 Q 1758.897 473.472 1758.782 477.081 Q 1758.667 480.691 1758.400 495.802 Q 1758.133 510.914 1758.300 522.643 Q 1758.468 534.373 1758.658 539.517 Q 1758.848 544.660 1758.948 545.379 Q 1759.047 546.098 1759.220 547.865 "></path>
    <path id="STROKE_f0cf76e2-8f45-4b41-aabc-e37098eeaf4a" opacity="1.000" fill="none" stroke="#000000" stroke-width="3.851" stroke-opacity="1.000" stroke-linecap="round" stroke-linejoin="round" d="M 1764.940 553.039 Q 1765.487 552.908 1766.594 552.750 Q 1767.702 552.592 1773.896 552.159 Q 1780.091 551.726 1791.810 551.596 Q 1803.530 551.465 1820.241 552.077 Q 1836.953 552.688 1840.902 552.844 Q 1844.851 552.999 1854.775 553.209 Q 1864.699 553.419 1869.944 553.425 Q 1875.189 553.430 1883.905 553.433 Q 1892.622 553.436 1924.014 553.598 Q 1955.406 553.760 1971.522 553.714 Q 1987.638 553.668 1998.975 553.330 Q 2010.313 552.992 2021.761 552.513 Q 2033.209 552.033 2046.414 551.446 Q 2059.619 550.859 2070.876 550.400 Q 2082.133 549.940 2090.338 549.623 Q 2098.542 549.307 2110.660 548.863 Q 2122.778 548.419 2143.710 548.162 Q 2164.642 547.904 2176.183 548.007 Q 2187.724 548.110 2193.521 548.231 Q 2199.318 548.352 2230.550 549.232 Q 2261.781 550.112 2266.515 550.016 Q 2271.248 549.920 2272.105 549.898 Q 2272.962 549.875 2276.025 549.729 Q 2279.088 549.582 2282.394 549.385 "></path>
    <path id="STROKE_d1ea4c92-de28-4e06-843d-d4e88e0863e0" opacity="1.000" fill="none" stroke="#000000" stroke-width="1.555" stroke-opacity="1.000" stroke-linecap="round" stroke-linejoin="round" d="M 2282.497 561.150 L 2282.771 560.946 Q 2283.160 560.414 2283.036 560.307 L 2283.017 559.900 Q 2283.059 559.582 2282.377 558.947 Q 2281.696 558.311 2280.830 558.105 Q 2279.964 557.898 2279.568 557.926 Q 2279.172 557.953 2278.904 558.052 Q 2278.635 558.151 2278.339 558.467 Q 2278.043 558.783 2277.850 559.151 Q 2277.657 559.520 2277.790 561.919 Q 2277.922 564.319 2278.196 565.691 Q 2278.469 567.063 2278.867 569.771 Q 2279.264 572.480 2279.418 573.876 Q 2279.571 575.272 2279.544 576.327 Q 2279.518 577.381 2279.522 577.395 Q 2279.528 577.409 2279.151 578.638 Q 2278.909 578.810 2277.905 578.571 Q 2276.901 578.333 2276.271 577.810 Q 2275.641 577.287 2275.342 576.930 Q 2275.043 576.574 2274.302 574.341 "></path>
    <path id="STROKE_92a5f54c-d343-4693-9722-5e742a3a1acd" opacity="1.000" fill="none" stroke="#000000" stroke-width="1.555" stroke-opacity="1.000" stroke-linecap="round" stroke-linejoin="round" d="M 2272.231 570.458 Q 2272.321 570.409 2275.615 570.027 Q 2278.909 569.645 2281.659 569.010 L 2282.580 568.659 "></path>
    <path id="STROKE_011c90e4-8172-4c49-8c81-6c0caddcb598" opacity="1.000" fill="none" stroke="#000000" stroke-width="1.555" stroke-opacity="1.000" stroke-linecap="round" stroke-linejoin="round" d="M 2285.016 574.187 Q 2285.073 574.306 2285.089 575.855 Q 2285.106 577.403 2285.341 578.780 Q 2285.576 580.158 2286.467 582.323 "></path>
    <path id="STROKE_802d960f-3548-48ce-b55e-58ce5a435d05" opacity="1.000" fill="none" stroke="#000000" stroke-width="1.555" stroke-opacity="1.000" stroke-linecap="round" stroke-linejoin="round" d="M 1736.613 266.003 Q 1736.346 265.487 1735.587 264.923 Q 1734.827 264.359 1734.221 264.192 Q 1733.615 264.025 1733.193 264.045 Q 1732.771 264.065 1732.292 264.321 Q 1731.813 264.578 1731.290 266.021 Q 1730.767 267.464 1731.917 271.065 Q 1733.066 274.665 1733.740 276.471 Q 1734.413 278.277 1734.459 279.170 Q 1734.506 280.063 1734.422 280.362 Q 1734.337 280.661 1734.181 280.868 Q 1734.025 281.076 1733.658 281.261 Q 1733.291 281.447 1732.398 281.570 Q 1731.505 281.694 1730.687 281.557 Q 1729.868 281.421 1729.462 281.128 Q 1729.056 280.836 1728.953 280.702 Q 1728.850 280.567 1728.804 280.324 Q 1728.757 280.081 1728.939 278.974 "></path>
    <path id="STROKE_d01a3d26-5ecb-426b-bb35-6674ed1490fc" opacity="1.000" fill="none" stroke="#000000" stroke-width="1.555" stroke-opacity="1.000" stroke-linecap="round" stroke-linejoin="round" d="M 1727.642 276.321 Q 1727.659 276.315 1727.774 276.012 Q 1728.246 275.737 1728.310 275.743 Q 1729.570 275.297 1731.404 274.950 Q 1733.238 274.602 1734.197 274.432 "></path>
    <path id="STROKE_8b3aed67-c04e-4a68-93e1-2418d7f48cdb" opacity="1.000" fill="none" stroke="#000000" stroke-width="1.555" stroke-opacity="1.000" stroke-linecap="round" stroke-linejoin="round" d="M 1736.543 281.647 Q 1737.098 281.583 1737.152 281.544 Q 1738.687 281.212 1739.885 281.303 L 1740.092 281.729 Q 1740.450 282.784 1738.451 288.304 Q 1738.749 288.506 1741.912 288.393 Q 1745.076 288.280 1746.206 288.100 "></path>
    <path id="STROKE_d59ae2ca-6d44-42f3-b7f7-b20129bd6088" opacity="1.000" fill="none" stroke="#000000" stroke-width="2.450" stroke-opacity="1.000" stroke-linecap="round" stroke-linejoin="round" d="M 1780.490 331.857 Q 1780.908 332.094 1781.875 332.619 Q 1782.843 333.145 1784.707 334.140 Q 1786.571 335.135 1789.122 336.471 Q 1791.673 337.806 1798.528 341.461 Q 1805.384 345.115 1810.295 347.747 Q 1815.206 350.379 1816.513 351.085 Q 1817.821 351.790 1831.062 358.917 Q 1844.304 366.044 1851.138 369.722 Q 1857.973 373.400 1861.869 375.487 Q 1865.764 377.574 1870.276 379.992 Q 1874.788 382.409 1881.165 385.804 Q 1887.542 389.198 1893.236 392.225 Q 1898.931 395.252 1904.364 398.132 Q 1909.797 401.011 1912.180 402.274 Q 1914.563 403.537 1915.715 404.145 Q 1916.867 404.752 1934.969 414.291 Q 1953.071 423.831 1957.988 426.394 Q 1962.904 428.957 1965.896 430.511 Q 1968.888 432.065 1980.234 437.859 Q 1991.579 443.653 1993.626 444.678 Q 1995.674 445.703 1999.941 447.824 Q 2004.208 449.944 2010.704 453.114 Q 2017.200 456.283 2025.576 460.262 Q 2033.952 464.241 2040.483 467.256 Q 2047.015 470.271 2055.206 473.960 Q 2063.396 477.650 2066.858 479.185 Q 2070.321 480.720 2075.743 483.109 Q 2081.165 485.498 2088.754 488.807 Q 2096.343 492.115 2102.379 494.728 Q 2108.415 497.342 2114.197 499.847 Q 2119.979 502.352 2123.182 503.742 Q 2126.386 505.132 2129.521 506.497 Q 2132.657 507.862 2144.867 513.217 Q 2157.077 518.572 2163.271 521.318 Q 2169.465 524.064 2176.681 527.268 Q 2183.896 530.472 2187.288 531.978 Q 2190.679 533.485 2192.932 534.493 Q 2195.185 535.501 2195.818 535.788 Q 2196.450 536.075 2199.347 537.392 "></path>
    <path id="STROKE_c071f68f-79a9-4f82-b8aa-97d8665c1dd9" opacity="1.000" fill="none" stroke="#000000" stroke-width="2.450" stroke-opacity="1.000" stroke-linecap="round" stroke-linejoin="round" d="M 1815.819 309.820 Q 1816.237 310.057 1817.205 310.582 Q 1818.172 311.108 1820.036 312.103 Q 1821.900 313.098 1824.451 314.434 Q 1827.002 315.769 1833.857 319.424 Q 1840.713 323.078 1845.624 325.710 Q 1850.535 328.342 1851.843 329.048 Q 1853.150 329.753 1866.391 336.880 Q 1879.633 344.007 1886.467 347.685 Q 1893.302 351.364 1897.198 353.451 Q 1901.094 355.537 1905.605 357.955 Q 1910.117 360.372 1916.494 363.767 Q 1922.871 367.161 1928.565 370.188 Q 1934.260 373.215 1939.693 376.095 Q 1945.126 378.974 1947.509 380.237 Q 1949.892 381.500 1951.044 382.108 Q 1952.196 382.715 1970.298 392.255 Q 1988.400 401.794 1993.317 404.357 Q 1998.233 406.920 2001.225 408.474 Q 2004.218 410.028 2015.563 415.822 Q 2026.908 421.617 2028.956 422.641 Q 2031.003 423.666 2035.270 425.787 Q 2039.537 427.907 2046.033 431.077 Q 2052.529 434.246 2060.905 438.225 Q 2069.281 442.204 2075.812 445.219 Q 2082.344 448.234 2090.535 451.924 Q 2098.725 455.613 2102.188 457.148 Q 2105.650 458.684 2111.072 461.073 Q 2116.494 463.461 2124.083 466.770 Q 2131.672 470.078 2137.708 472.691 Q 2143.744 475.305 2149.526 477.810 Q 2155.308 480.315 2158.511 481.705 Q 2161.715 483.095 2164.850 484.460 Q 2167.986 485.825 2180.196 491.180 Q 2192.406 496.535 2198.600 499.281 Q 2204.794 502.027 2212.010 505.231 Q 2219.225 508.435 2222.617 509.941 Q 2226.008 511.448 2228.261 512.456 Q 2230.514 513.464 2231.147 513.751 Q 2231.780 514.038 2234.676 515.355 "></path>
    <path id="STROKE_f3b7077a-b3b0-4df6-b5d5-6d8a49fa4307" opacity="1.000" fill="none" stroke="#000000" stroke-width="2.450" stroke-opacity="1.000" stroke-linecap="round" stroke-linejoin="round" d="M 1841.004 279.738 Q 1841.422 279.974 1842.390 280.500 Q 1843.357 281.026 1845.221 282.021 Q 1847.085 283.016 1849.636 284.352 Q 1852.187 285.687 1859.042 289.341 Q 1865.898 292.996 1870.809 295.628 Q 1875.720 298.260 1877.028 298.965 Q 1878.335 299.671 1891.576 306.798 Q 1904.818 313.925 1911.652 317.603 Q 1918.487 321.281 1922.383 323.368 Q 1926.279 325.455 1930.791 327.873 Q 1935.302 330.290 1941.679 333.685 Q 1948.056 337.079 1953.750 340.106 Q 1959.445 343.133 1964.878 346.012 Q 1970.311 348.892 1972.694 350.155 Q 1975.077 351.418 1976.229 352.025 Q 1977.381 352.633 1995.483 362.172 Q 2013.585 371.712 2018.502 374.275 Q 2023.418 376.838 2026.410 378.392 Q 2029.403 379.945 2040.748 385.740 Q 2052.093 391.534 2054.141 392.559 Q 2056.188 393.584 2060.455 395.704 Q 2064.722 397.825 2071.218 400.994 Q 2077.714 404.164 2086.090 408.143 Q 2094.466 412.121 2100.998 415.137 Q 2107.529 418.152 2115.720 421.841 Q 2123.910 425.531 2127.373 427.066 Q 2130.835 428.601 2136.257 430.990 Q 2141.679 433.379 2149.268 436.687 Q 2156.857 439.996 2162.893 442.609 Q 2168.929 445.223 2174.711 447.728 Q 2180.493 450.233 2183.696 451.623 Q 2186.900 453.013 2190.035 454.378 Q 2193.171 455.743 2205.381 461.098 Q 2217.592 466.452 2223.785 469.198 Q 2229.979 471.944 2237.195 475.149 Q 2244.410 478.353 2247.802 479.859 Q 2251.193 481.365 2253.446 482.374 Q 2255.699 483.382 2256.332 483.669 Q 2256.965 483.956 2259.861 485.273 "></path>
    <path id="STROKE_e576f891-ac16-4620-8c85-62621c48a1b2" opacity="1.000" fill="none" stroke="#000000" stroke-width="1.515" stroke-opacity="1.000" stroke-linecap="round" stroke-linejoin="round" d="M 2208.121 525.786 Q 2208.079 525.774 2208.046 525.496 Q 2208.013 525.218 2207.902 524.980 Q 2207.792 524.743 2207.442 524.461 Q 2207.092 524.180 2206.680 524.057 Q 2206.268 523.935 2206.044 523.944 Q 2205.820 523.954 2205.605 524.079 Q 2205.390 524.205 2205.194 524.518 Q 2204.999 524.831 2204.936 525.004 Q 2204.872 525.178 2204.818 525.356 Q 2204.765 525.533 2204.774 526.935 Q 2204.784 528.336 2205.166 529.618 Q 2205.547 530.901 2205.858 532.069 Q 2206.169 533.237 2206.250 533.628 Q 2206.331 534.020 2206.346 534.603 Q 2206.361 535.186 2206.243 535.532 Q 2206.125 535.877 2205.742 536.046 Q 2205.358 536.214 2205.184 536.209 Q 2205.010 536.205 2204.885 536.142 Q 2204.760 536.078 2204.445 535.690 "></path>
    <path id="STROKE_6a5cff6a-5ad2-487f-b4d6-fbc83d489632" opacity="1.000" fill="none" stroke="#000000" stroke-width="1.515" stroke-opacity="1.000" stroke-linecap="round" stroke-linejoin="round" d="M 2201.869 532.381 Q 2202.136 532.115 2202.201 532.125 Q 2202.266 532.135 2202.686 531.910 Q 2203.107 531.684 2203.126 531.678 Q 2203.146 531.671 2204.798 531.367 Q 2206.449 531.063 2207.423 531.076 Q 2208.396 531.089 2209.090 531.134 "></path>
    <path id="STROKE_5d0e53af-2f46-4b43-b624-ad6f1d9832ef" opacity="1.000" fill="none" stroke="#000000" stroke-width="1.515" stroke-opacity="1.000" stroke-linecap="round" stroke-linejoin="round" d="M 2210.972 533.249 L 2211.130 533.508 Q 2211.276 534.007 2211.695 536.204 Q 2212.115 538.401 2212.259 539.009 "></path>
    <path id="STROKE_534bc436-2e06-414f-b6d8-eb20872ad3a9" opacity="1.000" fill="none" stroke="#000000" stroke-width="1.515" stroke-opacity="1.000" stroke-linecap="round" stroke-linejoin="round" d="M 2218.105 528.411 L 2218.114 528.293 Q 2218.233 527.940 2218.838 534.903 L 2218.974 535.744 "></path>
    <path id="STROKE_c746617b-a884-4964-b1ed-653f842561b8" opacity="1.000" fill="none" stroke="#000000" stroke-width="1.515" stroke-opacity="1.000" stroke-linecap="round" stroke-linejoin="round" d="M 2216.123 532.381 Q 2216.733 532.124 2216.832 532.143 Q 2217.283 531.955 2219.711 531.758 Q 2222.138 531.560 2222.418 531.546 "></path>
    <path id="STROKE_b5341f07-511b-4c50-9259-816ed69ab3f1" opacity="1.000" fill="none" stroke="#000000" stroke-width="1.515" stroke-opacity="1.000" stroke-linecap="round" stroke-linejoin="round" d="M 2231.983 526.849 L 2232.217 526.866 Q 2232.263 526.896 2234.291 528.644 Q 2236.318 530.391 2241.559 534.730 L 2242.185 535.321 "></path>
    <path id="STROKE_d03f3d59-17e0-49dc-a945-0e24c152d748" opacity="1.000" fill="none" stroke="#000000" stroke-width="1.515" stroke-opacity="1.000" stroke-linecap="round" stroke-linejoin="round" d="M 2239.204 532.978 L 2239.005 532.975 Q 2238.304 533.269 2238.262 533.334 Q 2237.682 533.660 2232.576 537.350 "></path>
    <path id="STROKE_a6301765-3ac9-4d4e-9699-2e049815fd17" opacity="1.000" fill="none" stroke="#000000" stroke-width="1.515" stroke-opacity="1.000" stroke-linecap="round" stroke-linejoin="round" d="M 2250.968 527.543 L 2251.231 526.832 Q 2251.249 526.806 2251.331 526.318 Q 2251.412 525.829 2251.355 525.398 Q 2251.298 524.967 2251.250 524.893 Q 2251.203 524.819 2250.926 524.624 Q 2250.649 524.428 2250.201 524.425 Q 2249.753 524.422 2249.183 524.892 Q 2248.613 525.362 2248.337 525.996 Q 2248.062 526.630 2247.941 527.786 Q 2247.821 528.942 2248.118 530.271 Q 2248.416 531.599 2249.154 533.180 Q 2249.892 534.760 2250.346 536.994 Q 2250.227 537.273 2249.492 538.185 "></path>
    <path id="STROKE_1207ebb0-f009-479e-96c0-f566c2286760" opacity="1.000" fill="none" stroke="#000000" stroke-width="1.515" stroke-opacity="1.000" stroke-linecap="round" stroke-linejoin="round" d="M 2245.411 534.356 Q 2245.474 534.295 2245.772 534.069 Q 2246.070 533.843 2248.635 533.407 Q 2251.199 532.970 2252.256 532.837 "></path>
    <path id="STROKE_ea1158b2-b80a-471b-abdd-b47cf27c6e3e" opacity="1.000" fill="none" stroke="#000000" stroke-width="1.515" stroke-opacity="1.000" stroke-linecap="round" stroke-linejoin="round" d="M 2254.050 533.716 Q 2254.356 533.571 2254.497 533.525 Q 2254.639 533.479 2255.547 533.503 Q 2256.455 533.527 2256.834 533.634 Q 2257.213 533.741 2257.354 533.970 Q 2257.495 534.198 2257.526 534.413 Q 2257.557 534.627 2257.518 534.886 Q 2257.479 535.145 2257.038 536.085 Q 2256.596 537.026 2256.226 538.103 Q 2256.271 538.152 2258.476 538.419 Q 2260.680 538.687 2261.401 538.640 "></path>
    <path id="STROKE_2e9930ab-ac2a-4045-8ef3-67ff5b69a149" opacity="1.000" fill="none" stroke="#000000" stroke-width="1.515" stroke-opacity="1.000" stroke-linecap="round" stroke-linejoin="round" d="M 2264.802 530.906 L 2269.165 530.619 L 2269.997 530.624 "></path>
    <path id="STROKE_25fbd69e-7055-4c47-b0f8-50b158e628ad" opacity="1.000" fill="none" stroke="#000000" stroke-width="1.515" stroke-opacity="1.000" stroke-linecap="round" stroke-linejoin="round" d="M 2263.933 534.497 L 2264.860 534.386 Q 2265.632 534.270 2267.941 534.047 Q 2270.250 533.823 2270.604 533.759 "></path>
    <path id="STROKE_378d57b4-d470-4ee2-8510-4e40ab119775" opacity="1.000" fill="none" stroke="#000000" stroke-width="1.515" stroke-opacity="1.000" stroke-linecap="round" stroke-linejoin="round" d="M 2286.276 524.821 Q 2286.256 524.876 2286.354 525.069 Q 2286.312 525.586 2285.667 527.459 Q 2285.023 529.333 2284.331 530.344 Q 2283.639 531.356 2282.641 532.112 Q 2281.644 532.868 2281.022 532.925 Q 2280.400 532.982 2279.848 532.912 Q 2279.295 532.841 2278.930 532.492 Q 2278.565 532.142 2278.456 531.964 Q 2278.347 531.786 2278.283 531.508 Q 2278.219 531.231 2278.255 531.011 Q 2278.290 530.791 2278.421 530.594 Q 2278.552 530.397 2279.216 530.113 Q 2279.880 529.828 2280.345 529.932 Q 2280.810 530.035 2281.734 531.083 Q 2282.658 532.131 2283.207 532.961 Q 2283.756 533.792 2284.125 534.343 Q 2284.495 534.894 2284.983 535.792 Q 2285.471 536.690 2285.538 536.981 "></path>
    <path id="STROKE_d7081527-5817-4dc9-bc18-3b71399bc7d7" opacity="1.000" fill="none" stroke="#000000" stroke-width="1.515" stroke-opacity="1.000" stroke-linecap="round" stroke-linejoin="round" d="M 2054.169 513.951 L 2054.191 513.700 Q 2054.317 513.365 2054.495 513.108 Q 2054.673 512.852 2055.200 512.167 Q 2055.727 511.482 2056.367 510.767 Q 2057.007 510.053 2057.504 509.585 Q 2058.001 509.118 2058.023 509.072 Q 2058.044 509.025 2059.438 507.898 Q 2060.831 506.770 2062.092 506.190 Q 2063.354 505.610 2064.126 505.491 Q 2064.899 505.372 2065.242 505.412 Q 2065.585 505.451 2065.850 505.573 Q 2066.115 505.695 2066.515 506.028 Q 2066.916 506.362 2066.984 506.412 Q 2067.052 506.462 2067.703 507.746 Q 2068.354 509.029 2068.598 509.967 Q 2068.843 510.905 2069.019 511.638 Q 2069.196 512.371 2069.298 512.687 Q 2069.400 513.003 2069.615 513.461 Q 2069.830 513.919 2069.999 514.190 Q 2070.167 514.461 2070.635 514.974 Q 2071.103 515.487 2071.549 515.782 Q 2071.996 516.076 2073.068 516.249 Q 2074.139 516.422 2075.484 516.111 Q 2076.828 515.800 2078.308 514.845 Q 2079.788 513.889 2080.671 512.815 Q 2081.554 511.742 2082.452 509.932 Q 2083.349 508.122 2083.789 506.712 Q 2084.229 505.301 2084.128 504.460 Q 2083.788 504.272 2083.576 504.239 Q 2083.364 504.206 2082.681 504.293 Q 2081.998 504.380 2081.772 504.429 Q 2081.546 504.479 2081.103 504.613 Q 2081.058 504.676 2082.163 504.131 Q 2083.268 503.585 2084.125 503.117 Q 2084.981 502.648 2085.315 502.463 Q 2085.649 502.277 2086.497 501.877 L 2086.844 502.451 Q 2086.820 502.753 2087.941 505.176 Q 2089.062 507.598 2089.289 508.104 "></path>
    <path id="STROKE_feb836aa-8f7c-4472-9cac-0648ff16f730" opacity="1.000" fill="none" stroke="#000000" stroke-width="1.515" stroke-opacity="1.000" stroke-linecap="round" stroke-linejoin="round" d="M 2044.936 525.471 L 2044.749 525.412 Q 2043.776 525.503 2043.436 525.580 Q 2043.095 525.657 2042.761 525.793 Q 2042.427 525.929 2042.214 526.056 Q 2042.000 526.183 2041.868 526.268 Q 2041.736 526.353 2041.525 526.869 Q 2041.585 527.044 2042.162 527.487 Q 2042.739 527.930 2043.300 528.546 Q 2043.861 529.161 2044.095 529.619 Q 2044.328 530.077 2044.420 530.587 Q 2044.512 531.097 2044.471 531.460 Q 2044.430 531.822 2044.155 532.195 Q 2043.881 532.568 2043.334 532.747 Q 2042.787 532.927 2042.017 532.883 Q 2041.247 532.840 2040.718 532.536 Q 2040.190 532.231 2039.655 531.503 "></path>
    <path id="STROKE_634cf6ea-7ff3-44d0-9ea1-93c7bf646ba0" opacity="1.000" fill="none" stroke="#000000" stroke-width="1.515" stroke-opacity="1.000" stroke-linecap="round" stroke-linejoin="round" d="M 2048.250 522.054 Q 2048.277 522.184 2048.342 522.299 Q 2048.407 522.414 2048.355 524.635 Q 2048.303 526.857 2048.419 528.242 Q 2048.534 529.626 2048.923 530.536 Q 2049.312 531.445 2051.926 533.065 "></path>
    <path id="STROKE_77378ac6-93d9-4a88-876f-74b1578d5e41" opacity="1.000" fill="none" stroke="#000000" stroke-width="1.515" stroke-opacity="1.000" stroke-linecap="round" stroke-linejoin="round" d="M 2053.894 529.984 Q 2053.663 529.625 2053.295 529.643 Q 2053.072 530.081 2053.221 530.773 Q 2053.370 531.466 2054.317 531.653 Q 2055.264 531.841 2055.840 531.706 Q 2056.416 531.572 2056.683 531.359 Q 2056.950 531.147 2057.074 530.887 Q 2057.197 530.626 2057.215 530.296 Q 2057.233 529.966 2057.166 529.747 Q 2057.099 529.529 2057.045 529.452 Q 2056.991 529.376 2056.654 529.090 Q 2056.317 528.804 2055.358 528.567 Q 2054.399 528.329 2053.214 528.964 "></path>
    <path id="STROKE_afef2bc7-ba1f-4f23-8d2f-0c0dc2905c2b" opacity="1.000" fill="none" stroke="#000000" stroke-width="1.515" stroke-opacity="1.000" stroke-linecap="round" stroke-linejoin="round" d="M 2060.796 527.728 L 2060.847 527.893 Q 2060.879 527.974 2061.170 530.375 Q 2061.461 532.776 2062.474 536.473 L 2062.359 536.840 "></path>
    <path id="STROKE_c862de77-6465-40e6-a386-e302d2768042" opacity="1.000" fill="none" stroke="#000000" stroke-width="1.515" stroke-opacity="1.000" stroke-linecap="round" stroke-linejoin="round" d="M 2058.582 528.878 Q 2058.636 528.819 2059.838 528.251 Q 2061.039 527.684 2062.539 527.423 Q 2064.038 527.161 2065.014 527.340 Q 2065.990 527.519 2066.294 527.935 Q 2066.599 528.351 2066.621 528.667 Q 2066.643 528.984 2066.458 529.452 Q 2066.273 529.920 2065.909 530.336 Q 2065.544 530.751 2064.431 531.491 L 2063.604 531.915 "></path>
    <path id="STROKE_0a4f9ba3-6b1f-4fc4-849d-6e1c7ba55599" opacity="1.000" fill="none" stroke="#000000" stroke-width="1.515" stroke-opacity="1.000" stroke-linecap="round" stroke-linejoin="round" d="M 2069.030 529.615 L 2069.306 529.240 Q 2069.494 529.062 2069.711 528.753 Q 2069.928 528.445 2070.019 528.225 Q 2070.109 528.004 2070.136 527.828 Q 2070.162 527.652 2070.173 527.590 Q 2070.184 527.528 2070.032 527.270 Q 2069.879 527.011 2069.568 527.034 Q 2069.256 527.057 2068.984 527.290 Q 2068.713 527.523 2068.483 527.952 Q 2068.254 528.381 2068.199 529.038 Q 2068.144 529.696 2068.324 530.075 Q 2068.504 530.454 2068.848 530.708 Q 2069.192 530.963 2069.635 531.164 Q 2070.079 531.365 2071.547 531.540 Q 2073.015 531.716 2073.849 531.730 "></path>
    <path id="STROKE_65971c21-d2c3-4e7c-aca3-f3f6c3ddcc67" opacity="1.000" fill="none" stroke="#000000" stroke-width="1.515" stroke-opacity="1.000" stroke-linecap="round" stroke-linejoin="round" d="M 2082.039 527.771 L 2082.233 527.586 Q 2086.841 527.137 2087.827 527.033 "></path>
    <path id="STROKE_e8c15f9b-dd17-453b-bd7c-e9bcb8c9efe2" opacity="1.000" fill="none" stroke="#000000" stroke-width="1.515" stroke-opacity="1.000" stroke-linecap="round" stroke-linejoin="round" d="M 2091.691 522.521 L 2091.951 522.522 Q 2092.021 522.699 2094.580 524.814 Q 2097.139 526.929 2099.258 528.411 Q 2101.377 529.893 2102.167 530.483 "></path>
    <path id="STROKE_5aafa4dc-8483-499a-913f-901049a1a163" opacity="1.000" fill="none" stroke="#000000" stroke-width="1.515" stroke-opacity="1.000" stroke-linecap="round" stroke-linejoin="round" d="M 2098.897 528.693 L 2098.636 528.684 Q 2098.378 528.710 2093.196 532.609 "></path>
  </g>
  <g id="New_Layer_1" opacity="1.000">
    <path id="STROKE_067d5d56-923b-4804-a7c1-f9920c2b88cd" opacity="0.500" fill="none" stroke="#bb3e45" stroke-width="25.304" stroke-opacity="1.000" stroke-linecap="round" stroke-linejoin="round" d="M 1847.985 279.600 Q 1847.545 280.020 1848.797 282.986 Q 1850.050 285.952 1850.904 287.350 Q 1851.758 288.748 1852.191 289.596 Q 1852.624 290.444 1853.313 291.761 Q 1854.003 293.079 1855.004 294.215 Q 1856.006 295.352 1856.628 296.044 Q 1857.250 296.736 1858.965 298.885 Q 1860.680 301.034 1861.990 302.719 Q 1863.299 304.404 1864.054 305.245 Q 1864.810 306.087 1865.568 307.418 Q 1866.326 308.749 1866.943 309.583 Q 1867.561 310.418 1868.662 312.392 Q 1869.764 314.367 1870.360 315.824 Q 1870.956 317.281 1871.383 318.050 Q 1871.809 318.818 1872.025 319.151 Q 1872.241 319.484 1872.549 320.001 Q 1872.857 320.518 1873.893 322.027 Q 1874.929 323.536 1875.587 324.380 Q 1876.244 325.225 1876.683 325.788 Q 1877.122 326.351 1877.338 326.744 Q 1877.553 327.137 1877.684 327.337 Q 1877.815 327.538 1877.789 327.550 Q 1877.763 327.563 1878.233 328.131 Q 1878.703 328.700 1880.030 330.192 Q 1881.357 331.685 1882.039 332.617 Q 1882.720 333.550 1883.039 333.977 Q 1883.358 334.404 1883.727 334.917 Q 1884.096 335.430 1884.330 335.727 Q 1884.563 336.024 1884.703 336.221 Q 1884.843 336.419 1884.984 336.627 Q 1885.125 336.835 1885.417 337.212 Q 1885.709 337.590 1885.640 337.521 Q 1885.572 337.453 1886.198 338.123 Q 1886.824 338.794 1887.848 339.931 Q 1888.873 341.067 1889.547 341.907 Q 1890.222 342.747 1890.336 342.879 Q 1890.451 343.011 1891.817 344.696 Q 1893.183 346.382 1894.532 348.100 Q 1895.881 349.819 1896.484 350.632 Q 1897.088 351.446 1897.942 352.392 Q 1898.795 353.339 1899.555 354.258 Q 1900.316 355.176 1900.778 355.779 Q 1901.241 356.382 1901.667 356.932 Q 1902.094 357.481 1903.527 359.065 Q 1904.960 360.650 1906.148 361.907 Q 1907.336 363.165 1908.316 364.351 Q 1909.295 365.536 1910.137 366.331 Q 1910.979 367.125 1912.769 368.935 Q 1914.559 370.745 1915.994 372.406 Q 1917.428 374.068 1919.353 376.052 Q 1921.277 378.037 1922.518 379.221 Q 1923.760 380.406 1924.662 381.230 Q 1925.564 382.054 1926.684 383.065 Q 1927.804 384.075 1928.959 385.145 Q 1930.115 386.215 1930.663 386.743 Q 1931.211 387.272 1931.984 387.960 Q 1932.756 388.648 1933.154 388.971 Q 1933.552 389.294 1933.757 389.480 Q 1933.962 389.666 1933.960 389.640 Q 1933.958 389.614 1935.515 391.004 Q 1937.072 392.393 1938.505 393.629 Q 1939.939 394.866 1941.510 396.167 Q 1943.081 397.469 1944.307 398.501 Q 1945.532 399.534 1946.378 400.231 Q 1947.224 400.928 1947.642 401.237 Q 1948.059 401.545 1948.300 401.733 Q 1948.540 401.921 1948.939 402.243 Q 1949.338 402.566 1949.677 402.829 Q 1950.016 403.091 1950.354 403.405 Q 1950.692 403.718 1951.555 404.517 Q 1952.417 405.317 1954.845 406.943 Q 1957.274 408.569 1959.773 410.285 Q 1962.271 412.001 1964.021 413.130 Q 1965.771 414.260 1966.644 414.785 Q 1967.518 415.311 1969.486 416.652 Q 1971.453 417.993 1973.446 419.159 Q 1975.438 420.325 1981.062 424.005 Q 1986.687 427.686 1989.648 429.484 Q 1992.609 431.283 1993.826 432.056 Q 1995.043 432.830 1995.935 433.424 Q 1996.827 434.018 1997.485 434.477 Q 1998.143 434.935 1998.322 435.037 Q 1998.500 435.138 1998.633 435.221 Q 1998.766 435.303 1998.983 435.443 Q 1999.200 435.583 1999.870 435.987 Q 2000.541 436.390 2001.226 436.748 Q 2001.912 437.107 2002.754 437.640 Q 2003.596 438.174 2004.028 438.427 Q 2004.459 438.680 2004.789 438.875 Q 2005.118 439.071 2005.312 439.199 Q 2005.506 439.328 2005.468 439.306 Q 2005.430 439.285 2006.277 439.800 Q 2007.123 440.315 2009.069 441.483 Q 2011.015 442.650 2012.785 443.578 Q 2014.556 444.507 2016.289 445.569 Q 2018.022 446.631 2021.663 448.396 Q 2025.303 450.160 2027.053 451.063 Q 2028.802 451.966 2030.065 452.404 Q 2031.328 452.842 2034.164 454.032 Q 2037.000 455.223 2038.540 455.644 Q 2040.081 456.066 2041.832 456.610 Q 2043.584 457.154 2044.814 457.567 Q 2046.044 457.979 2046.764 458.142 Q 2047.484 458.306 2049.115 458.780 Q 2050.746 459.255 2052.308 459.759 Q 2053.870 460.263 2054.669 460.530 Q 2055.469 460.796 2056.646 461.142 Q 2057.823 461.487 2058.471 461.672 Q 2059.118 461.857 2059.704 462.051 Q 2060.290 462.244 2060.411 462.289 Q 2060.532 462.333 2063.493 463.375 Q 2066.453 464.417 2068.179 465.005 Q 2069.905 465.594 2071.962 466.245 Q 2074.020 466.895 2075.576 467.172 Q 2077.132 467.449 2079.388 468.102 Q 2081.644 468.754 2083.439 469.259 Q 2085.234 469.763 2086.816 470.191 Q 2088.397 470.619 2092.106 471.382 Q 2095.816 472.146 2098.375 472.811 Q 2100.934 473.476 2103.817 474.400 Q 2106.700 475.323 2108.671 475.846 Q 2110.642 476.369 2111.219 476.512 Q 2111.797 476.654 2113.199 476.948 Q 2114.602 477.242 2115.592 477.413 Q 2116.581 477.583 2117.421 477.734 Q 2118.261 477.886 2118.245 477.917 Q 2118.229 477.948 2121.026 478.458 Q 2123.824 478.967 2126.555 479.452 Q 2129.286 479.936 2130.815 480.254 Q 2132.344 480.572 2134.296 481.014 Q 2136.248 481.455 2137.795 481.694 Q 2139.342 481.934 2141.988 482.079 Q 2144.634 482.225 2148.018 482.684 Q 2151.403 483.143 2153.305 483.445 Q 2155.207 483.746 2156.742 483.965 Q 2158.278 484.184 2159.337 484.258 Q 2160.396 484.332 2163.072 484.565 Q 2165.748 484.798 2167.764 485.082 Q 2169.780 485.367 2171.159 485.517 Q 2172.537 485.668 2173.103 485.713 Q 2173.668 485.758 2174.934 485.920 Q 2176.200 486.082 2177.090 486.201 Q 2177.979 486.319 2178.298 486.365 Q 2178.616 486.410 2178.831 486.430 Q 2179.045 486.450 2179.389 486.484 Q 2179.733 486.518 2181.617 486.874 Q 2183.502 487.231 2186.511 487.552 Q 2189.520 487.873 2191.969 488.027 Q 2194.417 488.182 2196.222 488.204 Q 2198.026 488.226 2199.322 488.253 Q 2200.618 488.280 2201.922 488.295 Q 2203.227 488.309 2204.810 488.268 Q 2206.392 488.226 2207.453 488.333 Q 2208.514 488.440 2209.568 488.454 Q 2210.623 488.469 2211.334 488.354 Q 2212.046 488.238 2214.834 488.277 Q 2217.621 488.316 2218.989 488.288 Q 2220.357 488.260 2220.905 488.336 Q 2221.452 488.413 2221.682 488.419 Q 2221.911 488.426 2222.271 488.451 Q 2222.632 488.475 2222.901 488.486 Q 2223.171 488.496 2223.277 488.487 Q 2223.384 488.479 2223.742 488.437 Q 2224.101 488.396 2224.359 488.368 Q 2224.616 488.339 2224.979 488.306 Q 2225.342 488.273 2225.664 488.238 Q 2225.986 488.204 2225.961 488.209 Q 2225.937 488.215 2225.949 488.216 Q 2225.961 488.217 2225.990 488.214 Q 2226.019 488.212 2226.101 488.201 Q 2226.183 488.189 2226.287 488.164 Q 2226.392 488.139 2226.661 488.056 Q 2226.931 487.973 2227.163 487.683 Q 2227.395 487.393 2227.333 487.467 Q 2227.271 487.541 2227.235 487.573 Q 2227.280 486.536 2227.266 486.896 Q 2227.166 485.985 2227.149 486.262 Q 2227.133 486.538 2227.146 486.223 Q 2227.159 485.907 2226.875 484.655 Q 2226.591 483.402 2226.228 482.557 Q 2225.865 481.713 2224.707 480.620 Q 2223.549 479.527 2222.948 478.925 Q 2222.346 478.324 2221.757 478.164 Q 2221.167 478.003 2221.570 478.049 Q 2221.972 478.094 2219.886 477.880 Q 2217.801 477.666 2216.387 477.529 Q 2214.973 477.392 2213.570 476.999 Q 2212.167 476.606 2211.444 476.398 Q 2210.722 476.189 2209.351 475.705 Q 2207.979 475.222 2207.142 474.920 Q 2206.305 474.618 2205.828 474.504 Q 2205.352 474.389 2205.163 474.151 Q 2204.974 473.913 2200.736 472.911 Q 2196.499 471.909 2192.834 471.260 Q 2189.170 470.610 2187.369 470.112 Q 2185.567 469.613 2183.812 469.091 Q 2182.056 468.569 2178.568 467.900 Q 2175.081 467.232 2170.325 466.755 Q 2165.570 466.279 2163.376 466.111 Q 2161.183 465.944 2159.243 465.735 Q 2157.303 465.525 2155.051 465.472 Q 2152.800 465.419 2147.861 464.668 Q 2142.922 463.917 2138.727 462.705 Q 2134.531 461.494 2132.380 461.080 Q 2130.229 460.667 2127.625 460.191 Q 2125.020 459.714 2122.068 458.945 Q 2119.116 458.176 2116.349 457.693 Q 2113.582 457.209 2108.436 456.263 Q 2103.290 455.317 2099.275 454.481 Q 2095.260 453.645 2092.646 452.949 Q 2090.031 452.253 2087.369 451.619 Q 2084.707 450.985 2083.266 450.610 Q 2081.825 450.234 2080.838 449.934 Q 2079.852 449.633 2078.918 449.354 Q 2077.984 449.075 2075.911 448.410 Q 2073.839 447.746 2072.154 447.123 Q 2070.470 446.500 2065.761 445.352 Q 2061.052 444.203 2058.092 443.249 Q 2055.131 442.294 2053.376 441.554 Q 2051.620 440.814 2047.298 439.273 Q 2042.975 437.731 2039.498 436.312 Q 2036.021 434.893 2034.211 434.111 Q 2032.400 433.329 2031.709 433.037 Q 2031.019 432.746 2030.055 432.287 Q 2029.092 431.828 2028.332 431.509 Q 2027.571 431.190 2023.310 428.895 Q 2019.048 426.599 2012.767 423.338 Q 2006.486 420.078 2002.807 418.092 Q 1999.128 416.106 1993.742 412.843 Q 1988.356 409.581 1985.079 407.709 Q 1981.801 405.838 1976.128 401.228 Q 1970.455 396.617 1965.245 392.204 Q 1960.035 387.790 1957.730 385.555 Q 1955.426 383.319 1947.729 376.733 Q 1940.031 370.147 1934.986 365.739 Q 1929.941 361.331 1926.957 358.650 Q 1923.973 355.969 1922.209 354.316 Q 1920.446 352.663 1915.323 347.479 Q 1910.201 342.296 1905.706 338.486 Q 1901.211 334.677 1897.124 330.309 Q 1893.037 325.940 1890.958 323.458 Q 1888.879 320.976 1887.488 319.739 Q 1886.098 318.502 1882.785 314.460 Q 1879.473 310.418 1877.728 308.194 Q 1875.983 305.971 1874.827 304.472 Q 1873.670 302.973 1872.697 301.925 Q 1871.723 300.876 1869.896 298.128 Q 1868.070 295.380 1867.207 293.869 Q 1866.343 292.357 1865.577 290.797 Q 1864.811 289.237 1863.510 287.367 Q 1862.209 285.496 1861.139 283.771 Q 1860.069 282.046 1859.684 280.884 Q 1859.299 279.722 1859.312 279.184 Q 1859.325 278.647 1859.553 278.391 Q 1859.782 278.136 1859.988 277.928 Q 1860.195 277.720 1860.461 277.591 Q 1860.727 277.461 1860.683 277.311 Q 1860.639 277.161 1861.589 276.818 Q 1862.540 276.474 1863.144 276.460 Q 1863.748 276.445 1864.111 276.519 Q 1864.475 276.593 1864.733 276.709 Q 1864.991 276.826 1865.288 276.959 Q 1865.584 277.093 1866.008 277.300 Q 1866.432 277.508 1866.714 277.638 Q 1866.997 277.768 1868.790 278.963 Q 1870.582 280.158 1871.994 281.527 Q 1873.406 282.896 1874.208 283.810 Q 1875.009 284.723 1875.782 285.707 Q 1876.555 286.690 1878.736 288.879 Q 1880.917 291.067 1883.299 293.441 Q 1885.682 295.814 1887.378 297.684 Q 1889.074 299.554 1891.038 301.973 Q 1893.002 304.393 1894.403 306.043 Q 1895.804 307.692 1896.669 308.717 Q 1897.534 309.742 1898.060 310.331 Q 1898.585 310.920 1899.281 311.706 Q 1899.978 312.493 1902.383 314.631 Q 1904.788 316.769 1908.100 319.933 Q 1911.412 323.096 1914.893 326.859 Q 1918.375 330.622 1924.468 336.313 Q 1930.560 342.004 1934.120 345.175 Q 1937.680 348.347 1939.728 350.163 Q 1941.776 351.980 1947.913 357.101 Q 1954.050 362.223 1958.053 365.327 Q 1962.056 368.431 1964.617 370.156 Q 1967.178 371.880 1972.737 375.775 Q 1978.296 379.670 1983.726 383.381 Q 1989.155 387.092 1991.834 388.918 Q 1994.512 390.744 1995.684 391.517 Q 1996.855 392.291 2000.630 394.715 Q 2004.406 397.139 2009.645 400.516 Q 2014.884 403.894 2017.632 405.563 Q 2020.380 407.232 2021.750 408.103 Q 2023.120 408.974 2026.939 410.845 Q 2030.758 412.717 2036.500 415.310 Q 2042.241 417.903 2051.530 421.904 Q 2060.820 425.904 2065.757 427.898 Q 2070.695 429.892 2073.166 430.708 Q 2075.636 431.523 2085.224 434.372 Q 2094.811 437.220 2101.699 439.264 Q 2108.587 441.309 2112.230 442.379 Q 2115.873 443.449 2122.318 445.105 Q 2128.762 446.762 2132.819 447.605 Q 2136.875 448.448 2140.427 449.186 Q 2143.979 449.924 2152.220 451.540 Q 2160.461 453.155 2166.702 454.466 Q 2172.943 455.778 2176.148 456.419 Q 2179.352 457.060 2181.747 457.209 Q 2184.141 457.358 2188.261 457.857 Q 2192.381 458.355 2197.053 458.664 Q 2201.724 458.974 2205.403 458.877 Q 2209.083 458.780 2211.519 458.599 Q 2213.956 458.417 2215.319 458.339 Q 2216.683 458.260 2218.647 457.401 Q 2220.612 456.541 2221.917 455.121 Q 2223.221 453.701 2223.912 452.668 Q 2224.604 451.636 2225.079 450.056 Q 2225.554 448.476 2225.729 446.652 Q 2225.904 444.828 2225.174 443.075 Q 2224.445 441.321 2222.100 439.802 Q 2219.755 438.282 2214.902 437.849 Q 2210.049 437.415 2204.902 437.777 Q 2199.756 438.138 2196.688 438.534 Q 2193.618 438.930 2191.944 439.167 Q 2190.270 439.404 2187.431 439.913 Q 2184.592 440.422 2180.749 441.062 Q 2176.905 441.702 2174.139 442.072 Q 2171.373 442.442 2166.601 442.474 Q 2161.828 442.505 2159.119 442.365 Q 2156.409 442.226 2154.266 442.062 Q 2152.124 441.898 2151.008 441.798 Q 2149.893 441.699 2147.412 441.341 Q 2144.931 440.983 2138.036 440.129 Q 2131.140 439.275 2126.136 438.452 Q 2121.131 437.629 2116.575 436.551 Q 2112.020 435.472 2104.654 432.514 Q 2097.289 429.555 2090.630 425.970 Q 2083.970 422.384 2080.796 420.467 Q 2077.621 418.550 2074.366 416.824 Q 2071.111 415.099 2069.076 413.914 Q 2067.041 412.730 2066.008 412.161 Q 2064.975 411.592 2064.334 411.238 Q 2063.693 410.883 2061.021 409.348 Q 2058.348 407.813 2053.076 405.204 Q 2047.803 402.594 2043.300 400.488 Q 2038.797 398.381 2036.860 397.305 Q 2034.924 396.228 2033.379 395.448 Q 2031.833 394.667 2028.365 392.868 Q 2024.896 391.069 2021.907 389.259 Q 2018.917 387.450 2015.705 385.525 Q 2012.493 383.599 2010.260 382.385 Q 2008.028 381.171 2005.880 380.088 Q 2003.732 379.006 2001.921 378.160 Q 2000.109 377.315 1994.289 374.827 Q 1988.469 372.339 1985.018 370.956 Q 1981.566 369.573 1976.588 367.278 Q 1971.610 364.983 1968.956 363.636 Q 1966.303 362.288 1964.206 361.366 Q 1962.109 360.444 1956.458 357.146 Q 1950.806 353.847 1947.631 351.654 Q 1944.456 349.461 1941.669 347.439 Q 1938.882 345.417 1935.206 343.115 Q 1931.529 340.812 1926.408 336.369 Q 1921.286 331.927 1917.939 328.523 Q 1914.592 325.120 1912.759 323.243 Q 1910.925 321.365 1909.899 320.337 Q 1908.873 319.310 1906.320 317.133 Q 1903.766 314.956 1900.321 311.541 Q 1896.875 308.126 1893.893 304.803 Q 1890.910 301.480 1889.174 299.534 Q 1887.438 297.589 1886.275 296.279 Q 1885.111 294.970 1883.774 293.674 Q 1882.437 292.378 1880.641 290.455 Q 1878.845 288.533 1877.700 287.004 Q 1876.556 285.475 1875.726 282.965 Q 1874.897 280.454 1874.603 279.168 Q 1874.308 277.882 1874.160 277.520 Q 1874.012 277.159 1873.778 276.207 Q 1873.543 275.255 1873.645 274.153 Q 1873.747 273.050 1874.144 272.527 Q 1874.541 272.003 1874.688 271.964 Q 1874.835 271.924 1875.223 271.773 Q 1875.611 271.623 1876.387 271.750 Q 1877.163 271.877 1877.670 272.162 Q 1878.177 272.447 1878.500 272.677 Q 1878.823 272.907 1879.141 273.069 Q 1879.458 273.230 1881.893 275.197 Q 1884.328 277.163 1885.721 278.497 Q 1887.114 279.830 1888.049 280.834 Q 1888.985 281.837 1889.968 282.923 Q 1890.951 284.009 1891.363 284.397 Q 1891.774 284.784 1892.503 285.377 Q 1893.231 285.969 1895.625 288.037 Q 1898.018 290.105 1899.904 292.025 Q 1901.790 293.944 1902.858 295.078 Q 1903.925 296.213 1906.587 298.700 Q 1909.249 301.187 1912.550 304.164 Q 1915.851 307.141 1919.047 309.913 Q 1922.243 312.685 1923.853 314.173 Q 1925.464 315.661 1929.533 318.903 Q 1933.604 322.146 1935.981 323.858 Q 1938.358 325.570 1940.745 327.648 Q 1943.133 329.727 1946.587 332.505 Q 1950.040 335.283 1951.590 336.434 Q 1953.139 337.584 1955.007 338.996 Q 1956.874 340.409 1957.891 341.111 Q 1958.909 341.813 1962.048 343.987 Q 1965.187 346.161 1967.208 347.684 Q 1969.228 349.207 1970.371 350.045 Q 1971.513 350.882 1972.895 351.953 Q 1974.276 353.023 1977.112 354.887 Q 1979.949 356.751 1982.148 358.052 Q 1984.347 359.353 1985.598 360.065 Q 1986.850 360.777 1987.609 361.242 Q 1988.368 361.707 1990.310 362.766 Q 1992.252 363.825 1993.406 364.450 Q 1994.560 365.075 2000.112 368.084 Q 2005.664 371.092 2010.015 373.121 Q 2014.366 375.150 2017.214 376.458 Q 2020.062 377.767 2027.576 381.282 Q 2035.091 384.797 2040.956 387.504 Q 2046.820 390.211 2050.096 391.805 Q 2053.373 393.399 2057.698 395.615 Q 2062.022 397.832 2064.683 399.007 Q 2067.344 400.183 2068.865 400.750 Q 2070.385 401.317 2072.872 402.182 Q 2075.358 403.048 2076.734 403.521 Q 2078.111 403.994 2081.995 405.665 Q 2085.880 407.337 2089.768 408.908 Q 2093.655 410.480 2097.583 411.800 Q 2101.511 413.121 2104.608 414.022 Q 2107.704 414.923 2110.555 415.923 Q 2113.406 416.924 2115.368 417.699 Q 2117.329 418.474 2121.912 419.655 Q 2126.495 420.837 2131.059 421.956 Q 2135.623 423.076 2137.912 423.683 Q 2140.201 424.290 2141.170 424.443 Q 2142.139 424.597 2146.409 425.688 Q 2150.679 426.779 2157.713 428.209 Q 2164.747 429.640 2168.355 430.506 Q 2171.964 431.372 2173.948 431.804 Q 2175.932 432.236 2179.118 432.598 Q 2182.304 432.960 2191.480 433.813 Q 2200.656 434.666 2205.609 435.538 Q 2210.562 436.409 2215.561 436.377 Q 2220.561 436.344 2223.908 435.928 Q 2227.255 435.511 2229.207 435.316 "></path>
    <path id="STROKE_2513bd1b-4dc3-4226-9de2-91814febfbae" opacity="0.500" fill="none" stroke="#009ef1" stroke-width="25.304" stroke-opacity="1.000" stroke-linecap="round" stroke-linejoin="round" d="M 1775.368 291.839 Q 1776.873 290.165 1821.032 291.590 Q 1822.243 291.390 1810.680 293.543 Q 1799.117 295.696 1784.609 298.129 Q 1784.548 299.710 1784.695 299.253 Q 1786.421 299.626 1785.931 299.507 Q 1787.983 299.579 1787.578 299.565 Q 1789.755 299.913 1802.416 299.892 Q 1815.077 299.871 1833.770 302.981 Q 1833.768 303.023 1833.767 303.065 Q 1833.107 302.526 1819.031 303.776 Q 1804.954 305.026 1786.923 308.973 Q 1786.922 309.025 1786.446 310.612 Q 1787.532 311.034 1799.511 311.332 Q 1811.491 311.630 1820.173 312.086 Q 1828.856 312.541 1836.336 313.404 Q 1836.423 314.615 1836.522 314.469 Q 1837.096 315.197 1837.170 315.121 Q 1837.842 315.652 1838.831 316.373 Q 1839.820 317.093 1840.100 317.204 Q 1840.379 317.315 1840.334 317.329 Q 1840.289 317.342 1840.341 317.430 Q 1840.392 317.518 1840.703 317.601 Q 1841.013 317.685 1842.059 318.778 Q 1843.106 319.872 1844.789 322.429 Q 1846.472 324.987 1847.222 326.193 Q 1847.972 327.400 1848.423 328.475 Q 1848.873 329.551 1849.117 330.265 Q 1849.360 330.979 1849.617 331.776 Q 1849.873 332.573 1849.908 332.655 Q 1849.943 332.736 1850.033 333.033 Q 1850.124 333.330 1850.258 333.735 Q 1850.391 334.141 1850.398 334.083 Q 1850.404 334.025 1850.661 334.576 Q 1850.918 335.126 1851.080 335.465 Q 1851.243 335.805 1852.494 337.978 Q 1853.746 340.152 1854.718 341.673 Q 1855.689 343.195 1856.159 343.901 Q 1856.629 344.607 1856.918 345.006 Q 1857.208 345.406 1857.624 346.025 Q 1858.040 346.645 1857.958 346.469 Q 1857.877 346.294 1857.776 346.484 Q 1857.675 346.675 1860.201 349.423 Q 1862.728 352.172 1864.641 353.965 Q 1866.555 355.759 1867.284 357.496 Q 1868.014 359.233 1871.149 362.314 Q 1874.283 365.396 1876.049 367.324 Q 1877.814 369.252 1878.393 370.234 Q 1878.971 371.217 1879.516 371.762 Q 1880.061 372.307 1880.123 372.386 Q 1880.185 372.466 1880.023 372.253 Q 1879.861 372.041 1883.481 375.636 Q 1887.101 379.231 1889.548 381.633 Q 1891.994 384.035 1893.025 385.180 Q 1894.055 386.326 1894.574 386.925 Q 1895.094 387.524 1895.181 387.600 Q 1895.269 387.677 1895.618 388.074 Q 1895.968 388.471 1896.232 388.737 Q 1896.497 389.003 1896.365 388.933 Q 1896.234 388.864 1897.019 389.364 Q 1897.805 389.865 1900.926 392.689 Q 1904.046 395.514 1905.588 397.271 Q 1907.129 399.028 1907.825 399.716 Q 1908.521 400.405 1908.885 400.706 Q 1909.249 401.007 1909.163 400.958 Q 1909.077 400.909 1910.255 401.900 Q 1911.432 402.891 1912.442 403.684 Q 1913.451 404.476 1914.788 405.600 Q 1916.125 406.723 1916.759 407.207 Q 1917.393 407.691 1917.770 407.943 Q 1918.147 408.194 1918.368 408.365 Q 1918.589 408.535 1919.820 409.299 Q 1921.050 410.062 1921.971 410.593 Q 1922.892 411.123 1923.368 411.389 Q 1923.843 411.656 1923.830 411.647 Q 1923.818 411.637 1924.066 411.817 Q 1924.314 411.997 1925.220 412.590 Q 1926.126 413.182 1927.090 413.766 Q 1928.054 414.349 1928.791 414.787 Q 1929.528 415.226 1929.835 415.449 Q 1930.142 415.673 1930.991 415.875 Q 1931.840 416.078 1936.044 419.533 Q 1940.247 422.989 1943.865 425.830 Q 1947.483 428.671 1949.368 430.133 Q 1951.253 431.595 1952.018 432.268 Q 1952.783 432.942 1953.487 433.511 Q 1954.190 434.079 1957.058 435.942 Q 1959.927 437.805 1961.615 439.034 Q 1963.304 440.263 1963.820 440.714 Q 1964.335 441.164 1965.801 442.353 Q 1967.267 443.542 1970.212 445.475 Q 1973.158 447.408 1974.615 448.587 Q 1976.072 449.767 1976.573 450.207 Q 1977.073 450.648 1977.120 450.715 Q 1977.167 450.781 1977.997 451.442 Q 1978.828 452.103 1981.366 453.715 Q 1983.905 455.326 1985.876 456.632 Q 1987.847 457.938 1989.669 459.025 Q 1991.492 460.112 1992.544 460.644 Q 1993.597 461.177 1993.279 460.988 Q 1992.961 460.799 1995.959 462.486 Q 1998.956 464.172 2002.055 465.978 Q 2005.154 467.784 2010.218 469.765 Q 2015.282 471.746 2018.362 472.965 Q 2021.442 474.184 2025.168 475.282 Q 2028.895 476.380 2030.462 476.655 Q 2032.030 476.931 2038.294 478.844 Q 2044.558 480.758 2048.343 482.273 Q 2052.127 483.788 2055.637 485.255 Q 2059.147 486.722 2061.159 487.272 Q 2063.172 487.823 2065.012 488.416 Q 2066.853 489.009 2068.295 489.568 Q 2069.738 490.127 2070.305 490.396 Q 2070.873 490.664 2072.626 491.276 Q 2074.379 491.887 2075.358 492.135 Q 2076.337 492.382 2076.927 492.542 Q 2077.517 492.702 2077.950 492.843 Q 2078.383 492.983 2078.191 492.893 Q 2078.000 492.802 2079.679 493.409 Q 2081.358 494.016 2083.783 494.829 Q 2086.208 495.641 2087.426 495.935 Q 2088.644 496.229 2089.287 496.399 Q 2089.930 496.568 2091.304 496.957 Q 2092.678 497.347 2096.610 498.414 Q 2100.542 499.482 2102.670 500.016 Q 2104.798 500.550 2106.663 500.886 Q 2108.528 501.222 2118.317 503.083 Q 2128.107 504.945 2133.303 505.856 Q 2138.499 506.768 2141.251 507.308 Q 2144.003 507.848 2146.714 508.342 Q 2149.425 508.837 2151.701 508.974 Q 2153.978 509.111 2153.934 509.135 Q 2153.889 509.159 2155.764 509.297 Q 2157.639 509.436 2166.940 510.140 Q 2176.241 510.845 2181.551 511.165 Q 2186.860 511.484 2190.209 512.273 Q 2193.557 513.063 2197.802 513.503 Q 2202.047 513.943 2203.509 513.928 Q 2204.972 513.913 2208.258 514.244 Q 2211.544 514.576 2213.412 514.796 Q 2215.280 515.017 2216.474 515.269 Q 2217.668 515.520 2217.935 515.484 Q 2218.202 515.447 2226.383 516.349 Q 2234.564 517.250 2240.194 517.909 Q 2245.823 518.567 2254.364 522.795 Q 2254.736 523.375 2252.244 523.288 Q 2249.751 523.200 2246.092 523.206 Q 2242.432 523.212 2239.742 523.626 Q 2237.052 524.040 2223.051 525.110 Q 2209.050 526.180 2198.648 526.239 Q 2188.247 526.298 2183.014 526.304 Q 2177.782 526.310 2173.201 526.125 Q 2168.620 525.939 2163.960 525.999 Q 2163.127 527.753 2227.890 530.619 Q 2227.889 530.661 2227.887 530.703 Q 2225.659 531.605 2206.745 530.443 Q 2187.831 529.280 2166.705 527.825 Q 2167.519 528.363 2188.526 529.725 Q 2209.533 531.086 2221.847 531.465 Q 2234.161 531.844 2239.941 532.185 Q 2245.720 532.526 2254.323 533.420 Q 2252.468 533.659 2235.806 531.770 Q 2219.144 529.880 2209.243 528.988 Q 2199.341 528.097 2194.122 527.912 Q 2188.903 527.727 2181.626 527.377 Q 2174.348 527.026 2169.687 527.432 Q 2165.025 527.837 2158.000 528.387 Q 2150.974 528.936 2141.196 528.513 Q 2131.419 528.090 2126.457 527.840 Q 2121.495 527.590 2119.514 527.386 Q 2117.532 527.182 2116.115 527.170 Q 2114.698 527.157 2113.811 527.112 Q 2112.924 527.067 2112.668 527.085 Q 2112.412 527.104 2111.092 526.994 Q 2109.771 526.885 2103.865 526.812 Q 2097.958 526.739 2089.504 526.872 Q 2081.050 527.005 2075.743 527.019 Q 2070.436 527.034 2068.105 527.102 Q 2065.774 527.171 2061.643 527.165 Q 2057.512 527.159 2054.080 526.949 Q 2050.647 526.739 2028.952 527.676 Q 2007.257 528.612 1995.741 528.948 Q 1984.226 529.284 1979.254 529.406 Q 1974.283 529.528 1965.750 529.418 Q 1957.217 529.308 1952.007 529.263 Q 1946.798 529.217 1944.470 529.301 Q 1942.143 529.384 1941.084 529.259 Q 1940.026 529.133 1923.797 529.695 Q 1907.568 530.256 1898.944 530.811 Q 1890.321 531.365 1881.381 531.815 Q 1872.441 532.266 1867.492 532.452 Q 1862.543 532.638 1851.808 533.153 Q 1841.074 533.667 1836.192 533.981 Q 1831.311 534.295 1822.552 534.937 Q 1813.794 535.578 1807.136 535.772 Q 1800.477 535.967 1797.766 536.055 Q 1795.054 536.144 1793.372 536.180 Q 1791.690 536.217 1788.796 536.540 Q 1785.901 536.863 1782.782 536.929 Q 1779.662 536.995 1772.939 536.672 Q 1772.577 537.317 1782.819 538.335 Q 1793.061 539.353 1803.780 539.403 Q 1814.498 539.453 1820.233 539.091 Q 1825.968 538.729 1843.003 538.629 Q 1860.038 538.528 1870.749 538.597 Q 1881.460 538.666 1886.470 538.530 Q 1891.479 538.394 1896.232 538.523 Q 1900.986 538.652 1904.494 538.870 Q 1908.003 539.088 1917.698 539.339 Q 1927.394 539.590 1932.495 539.493 Q 1937.596 539.396 1945.083 539.678 Q 1952.571 539.961 1957.092 540.080 Q 1961.613 540.199 1966.835 539.967 Q 1972.058 539.735 1975.970 539.752 Q 1979.882 539.769 1987.143 539.687 Q 1994.403 539.604 2008.837 539.724 Q 2023.270 539.843 2031.888 540.079 Q 2040.506 540.315 2046.598 540.551 Q 2052.691 540.788 2057.298 540.956 Q 2061.905 541.124 2066.282 541.447 Q 2070.659 541.771 2084.125 540.673 Q 2097.591 539.575 2108.438 539.172 Q 2119.285 538.770 2124.380 538.596 Q 2129.475 538.423 2135.933 538.165 Q 2142.392 537.906 2146.465 537.675 Q 2150.538 537.443 2171.593 537.199 Q 2192.648 536.956 2213.601 536.212 Q 2214.391 535.327 2207.302 534.419 Q 2200.213 533.512 2193.979 532.513 Q 2187.746 531.514 2183.220 530.841 Q 2178.695 530.167 2167.478 528.631 Q 2156.261 527.095 2129.236 524.491 Q 2102.210 521.887 2077.584 519.971 Q 2052.958 518.055 2041.555 517.511 Q 2030.151 516.966 2024.469 516.626 Q 2018.786 516.286 2012.677 516.036 Q 2006.568 515.786 2002.885 515.677 Q 1999.203 515.568 1988.461 514.848 Q 1977.719 514.128 1967.236 512.100 L 1967.148 511.824 Q 1967.772 511.760 1971.150 510.836 Q 1974.528 509.912 1993.383 509.613 Q 2012.238 509.315 2022.137 509.458 Q 2032.036 509.601 2036.705 509.652 Q 2041.374 509.703 2050.196 510.219 Q 2059.017 510.735 2105.098 510.481 L 2105.150 510.211 Q 2105.730 508.550 2070.851 507.133 Q 2035.971 505.717 2017.529 505.135 Q 1999.086 504.553 1988.769 504.702 Q 1978.451 504.850 1973.733 504.838 Q 1969.014 504.826 1943.548 505.827 Q 1918.082 506.828 1896.147 508.122 Q 1874.213 509.415 1839.141 513.026 Q 1840.093 513.503 1852.650 511.972 Q 1865.207 510.441 1877.790 509.114 Q 1890.372 507.787 1907.814 506.335 Q 1925.255 504.883 1934.042 504.306 Q 1942.829 503.729 1947.537 503.295 Q 1952.245 502.861 1984.123 501.754 Q 2016.000 500.647 2049.235 499.105 Q 2048.446 498.652 2015.563 497.532 Q 1982.680 496.413 1965.131 495.779 Q 1947.582 495.146 1930.460 494.544 Q 1913.338 493.941 1905.296 493.657 Q 1897.255 493.373 1887.689 493.062 Q 1878.124 492.752 1854.101 491.623 Q 1853.496 491.052 1865.294 489.755 Q 1877.092 488.458 1885.220 487.934 Q 1893.348 487.409 1901.716 486.928 Q 1910.084 486.446 1914.107 486.214 Q 1918.131 485.982 1924.064 485.724 Q 1929.997 485.465 1946.785 484.990 Q 1963.572 484.514 1975.826 483.673 Q 1988.080 482.832 1993.433 482.356 Q 1998.785 481.880 2001.481 481.311 Q 2004.176 480.743 2005.793 479.239 Q 2005.040 473.738 1866.908 471.024 Q 1868.325 471.039 1877.804 470.469 Q 1887.284 469.899 1908.068 469.260 Q 1928.853 468.620 1940.215 467.938 Q 1951.576 467.255 1957.309 466.903 Q 1963.042 466.550 1966.601 464.858 Q 1966.583 462.208 1935.553 460.287 Q 1904.524 458.366 1887.029 457.649 Q 1869.534 456.933 1859.846 456.618 Q 1850.158 456.302 1842.188 454.587 Q 1842.402 452.817 1862.714 451.503 Q 1883.026 450.188 1897.820 448.733 Q 1912.613 447.279 1919.190 446.308 Q 1925.767 445.337 1929.345 444.743 Q 1932.923 444.149 1934.557 442.054 Q 1934.068 439.979 1917.068 439.152 Q 1900.067 438.325 1888.881 438.445 Q 1877.696 438.566 1872.489 438.822 Q 1867.281 439.079 1864.023 439.210 Q 1860.766 439.342 1857.073 439.542 Q 1853.381 439.743 1845.766 440.138 Q 1838.151 440.534 1830.135 441.240 Q 1831.624 441.507 1836.898 441.038 Q 1842.172 440.569 1847.942 440.097 Q 1853.711 439.625 1863.300 439.145 Q 1872.889 438.664 1880.323 438.584 Q 1887.757 438.504 1934.331 435.412 L 1934.437 435.196 Q 1934.022 434.670 1916.099 433.953 Q 1898.175 433.236 1880.623 433.859 Q 1863.070 434.481 1851.431 435.075 Q 1839.792 435.669 1831.573 437.738 Q 1831.320 438.103 1858.792 439.632 Q 1886.265 441.161 1907.229 442.777 Q 1928.193 444.393 1944.005 444.473 Q 1945.054 443.012 1923.190 440.244 Q 1901.327 437.476 1833.019 434.803 Q 1833.076 434.348 1851.549 432.543 Q 1870.022 430.739 1881.931 429.238 Q 1893.840 427.737 1899.427 426.655 Q 1905.014 425.573 1908.272 424.859 Q 1911.529 424.145 1911.811 420.783 Q 1909.242 415.601 1821.969 410.478 Q 1821.826 409.963 1839.745 409.154 Q 1857.665 408.345 1868.280 407.300 Q 1878.895 406.256 1883.412 405.676 Q 1887.929 405.095 1890.165 404.486 Q 1892.401 403.876 1893.196 402.100 Q 1893.204 400.913 1880.487 399.963 Q 1867.769 399.014 1852.048 398.521 Q 1836.327 398.029 1826.417 398.166 Q 1816.506 398.304 1806.076 398.220 Q 1805.988 398.522 1821.902 395.921 Q 1837.817 393.320 1846.659 391.554 Q 1855.501 389.787 1860.154 388.747 Q 1864.807 387.706 1867.218 384.844 Q 1868.141 382.603 1852.267 381.490 Q 1836.393 380.378 1797.760 378.425 L 1797.772 378.069 Q 1797.798 377.076 1814.703 374.088 Q 1831.609 371.100 1841.065 369.211 Q 1850.521 367.321 1854.431 366.197 Q 1858.340 365.073 1859.945 364.582 Q 1861.550 364.091 1862.518 362.032 Q 1859.208 359.122 1796.636 357.248 Q 1795.491 355.647 1806.649 353.796 Q 1817.807 351.945 1825.355 350.075 Q 1832.903 348.205 1836.412 347.319 Q 1839.920 346.432 1841.751 345.609 Q 1843.583 344.786 1844.360 342.653 Q 1842.482 339.447 1784.377 341.421 Q 1783.865 340.462 1792.972 337.903 Q 1802.078 335.344 1807.273 333.924 Q 1812.467 332.505 1815.099 331.143 Q 1817.731 329.781 1818.867 327.509 Q 1819.190 325.166 1788.708 324.126 Q 1788.472 323.626 1788.391 323.588 Q 1788.309 323.551 1789.019 322.903 Q 1789.730 322.255 1791.919 321.619 Q 1794.107 320.983 1799.915 319.020 Q 1805.722 317.057 1808.826 315.814 Q 1811.930 314.570 1814.036 313.264 Q 1816.143 311.959 1816.781 311.080 Q 1817.419 310.201 1816.982 309.239 Q 1816.545 308.277 1815.828 308.047 Q 1815.110 307.817 1813.484 307.143 Q 1811.857 306.469 1790.524 305.192 Q 1788.970 304.588 1795.705 302.972 Q 1802.440 301.355 1807.332 299.961 Q 1812.224 298.567 1815.387 295.488 Q 1814.640 294.245 1808.590 294.042 Q 1802.540 293.839 1796.337 291.827 Q 1795.941 292.291 1796.752 290.994 Q 1797.562 289.698 1800.115 287.769 Q 1799.736 288.066 1798.473 287.071 Q 1797.209 286.076 1797.179 286.100 Q 1797.150 286.124 1797.227 286.050 Q 1797.304 285.975 1796.447 285.908 Q 1795.589 285.840 1793.839 286.329 Q 1792.088 286.817 1790.324 287.898 Q 1788.560 288.979 1787.444 289.684 Q 1786.327 290.388 1786.012 291.151 Q 1785.697 291.914 1785.761 292.279 Q 1785.825 292.643 1786.004 292.949 Q 1786.183 293.256 1786.561 293.585 Q 1786.940 293.914 1786.766 293.822 Q 1786.593 293.730 1787.333 294.181 Q 1788.073 294.633 1789.941 296.081 Q 1791.810 297.529 1792.181 299.587 Q 1792.552 301.646 1792.810 303.073 Q 1793.069 304.499 1795.877 305.221 Q 1798.685 305.943 1800.668 306.584 Q 1802.651 307.225 1803.253 308.435 Q 1803.854 309.644 1803.826 310.459 Q 1803.798 311.274 1803.791 311.777 Q 1803.784 312.280 1803.837 312.626 Q 1803.890 312.973 1803.529 313.673 Q 1803.168 314.373 1801.228 318.221 Q 1799.288 322.068 1799.023 327.319 Q 1798.758 332.570 1798.408 336.049 Q 1798.058 339.528 1799.586 342.701 Q 1801.115 345.875 1805.019 348.767 Q 1808.923 351.659 1812.472 352.856 Q 1816.021 354.052 1818.265 354.639 Q 1820.509 355.227 1823.352 355.469 Q 1826.195 355.711 1827.638 355.412 Q 1829.081 355.113 1830.109 354.530 Q 1831.138 353.947 1832.358 352.608 Q 1833.579 351.270 1834.201 350.180 Q 1834.823 349.090 1835.459 345.339 Q 1836.095 341.588 1836.095 338.966 Q 1836.095 336.344 1835.490 334.088 Q 1834.886 331.831 1831.917 330.962 Q 1828.949 330.092 1826.812 330.493 Q 1824.675 330.894 1823.700 331.373 Q 1822.725 331.852 1822.204 332.353 Q 1821.683 332.854 1821.826 333.347 Q 1821.969 333.841 1822.690 334.448 Q 1823.410 335.055 1826.090 336.024 Q 1828.770 336.993 1836.291 337.201 Q 1838.201 334.169 1829.030 330.104 Q 1819.860 326.038 1814.553 324.556 Q 1809.247 323.074 1807.429 322.432 Q 1805.612 321.790 1803.010 319.436 Q 1800.409 317.082 1798.033 314.228 Q 1797.817 314.357 1799.818 313.537 Q 1799.763 315.102 1799.774 314.783 Q 1799.833 316.089 1799.889 315.897 Q 1799.917 315.997 1800.616 317.002 Q 1801.315 318.007 1801.291 317.760 Q 1802.187 317.740 1800.328 317.693 Q 1798.469 317.646 1797.178 317.985 Q 1795.887 318.325 1795.092 318.247 Q 1794.296 318.170 1794.464 318.263 Q 1794.631 318.357 1794.541 318.263 Q 1794.450 318.170 1794.300 318.113 Q 1794.149 318.055 1794.342 318.225 Q 1794.534 318.395 1793.804 317.776 Q 1793.074 317.158 1792.933 316.814 Q 1792.791 316.470 1792.471 315.996 Q 1792.151 315.522 1792.149 315.548 Q 1792.148 315.573 1792.239 315.573 Q 1792.330 315.572 1792.033 315.301 Q 1791.736 315.029 1790.288 313.660 Q 1788.839 312.291 1788.662 311.634 Q 1788.484 310.978 1788.347 310.435 Q 1788.211 309.891 1788.420 309.321 Q 1788.629 308.751 1788.558 309.103 Q 1788.486 309.456 1788.827 306.971 Q 1789.167 304.487 1789.158 303.115 Q 1789.149 301.743 1787.469 298.913 Q 1785.788 296.083 1785.475 294.360 Q 1785.162 292.636 1784.175 292.187 Q 1783.188 291.737 1782.508 291.624 Q 1781.828 291.510 1782.012 291.538 Q 1782.197 291.566 1782.169 291.559 Q 1782.141 291.552 1781.894 291.501 Q 1781.646 291.451 1781.930 291.548 Q 1782.214 291.644 1781.550 291.596 Q 1780.885 291.547 1780.483 291.277 Q 1780.082 291.006 1779.827 290.928 Q 1779.572 290.849 1779.355 290.824 Q 1779.138 290.798 1778.154 290.605 Q 1777.170 290.412 1777.322 290.417 Q 1777.474 290.421 1776.857 290.071 Q 1776.240 289.721 1776.331 289.748 Q 1776.422 289.774 1776.393 289.741 Q 1776.365 289.707 1775.852 289.330 Q 1775.339 288.953 1775.283 289.034 Q 1775.228 289.114 1775.502 289.054 Q 1775.775 288.993 1774.313 289.266 Q 1773.980 290.268 1773.914 290.479 Q 1773.848 290.690 1773.904 290.540 Q 1773.822 291.678 1773.930 290.869 Q 1774.039 290.060 1773.255 292.766 Q 1772.470 295.473 1772.284 297.059 Q 1772.099 298.644 1772.077 299.426 Q 1772.054 300.208 1772.030 300.854 Q 1772.006 301.500 1772.005 301.548 Q 1772.004 301.596 1772.001 301.652 Q 1771.999 301.708 1771.975 302.404 Q 1771.950 303.101 1771.965 303.044 Q 1771.980 302.987 1771.970 303.071 Q 1771.960 303.154 1771.909 303.682 Q 1771.859 304.210 1771.970 304.632 Q 1772.082 305.055 1772.186 305.800 Q 1772.290 306.545 1772.336 307.111 Q 1772.381 307.677 1772.377 308.025 Q 1772.374 308.373 1772.381 308.608 Q 1772.388 308.843 1772.451 309.535 Q 1772.514 310.227 1772.462 309.912 Q 1772.410 309.597 1772.517 310.185 Q 1772.624 310.773 1772.761 312.693 Q 1772.898 314.612 1772.831 316.142 Q 1772.764 317.672 1772.738 318.866 Q 1772.712 320.061 1772.730 320.326 Q 1772.748 320.591 1772.765 320.654 Q 1772.781 320.717 1772.771 320.652 Q 1772.761 320.588 1772.879 322.282 Q 1772.997 323.976 1773.156 326.369 Q 1773.314 328.761 1773.382 330.336 Q 1773.450 331.911 1773.594 333.096 Q 1773.738 334.281 1773.726 334.022 Q 1773.714 333.762 1773.861 334.453 Q 1774.007 335.144 1774.089 335.643 Q 1774.170 336.141 1774.267 336.901 Q 1774.363 337.660 1774.438 338.507 Q 1774.513 339.354 1774.464 340.486 Q 1774.414 341.617 1774.369 342.960 Q 1774.323 344.303 1774.298 345.119 Q 1774.272 345.936 1774.247 346.546 Q 1774.221 347.157 1774.217 347.002 Q 1774.212 346.848 1774.207 346.886 Q 1774.201 346.924 1774.270 347.797 Q 1774.339 348.670 1774.431 349.740 Q 1774.522 350.810 1774.556 351.671 Q 1774.589 352.532 1774.543 353.335 Q 1774.497 354.138 1774.469 355.069 Q 1774.441 356.000 1774.378 357.509 Q 1774.315 359.019 1774.296 359.782 Q 1774.277 360.546 1774.298 361.331 Q 1774.319 362.117 1774.328 362.285 Q 1774.338 362.453 1774.287 362.052 Q 1774.237 361.651 1774.118 365.643 Q 1773.999 369.634 1774.027 371.607 Q 1774.055 373.581 1774.150 374.541 Q 1774.245 375.502 1774.189 376.164 Q 1774.134 376.826 1774.150 376.739 Q 1774.166 376.652 1774.163 377.092 Q 1774.160 377.531 1774.228 378.354 Q 1774.297 379.177 1774.414 380.009 Q 1774.531 380.841 1774.517 380.786 Q 1774.504 380.731 1774.524 380.723 Q 1774.545 380.716 1774.528 381.408 Q 1774.510 382.100 1774.482 383.495 Q 1774.453 384.891 1774.495 385.534 Q 1774.536 386.177 1774.662 386.779 Q 1774.788 387.381 1774.773 387.255 Q 1774.759 387.128 1774.771 387.307 Q 1774.784 387.485 1774.782 387.365 Q 1774.781 387.244 1774.829 387.691 Q 1774.878 388.138 1774.912 390.056 Q 1774.947 391.974 1774.944 392.972 Q 1774.941 393.970 1774.929 394.906 Q 1774.916 395.842 1774.913 395.769 Q 1774.911 395.696 1774.893 396.020 Q 1774.875 396.343 1774.910 395.846 Q 1774.946 395.349 1774.866 398.627 Q 1774.786 401.905 1774.706 403.906 Q 1774.626 405.907 1774.597 406.809 Q 1774.568 407.710 1774.544 408.362 Q 1774.520 409.014 1774.525 408.897 Q 1774.529 408.780 1774.536 408.857 Q 1774.542 408.934 1774.438 410.733 Q 1774.334 412.532 1774.252 415.002 Q 1774.170 417.472 1774.145 418.675 Q 1774.119 419.877 1774.167 420.504 Q 1774.215 421.132 1774.307 421.773 Q 1774.398 422.414 1774.403 422.433 Q 1774.409 422.453 1774.438 422.713 Q 1774.468 422.972 1774.482 422.734 Q 1774.497 422.496 1774.557 424.038 Q 1774.617 425.581 1774.734 426.859 Q 1774.852 428.138 1774.865 428.666 Q 1774.877 429.194 1774.899 429.781 Q 1774.920 430.368 1774.918 430.265 Q 1774.917 430.162 1774.908 430.433 Q 1774.900 430.704 1774.915 430.277 Q 1774.929 429.850 1774.799 433.531 Q 1774.669 437.212 1774.544 440.731 Q 1774.420 444.250 1774.367 445.731 Q 1774.315 447.211 1774.289 447.956 Q 1774.262 448.700 1774.250 449.040 Q 1774.238 449.380 1774.254 449.411 Q 1774.271 449.442 1774.269 449.349 Q 1774.267 449.257 1774.141 451.240 Q 1774.016 453.224 1774.060 455.681 Q 1774.104 458.137 1774.235 459.105 Q 1774.366 460.073 1774.370 460.359 Q 1774.375 460.646 1774.438 461.751 Q 1774.501 462.857 1774.471 462.813 Q 1774.441 462.769 1774.474 462.857 Q 1774.508 462.945 1774.544 464.367 Q 1774.580 465.788 1774.497 467.624 Q 1774.413 469.460 1774.401 469.982 Q 1774.388 470.503 1774.333 472.010 Q 1774.278 473.516 1774.247 474.412 Q 1774.216 475.307 1774.201 475.714 Q 1774.187 476.120 1774.176 476.278 Q 1774.165 476.435 1774.203 476.400 Q 1774.241 476.364 1773.907 480.783 Q 1773.574 485.202 1773.428 488.285 Q 1773.282 491.368 1773.231 492.819 Q 1773.180 494.270 1773.167 494.663 Q 1773.153 495.055 1773.137 495.521 Q 1773.120 495.987 1773.135 496.124 Q 1773.149 496.261 1773.134 496.256 Q 1773.119 496.250 1772.909 501.344 Q 1772.700 506.438 1772.846 509.732 Q 1772.992 513.025 1773.138 514.274 Q 1773.284 515.523 1773.431 515.994 Q 1773.579 516.465 1773.685 517.044 Q 1773.791 517.623 1773.729 517.213 Q 1773.668 516.802 1773.823 518.196 Q 1773.978 519.590 1773.852 520.292 Q 1773.726 520.994 1773.969 522.108 Q 1774.212 523.222 1774.528 523.761 Q 1774.844 524.301 1774.885 524.334 Q 1774.925 524.367 1775.336 524.480 Q 1775.747 524.593 1776.296 524.677 Q 1776.845 524.760 1777.316 524.715 Q 1777.788 524.670 1778.024 524.510 Q 1778.260 524.349 1778.560 524.352 Q 1778.859 524.356 1784.411 520.677 Q 1789.963 516.998 1793.547 514.436 Q 1797.131 511.873 1801.711 508.833 Q 1806.291 505.792 1809.105 503.846 Q 1811.919 501.900 1818.335 498.546 Q 1824.750 495.192 1831.799 493.380 Q 1833.373 493.016 1827.575 498.598 Q 1821.778 504.181 1811.434 512.120 Q 1801.091 520.059 1787.296 529.939 L 1787.333 530.077 Q 1788.256 530.935 1796.215 526.457 Q 1804.173 521.978 1814.255 515.072 Q 1824.337 508.165 1837.954 498.328 Q 1851.571 488.491 1864.443 480.640 Q 1863.119 481.223 1859.440 484.120 Q 1855.761 487.017 1851.998 489.620 Q 1848.234 492.223 1840.340 497.891 Q 1832.446 503.559 1827.312 507.179 Q 1822.178 510.800 1800.528 527.337 Q 1800.516 527.415 1807.031 519.172 Q 1813.546 510.928 1816.709 506.213 Q 1819.873 501.498 1823.403 496.075 Q 1826.933 490.653 1829.162 486.690 Q 1831.391 482.727 1831.417 477.690 Q 1826.209 475.599 1790.814 507.942 Q 1791.038 508.175 1793.245 506.321 Q 1795.452 504.467 1800.821 499.503 Q 1806.191 494.539 1809.141 491.658 Q 1812.091 488.776 1816.836 483.570 Q 1821.580 478.363 1827.072 472.018 Q 1832.564 465.672 1835.591 461.419 Q 1838.619 457.166 1840.011 454.645 Q 1841.404 452.124 1841.712 449.855 Q 1840.098 448.496 1834.433 452.663 Q 1828.767 456.830 1822.819 461.460 Q 1816.870 466.091 1807.699 474.128 Q 1798.527 482.165 1793.109 487.098 Q 1787.691 492.030 1784.400 496.408 Q 1785.179 496.805 1791.454 491.638 Q 1797.729 486.471 1808.470 476.017 Q 1819.211 465.563 1826.895 456.729 Q 1834.579 447.895 1838.727 443.310 Q 1842.874 438.725 1845.278 435.123 Q 1847.682 431.521 1848.580 428.018 Q 1846.516 426.524 1835.428 433.386 Q 1824.341 440.248 1818.000 445.048 Q 1811.659 449.847 1804.698 455.488 Q 1797.736 461.129 1793.460 464.577 Q 1789.184 468.025 1782.798 473.748 Q 1782.661 473.309 1787.778 468.367 Q 1792.894 463.425 1799.857 453.406 Q 1806.819 443.387 1810.455 437.156 Q 1814.091 430.924 1816.513 425.768 Q 1818.936 420.613 1818.654 415.296 Q 1817.018 413.375 1809.269 419.073 Q 1801.519 424.772 1795.215 431.171 Q 1788.910 437.571 1785.703 441.175 Q 1782.497 444.779 1780.795 447.263 Q 1779.094 449.746 1779.227 452.978 Q 1782.135 452.987 1787.378 447.961 Q 1792.621 442.936 1795.725 440.000 Q 1798.828 437.064 1801.928 432.285 Q 1805.027 427.506 1807.545 423.254 Q 1810.062 419.002 1813.174 412.709 Q 1816.286 406.416 1817.744 401.722 Q 1819.202 397.028 1820.010 392.984 Q 1820.818 388.941 1819.578 387.948 Q 1818.337 386.955 1815.014 387.384 Q 1811.692 387.813 1805.634 392.104 Q 1799.576 396.394 1794.769 400.607 Q 1789.961 404.819 1786.112 408.623 Q 1782.263 412.427 1780.727 418.093 Q 1780.997 419.379 1785.715 414.897 Q 1790.433 410.416 1793.923 404.407 Q 1797.413 398.399 1798.869 393.621 Q 1800.325 388.844 1801.095 386.366 Q 1801.866 383.887 1802.761 379.019 Q 1803.656 374.150 1804.054 370.025 Q 1804.452 365.899 1804.398 363.135 Q 1804.344 360.371 1803.358 358.821 Q 1802.372 357.271 1801.349 356.256 Q 1800.325 355.241 1798.163 354.943 Q 1796.001 354.645 1794.672 354.751 Q 1793.343 354.857 1792.633 355.283 Q 1791.923 355.710 1791.119 356.332 Q 1790.315 356.954 1790.200 357.285 Q 1790.085 357.616 1789.913 358.140 Q 1789.740 358.664 1789.282 359.271 Q 1788.824 359.877 1788.218 369.712 Q 1787.611 379.546 1787.153 385.104 Q 1786.695 390.662 1786.153 401.786 Q 1785.610 412.910 1785.349 418.887 Q 1785.089 424.864 1785.567 428.922 Q 1786.045 432.979 1786.666 436.446 Q 1787.286 439.914 1789.163 444.248 Q 1791.039 448.583 1793.108 452.351 Q 1795.176 456.118 1802.535 459.417 Q 1809.893 462.717 1813.985 464.230 Q 1818.077 465.743 1820.717 466.168 Q 1823.356 466.593 1827.644 467.253 Q 1831.932 467.912 1857.513 440.260 Q 1857.127 439.553 1849.069 446.507 Q 1841.010 453.462 1836.067 458.834 Q 1831.124 464.207 1828.877 467.487 Q 1826.629 470.767 1825.766 472.353 Q 1824.902 473.939 1824.096 478.404 Q 1823.291 482.869 1823.243 485.953 Q 1823.196 489.036 1823.066 490.984 Q 1822.937 492.933 1824.809 496.007 Q 1826.681 499.081 1831.070 498.357 Q 1835.460 497.634 1842.623 493.052 Q 1849.786 488.471 1861.399 481.329 Q 1861.455 481.086 1856.261 485.152 Q 1851.067 489.218 1846.040 493.195 Q 1841.012 497.171 1835.693 501.796 Q 1830.374 506.422 1826.003 510.834 Q 1821.631 515.247 1819.297 520.351 Q 1819.378 521.273 1827.696 516.461 Q 1836.013 511.649 1841.863 508.542 Q 1847.713 505.436 1850.834 500.991 Q 1851.103 498.531 1825.976 508.201 Q 1826.720 507.407 1833.407 502.360 Q 1840.094 497.313 1844.576 493.478 Q 1849.058 489.643 1854.762 483.214 Q 1860.467 476.785 1863.678 472.988 Q 1866.889 469.191 1868.305 466.721 Q 1869.722 464.250 1870.216 462.391 Q 1870.711 460.532 1869.707 459.002 Q 1868.704 457.471 1865.853 457.099 Q 1863.002 456.727 1859.571 458.210 Q 1856.139 459.693 1848.355 464.964 Q 1840.571 470.234 1837.041 473.430 Q 1833.510 476.626 1831.155 478.663 Q 1828.801 480.700 1827.027 483.547 Q 1825.254 486.395 1825.249 490.026 Q 1827.267 492.033 1835.646 485.005 Q 1844.025 477.976 1849.303 472.827 Q 1854.581 467.679 1858.179 463.895 Q 1861.777 460.112 1863.284 452.966 Q 1862.845 450.897 1855.430 455.293 Q 1848.015 459.690 1843.474 462.975 Q 1838.932 466.261 1836.536 467.876 Q 1834.140 469.491 1831.815 470.850 Q 1829.489 472.209 1820.509 479.400 Q 1821.587 480.733 1828.408 476.654 Q 1835.230 472.576 1839.795 468.853 Q 1844.360 465.130 1847.189 461.249 Q 1850.018 457.368 1850.836 452.180 Q 1851.654 446.991 1851.956 442.788 Q 1852.258 438.584 1850.586 431.470 Q 1848.914 424.355 1845.971 416.513 Q 1843.028 408.671 1840.406 402.793 Q 1837.783 396.914 1835.599 392.140 Q 1833.414 387.366 1831.134 383.198 Q 1828.854 379.030 1826.801 371.731 Q 1824.748 364.433 1823.976 359.249 Q 1823.203 354.066 1821.796 349.502 Q 1820.390 344.938 1811.818 336.303 Q 1810.902 338.584 1811.056 337.665 Q 1811.210 336.746 1808.484 352.281 Q 1808.276 352.466 1808.620 348.543 Q 1808.965 344.619 1808.926 342.307 Q 1808.887 339.995 1808.737 338.998 Q 1808.586 338.001 1807.151 336.885 Q 1805.716 335.768 1804.291 337.199 Q 1802.866 338.629 1802.287 339.390 Q 1801.707 340.151 1801.230 343.162 Q 1800.753 346.172 1801.004 348.203 Q 1801.254 350.233 1801.437 351.046 Q 1801.620 351.860 1802.387 353.342 Q 1803.155 354.824 1804.075 356.028 Q 1804.996 357.233 1806.570 356.655 Q 1808.144 356.077 1809.092 354.993 Q 1810.041 353.909 1810.604 353.437 Q 1811.166 352.965 1813.083 350.306 Q 1812.446 351.527 1810.305 356.113 Q 1808.164 360.699 1807.135 365.667 Q 1806.105 370.635 1808.886 378.601 Q 1811.667 386.567 1813.648 390.847 Q 1815.629 395.126 1817.422 400.826 Q 1819.214 406.526 1820.272 412.389 Q 1821.329 418.251 1821.333 422.631 Q 1821.336 427.010 1826.908 431.498 Q 1832.480 435.985 1835.714 438.314 Q 1838.948 440.643 1840.985 442.402 Q 1843.021 444.162 1846.836 447.453 Q 1850.650 450.745 1853.325 453.296 Q 1856.001 455.848 1860.094 458.848 Q 1864.187 461.849 1867.927 463.619 Q 1871.666 465.390 1874.844 466.187 Q 1878.022 466.984 1884.059 465.507 Q 1890.097 464.031 1897.866 464.469 Q 1898.904 464.985 1897.016 467.464 Q 1895.129 469.943 1889.625 473.573 Q 1884.121 477.203 1880.884 479.441 Q 1877.647 481.679 1875.876 483.853 Q 1875.393 484.948 1881.618 483.008 Q 1887.844 481.069 1892.216 479.640 Q 1896.588 478.211 1900.919 478.546 Q 1901.009 479.181 1900.832 480.797 Q 1900.656 482.414 1900.510 482.985 "></path>
    <path id="STROKE_d5b065cc-722b-413a-8c87-e8d962020f68" opacity="1.000" fill="none" stroke="#000000" stroke-width="2.788" stroke-opacity="1.000" stroke-linecap="round" stroke-linejoin="round" d="M 1832.433 276.724 Q 1832.860 277.652 1833.538 279.812 Q 1834.216 281.971 1837.949 289.431 Q 1841.681 296.891 1848.196 307.255 Q 1854.711 317.620 1859.184 323.939 Q 1863.658 330.259 1866.433 333.935 Q 1869.209 337.612 1874.837 344.484 Q 1880.465 351.355 1885.630 357.084 Q 1890.795 362.813 1893.844 366.058 Q 1896.894 369.302 1902.657 375.316 Q 1908.421 381.330 1911.912 384.739 Q 1915.403 388.148 1922.689 394.504 Q 1929.974 400.861 1936.266 405.817 Q 1942.557 410.773 1947.609 414.505 Q 1952.661 418.238 1956.334 420.840 Q 1960.007 423.443 1961.922 424.781 Q 1963.837 426.119 1967.256 428.415 Q 1970.675 430.710 1972.332 431.758 Q 1973.989 432.805 1977.509 435.023 Q 1981.029 437.242 1994.285 444.327 Q 2007.540 451.411 2014.799 454.716 Q 2022.058 458.021 2025.649 459.520 Q 2029.239 461.019 2032.312 462.228 Q 2035.384 463.437 2042.717 466.067 Q 2050.051 468.698 2061.610 472.243 Q 2073.169 475.789 2080.025 477.563 Q 2086.880 479.337 2091.103 480.357 Q 2095.326 481.376 2110.764 484.443 Q 2126.201 487.510 2141.714 489.731 Q 2157.226 491.952 2166.085 493.005 Q 2174.943 494.058 2179.022 494.502 Q 2183.100 494.946 2185.956 495.249 Q 2188.812 495.551 2226.413 499.250 L 2228.921 499.621 "></path>
  </g>
</svg>