<?xml version="1.0" encoding="UTF-8" standalone="yes"?>
<svg xmlns="http://www.w3.org/2000/svg" xmlns:xlink="http://www.w3.org/1999/xlink" width="572.602pt" height="341.507pt" version="1.1" viewBox="1703.297 -105.487 572.602 341.507">
  <!--
	Exported with Concepts: Smarter Sketching
	Version: 1055 on iOS 15.2
	https://concepts.app/
	-->
  <title>Sketchnoting Objects</title>
  <desc>Drawing exported from Concepts: Smarter Sketching</desc>
  <defs></defs>
  <g id="Layer_Copy_3" opacity="1.000">
    <path id="STROKE_fb070da6-273b-409a-9973-e9a8574505cc" opacity="1.000" fill="none" stroke="#000000" stroke-width="3.933" stroke-opacity="1.000" stroke-linecap="round" stroke-linejoin="round" d="M 1734.001 -91.425 Q 1734.221 -90.683 1735.481 -80.190 Q 1736.742 -69.696 1737.735 -53.536 Q 1738.728 -37.376 1739.632 -24.191 Q 1740.536 -11.007 1741.065 -2.636 Q 1741.593 5.735 1741.830 10.068 Q 1742.067 14.401 1742.394 28.427 Q 1742.721 42.453 1742.346 69.036 Q 1741.971 95.620 1741.869 101.324 Q 1741.766 107.027 1741.609 113.660 Q 1741.452 120.292 1741.337 123.902 Q 1741.222 127.511 1740.954 142.623 Q 1740.687 157.734 1740.855 169.464 Q 1741.023 181.193 1741.213 186.337 Q 1741.403 191.481 1741.502 192.199 Q 1741.602 192.918 1741.775 194.686 "></path>
    <path id="STROKE_27079582-2ebb-4d11-8493-6fbc9587604e" opacity="1.000" fill="none" stroke="#000000" stroke-width="3.851" stroke-opacity="1.000" stroke-linecap="round" stroke-linejoin="round" d="M 1747.495 199.859 Q 1748.042 199.728 1749.149 199.570 Q 1750.256 199.412 1756.451 198.979 Q 1762.645 198.546 1774.365 198.416 Q 1786.085 198.286 1802.796 198.897 Q 1819.507 199.508 1823.456 199.664 Q 1827.406 199.820 1837.330 200.030 Q 1847.254 200.239 1852.499 200.245 Q 1857.743 200.251 1866.460 200.254 Q 1875.177 200.256 1906.569 200.418 Q 1937.961 200.580 1954.077 200.534 Q 1970.193 200.488 1981.530 200.150 Q 1992.867 199.812 2004.316 199.333 Q 2015.764 198.853 2028.969 198.267 Q 2042.173 197.680 2053.431 197.220 Q 2064.688 196.761 2072.893 196.444 Q 2081.097 196.127 2093.215 195.683 Q 2105.333 195.240 2126.265 194.982 Q 2147.197 194.724 2158.738 194.827 Q 2170.279 194.930 2176.076 195.051 Q 2181.873 195.172 2213.104 196.052 Q 2244.336 196.933 2249.069 196.837 Q 2253.803 196.741 2254.660 196.718 Q 2255.517 196.696 2258.580 196.549 Q 2261.643 196.402 2264.948 196.205 "></path>
    <path id="STROKE_d1221088-3bec-460d-a707-f9a9275a5baf" opacity="1.000" fill="none" stroke="#000000" stroke-width="2.788" stroke-opacity="1.000" stroke-linecap="round" stroke-linejoin="round" d="M 1814.988 -76.455 Q 1815.415 -75.527 1816.093 -73.368 Q 1816.771 -71.208 1820.503 -63.749 Q 1824.236 -56.289 1830.751 -45.924 Q 1837.266 -35.560 1841.739 -29.240 Q 1846.213 -22.921 1848.988 -19.244 Q 1851.764 -15.568 1857.392 -8.696 Q 1863.019 -1.825 1868.185 3.905 Q 1873.350 9.634 1876.399 12.878 Q 1879.448 16.122 1885.212 22.137 Q 1890.976 28.151 1894.467 31.559 Q 1897.958 34.968 1905.244 41.325 Q 1912.529 47.681 1918.820 52.637 Q 1925.111 57.593 1930.164 61.325 Q 1935.216 65.058 1938.889 67.660 Q 1942.562 70.263 1944.476 71.601 Q 1946.391 72.939 1949.810 75.235 Q 1953.229 77.531 1954.886 78.578 Q 1956.544 79.625 1960.064 81.844 Q 1963.584 84.062 1976.839 91.147 Q 1990.094 98.232 1997.354 101.536 Q 2004.613 104.841 2008.203 106.340 Q 2011.794 107.839 2014.866 109.048 Q 2017.939 110.257 2025.272 112.888 Q 2032.605 115.518 2044.165 119.064 Q 2055.724 122.609 2062.579 124.383 Q 2069.435 126.157 2073.658 127.177 Q 2077.881 128.197 2093.318 131.263 Q 2108.756 134.330 2124.268 136.551 Q 2139.781 138.772 2148.639 139.825 Q 2157.498 140.878 2161.576 141.323 Q 2165.655 141.767 2168.511 142.069 Q 2171.366 142.371 2208.968 146.070 L 2211.475 146.441 "></path>
    <path id="STROKE_67d08adb-2f24-4644-838d-309a2779b0a3" opacity="0.500" fill="none" stroke="#009ef1" stroke-width="25.304" stroke-opacity="1.000" stroke-linecap="round" stroke-linejoin="round" d="M 1757.923 -61.340 Q 1759.427 -63.014 1803.587 -61.590 Q 1804.797 -61.789 1793.235 -59.637 Q 1781.672 -57.484 1767.164 -55.051 Q 1767.103 -53.470 1767.250 -53.926 Q 1768.975 -53.554 1768.485 -53.673 Q 1770.538 -53.600 1770.133 -53.615 Q 1772.310 -53.266 1784.971 -53.287 Q 1797.632 -53.308 1816.324 -50.199 Q 1816.323 -50.157 1816.321 -50.115 Q 1815.662 -50.654 1801.585 -49.404 Q 1787.509 -48.154 1769.478 -44.207 Q 1769.476 -44.154 1769.001 -42.568 Q 1770.087 -42.145 1782.066 -41.848 Q 1794.046 -41.550 1802.728 -41.094 Q 1811.411 -40.638 1818.891 -39.775 Q 1818.977 -38.565 1819.077 -38.710 Q 1819.651 -37.983 1819.725 -38.059 Q 1820.396 -37.528 1821.385 -36.807 Q 1822.375 -36.086 1822.654 -35.975 Q 1822.934 -35.864 1822.889 -35.851 Q 1822.844 -35.838 1822.895 -35.750 Q 1822.947 -35.662 1823.257 -35.578 Q 1823.568 -35.495 1824.614 -34.401 Q 1825.660 -33.308 1827.344 -30.751 Q 1829.027 -28.193 1829.777 -26.987 Q 1830.527 -25.780 1830.977 -24.704 Q 1831.428 -23.629 1831.671 -22.915 Q 1831.915 -22.200 1832.172 -21.404 Q 1832.428 -20.607 1832.463 -20.525 Q 1832.498 -20.444 1832.588 -20.147 Q 1832.679 -19.850 1832.812 -19.444 Q 1832.946 -19.038 1832.952 -19.096 Q 1832.959 -19.154 1833.216 -18.604 Q 1833.472 -18.054 1833.635 -17.714 Q 1833.798 -17.375 1835.049 -15.201 Q 1836.300 -13.028 1837.272 -11.506 Q 1838.244 -9.985 1838.714 -9.279 Q 1839.184 -8.573 1839.473 -8.174 Q 1839.763 -7.774 1840.178 -7.154 Q 1840.594 -6.535 1840.513 -6.710 Q 1840.432 -6.886 1840.331 -6.695 Q 1840.230 -6.505 1842.756 -3.756 Q 1845.283 -1.008 1847.196 0.786 Q 1849.109 2.579 1849.839 4.316 Q 1850.569 6.053 1853.703 9.135 Q 1856.838 12.216 1858.603 14.144 Q 1860.369 16.072 1860.947 17.055 Q 1861.526 18.037 1862.071 18.582 Q 1862.616 19.127 1862.677 19.206 Q 1862.739 19.286 1862.577 19.074 Q 1862.415 18.862 1866.036 22.457 Q 1869.656 26.051 1872.102 28.453 Q 1874.549 30.855 1875.579 32.001 Q 1876.610 33.146 1877.129 33.745 Q 1877.648 34.344 1877.736 34.421 Q 1877.824 34.497 1878.173 34.895 Q 1878.522 35.292 1878.787 35.558 Q 1879.052 35.823 1878.920 35.754 Q 1878.788 35.684 1879.574 36.184 Q 1880.360 36.685 1883.480 39.510 Q 1886.601 42.335 1888.142 44.091 Q 1889.683 45.848 1890.380 46.537 Q 1891.076 47.225 1891.440 47.526 Q 1891.804 47.827 1891.718 47.778 Q 1891.632 47.730 1892.809 48.721 Q 1893.987 49.712 1894.996 50.504 Q 1896.006 51.296 1897.343 52.420 Q 1898.680 53.544 1899.314 54.028 Q 1899.948 54.512 1900.325 54.763 Q 1900.701 55.014 1900.923 55.185 Q 1901.144 55.356 1902.374 56.119 Q 1903.605 56.883 1904.526 57.413 Q 1905.447 57.943 1905.922 58.210 Q 1906.398 58.476 1906.385 58.467 Q 1906.372 58.458 1906.620 58.638 Q 1906.868 58.818 1907.774 59.410 Q 1908.681 60.002 1909.645 60.586 Q 1910.609 61.169 1911.346 61.608 Q 1912.083 62.046 1912.390 62.269 Q 1912.697 62.493 1913.546 62.696 Q 1914.395 62.898 1918.598 66.354 Q 1922.802 69.809 1926.420 72.650 Q 1930.038 75.491 1931.923 76.953 Q 1933.808 78.415 1934.573 79.089 Q 1935.338 79.762 1936.041 80.331 Q 1936.745 80.900 1939.613 82.762 Q 1942.481 84.625 1944.170 85.854 Q 1945.859 87.084 1946.374 87.534 Q 1946.890 87.984 1948.356 89.173 Q 1949.822 90.362 1952.767 92.295 Q 1955.712 94.228 1957.170 95.408 Q 1958.627 96.587 1959.127 97.028 Q 1959.627 97.469 1959.674 97.535 Q 1959.721 97.602 1960.552 98.262 Q 1961.383 98.923 1963.921 100.535 Q 1966.460 102.147 1968.430 103.452 Q 1970.401 104.758 1972.224 105.845 Q 1974.047 106.932 1975.099 107.464 Q 1976.151 107.997 1975.834 107.808 Q 1975.516 107.619 1978.513 109.306 Q 1981.510 110.992 1984.609 112.798 Q 1987.708 114.604 1992.773 116.585 Q 1997.837 118.566 2000.917 119.785 Q 2003.996 121.005 2007.723 122.103 Q 2011.450 123.201 2013.017 123.476 Q 2014.584 123.751 2020.849 125.665 Q 2027.113 127.578 2030.897 129.093 Q 2034.682 130.608 2038.192 132.075 Q 2041.701 133.542 2043.714 134.093 Q 2045.727 134.644 2047.567 135.237 Q 2049.408 135.830 2050.850 136.389 Q 2052.292 136.948 2052.860 137.216 Q 2053.427 137.485 2055.181 138.096 Q 2056.934 138.708 2057.913 138.955 Q 2058.892 139.203 2059.482 139.363 Q 2060.072 139.523 2060.505 139.663 Q 2060.938 139.804 2060.746 139.713 Q 2060.555 139.623 2062.234 140.229 Q 2063.913 140.836 2066.338 141.649 Q 2068.763 142.462 2069.981 142.756 Q 2071.199 143.050 2071.842 143.219 Q 2072.485 143.388 2073.859 143.778 Q 2075.233 144.167 2079.165 145.235 Q 2083.096 146.302 2085.225 146.836 Q 2087.353 147.370 2089.218 147.706 Q 2091.083 148.043 2100.872 149.904 Q 2110.662 151.765 2115.858 152.677 Q 2121.054 153.589 2123.806 154.128 Q 2126.558 154.668 2129.269 155.163 Q 2131.979 155.657 2134.256 155.794 Q 2136.533 155.931 2136.488 155.955 Q 2136.444 155.979 2138.319 156.118 Q 2140.194 156.256 2149.495 156.961 Q 2158.795 157.665 2164.105 157.985 Q 2169.415 158.305 2172.763 159.094 Q 2176.112 159.883 2180.357 160.323 Q 2184.602 160.763 2186.064 160.748 Q 2187.526 160.734 2190.813 161.065 Q 2194.099 161.396 2195.967 161.616 Q 2197.835 161.837 2199.029 162.089 Q 2200.223 162.341 2200.490 162.304 Q 2200.757 162.268 2208.938 163.169 Q 2217.119 164.071 2222.749 164.729 Q 2228.378 165.387 2236.918 169.616 Q 2237.291 170.195 2234.798 170.108 Q 2232.306 170.021 2228.646 170.026 Q 2224.987 170.032 2222.297 170.446 Q 2219.607 170.861 2205.606 171.930 Q 2191.605 173.000 2181.203 173.059 Q 2170.802 173.119 2165.569 173.125 Q 2160.336 173.131 2155.756 172.945 Q 2151.175 172.760 2146.515 172.819 Q 2145.681 174.573 2210.445 177.439 Q 2210.443 177.481 2210.442 177.523 Q 2208.214 178.426 2189.300 177.263 Q 2170.386 176.100 2149.260 174.645 Q 2150.074 175.183 2171.081 176.545 Q 2192.088 177.907 2204.402 178.285 Q 2216.716 178.664 2222.496 179.005 Q 2228.275 179.346 2236.878 180.240 Q 2235.022 180.479 2218.360 178.590 Q 2201.699 176.700 2191.797 175.809 Q 2181.896 174.917 2176.677 174.732 Q 2171.458 174.547 2164.180 174.197 Q 2156.903 173.847 2152.242 174.252 Q 2147.580 174.658 2140.554 175.207 Q 2133.529 175.756 2123.751 175.333 Q 2113.973 174.910 2109.011 174.660 Q 2104.050 174.410 2102.068 174.206 Q 2100.087 174.003 2098.670 173.990 Q 2097.253 173.977 2096.366 173.932 Q 2095.479 173.887 2095.223 173.906 Q 2094.967 173.924 2093.646 173.815 Q 2092.326 173.705 2086.419 173.632 Q 2080.513 173.559 2072.059 173.692 Q 2063.604 173.825 2058.298 173.839 Q 2052.991 173.854 2050.660 173.922 Q 2048.328 173.991 2044.198 173.985 Q 2040.067 173.980 2036.634 173.769 Q 2033.202 173.559 2011.507 174.496 Q 1989.812 175.433 1978.296 175.769 Q 1966.781 176.104 1961.809 176.226 Q 1956.838 176.348 1948.305 176.238 Q 1939.771 176.129 1934.562 176.083 Q 1929.353 176.038 1927.025 176.121 Q 1924.698 176.205 1923.639 176.079 Q 1922.581 175.954 1906.352 176.515 Q 1890.123 177.077 1881.499 177.631 Q 1872.875 178.185 1863.935 178.636 Q 1854.995 179.086 1850.046 179.272 Q 1845.097 179.458 1834.363 179.973 Q 1823.628 180.488 1818.747 180.802 Q 1813.865 181.116 1805.107 181.757 Q 1796.349 182.398 1789.690 182.593 Q 1783.032 182.787 1780.320 182.876 Q 1777.609 182.964 1775.927 183.001 Q 1774.245 183.037 1771.350 183.360 Q 1768.456 183.684 1765.336 183.750 Q 1762.217 183.815 1755.493 183.492 Q 1755.132 184.137 1765.373 185.156 Q 1775.615 186.174 1786.334 186.224 Q 1797.053 186.274 1802.788 185.911 Q 1808.522 185.549 1825.557 185.449 Q 1842.592 185.349 1853.304 185.418 Q 1864.015 185.487 1869.024 185.350 Q 1874.034 185.214 1878.787 185.343 Q 1883.540 185.473 1887.049 185.690 Q 1890.557 185.908 1900.253 186.159 Q 1909.949 186.410 1915.050 186.313 Q 1920.151 186.216 1927.638 186.499 Q 1935.125 186.781 1939.646 186.900 Q 1944.168 187.019 1949.390 186.787 Q 1954.612 186.555 1958.524 186.573 Q 1962.437 186.590 1969.697 186.507 Q 1976.958 186.425 1991.391 186.544 Q 2005.825 186.663 2014.443 186.899 Q 2023.061 187.135 2029.153 187.372 Q 2035.245 187.608 2039.853 187.776 Q 2044.460 187.944 2048.837 188.268 Q 2053.214 188.591 2066.679 187.493 Q 2080.145 186.395 2090.993 185.993 Q 2101.840 185.590 2106.935 185.417 Q 2112.029 185.244 2118.488 184.985 Q 2124.946 184.726 2129.020 184.495 Q 2133.093 184.263 2154.148 184.020 Q 2175.203 183.776 2196.156 183.032 Q 2196.945 182.147 2189.857 181.240 Q 2182.768 180.332 2176.534 179.333 Q 2170.300 178.334 2165.775 177.661 Q 2161.249 176.987 2150.033 175.452 Q 2138.816 173.916 2111.791 171.311 Q 2084.765 168.707 2060.139 166.791 Q 2035.513 164.875 2024.109 164.331 Q 2012.706 163.787 2007.024 163.447 Q 2001.341 163.107 1995.232 162.857 Q 1989.123 162.606 1985.440 162.497 Q 1981.757 162.388 1971.015 161.668 Q 1960.273 160.948 1949.791 158.920 L 1949.702 158.645 Q 1950.327 158.580 1953.705 157.656 Q 1957.083 156.732 1975.938 156.434 Q 1994.792 156.135 2004.691 156.278 Q 2014.590 156.421 2019.260 156.472 Q 2023.929 156.523 2032.750 157.039 Q 2041.572 157.556 2087.653 157.302 L 2087.705 157.031 Q 2088.285 155.370 2053.405 153.954 Q 2018.526 152.537 2000.083 151.955 Q 1981.641 151.374 1971.323 151.522 Q 1961.006 151.671 1956.287 151.658 Q 1951.569 151.646 1926.103 152.647 Q 1900.636 153.648 1878.702 154.942 Q 1856.767 156.235 1821.696 159.847 Q 1822.647 160.323 1835.205 158.792 Q 1847.762 157.261 1860.344 155.934 Q 1872.927 154.607 1890.368 153.155 Q 1907.810 151.703 1916.597 151.126 Q 1925.384 150.549 1930.092 150.115 Q 1934.800 149.681 1966.677 148.574 Q 1998.555 147.467 2031.790 145.925 Q 2031.000 145.472 1998.118 144.352 Q 1965.235 143.233 1947.686 142.600 Q 1930.136 141.966 1913.014 141.364 Q 1895.892 140.762 1887.851 140.477 Q 1879.810 140.193 1870.244 139.883 Q 1860.679 139.572 1836.656 138.443 Q 1836.051 137.873 1847.849 136.575 Q 1859.647 135.278 1867.775 134.754 Q 1875.903 134.230 1884.271 133.748 Q 1892.639 133.266 1896.662 133.034 Q 1900.685 132.802 1906.619 132.544 Q 1912.552 132.286 1929.339 131.810 Q 1946.127 131.334 1958.381 130.493 Q 1970.635 129.653 1975.988 129.177 Q 1981.340 128.700 1984.035 128.132 Q 1986.731 127.563 1988.347 126.060 Q 1987.595 120.558 1849.463 117.844 Q 1850.880 117.859 1860.359 117.290 Q 1869.839 116.720 1890.623 116.080 Q 1911.408 115.441 1922.769 114.758 Q 1934.131 114.075 1939.864 113.723 Q 1945.597 113.370 1949.156 111.679 Q 1949.138 109.028 1918.108 107.107 Q 1887.078 105.186 1869.583 104.470 Q 1852.088 103.753 1842.401 103.438 Q 1832.713 103.123 1824.743 101.408 Q 1824.957 99.637 1845.269 98.323 Q 1865.581 97.009 1880.374 95.554 Q 1895.168 94.099 1901.745 93.128 Q 1908.322 92.157 1911.900 91.563 Q 1915.477 90.969 1917.112 88.874 Q 1916.623 86.799 1899.622 85.972 Q 1882.621 85.145 1871.436 85.266 Q 1860.251 85.386 1855.043 85.643 Q 1849.835 85.899 1846.578 86.031 Q 1843.321 86.162 1839.628 86.363 Q 1835.935 86.563 1828.321 86.959 Q 1820.706 87.354 1812.690 88.060 Q 1814.179 88.328 1819.453 87.858 Q 1824.727 87.389 1830.496 86.917 Q 1836.266 86.445 1845.854 85.965 Q 1855.443 85.485 1862.878 85.405 Q 1870.312 85.325 1916.886 82.233 L 1916.991 82.016 Q 1916.576 81.491 1898.653 80.774 Q 1880.730 80.057 1863.177 80.679 Q 1845.624 81.302 1833.986 81.895 Q 1822.347 82.489 1814.127 84.559 Q 1813.875 84.923 1841.347 86.452 Q 1868.819 87.982 1889.784 89.598 Q 1910.748 91.214 1926.560 91.294 Q 1927.608 89.832 1905.745 87.064 Q 1883.881 84.296 1815.573 81.623 Q 1815.631 81.169 1834.104 79.364 Q 1852.577 77.559 1864.486 76.058 Q 1876.395 74.557 1881.982 73.475 Q 1887.569 72.394 1890.826 71.680 Q 1894.084 70.966 1894.366 67.603 Q 1891.797 62.422 1804.524 57.298 Q 1804.381 56.783 1822.300 55.974 Q 1840.219 55.165 1850.834 54.121 Q 1861.449 53.076 1865.967 52.496 Q 1870.484 51.916 1872.720 51.306 Q 1874.956 50.697 1875.750 48.920 Q 1875.759 47.733 1863.041 46.784 Q 1850.323 45.834 1834.603 45.342 Q 1818.882 44.849 1808.971 44.987 Q 1799.061 45.124 1788.630 45.041 Q 1788.543 45.342 1804.457 42.741 Q 1820.371 40.140 1829.213 38.374 Q 1838.055 36.608 1842.709 35.567 Q 1847.362 34.526 1849.773 31.664 Q 1850.696 29.423 1834.822 28.311 Q 1818.948 27.198 1780.315 25.245 L 1780.327 24.889 Q 1780.353 23.896 1797.258 20.908 Q 1814.163 17.920 1823.619 16.031 Q 1833.075 14.141 1836.985 13.017 Q 1840.895 11.894 1842.500 11.403 Q 1844.105 10.912 1845.072 8.852 Q 1841.763 5.943 1779.191 4.069 Q 1778.046 2.468 1789.204 0.617 Q 1800.362 -1.234 1807.910 -3.105 Q 1815.458 -4.975 1818.967 -5.861 Q 1822.475 -6.747 1824.306 -7.571 Q 1826.137 -8.394 1826.914 -10.527 Q 1825.037 -13.733 1766.932 -11.759 Q 1766.420 -12.718 1775.526 -15.277 Q 1784.633 -17.836 1789.828 -19.255 Q 1795.022 -20.675 1797.654 -22.037 Q 1800.286 -23.398 1801.421 -25.670 Q 1801.744 -28.014 1771.262 -29.054 Q 1771.027 -29.554 1770.945 -29.591 Q 1770.863 -29.629 1771.574 -30.277 Q 1772.285 -30.924 1774.473 -31.561 Q 1776.662 -32.197 1782.469 -34.160 Q 1788.277 -36.122 1791.381 -37.366 Q 1794.485 -38.610 1796.591 -39.915 Q 1798.697 -41.221 1799.335 -42.100 Q 1799.974 -42.978 1799.537 -43.941 Q 1799.100 -44.903 1798.382 -45.133 Q 1797.665 -45.362 1796.038 -46.037 Q 1794.412 -46.711 1773.079 -47.988 Q 1771.525 -48.591 1778.260 -50.208 Q 1784.995 -51.824 1789.887 -53.219 Q 1794.778 -54.613 1797.941 -57.692 Q 1797.194 -58.935 1791.144 -59.138 Q 1785.094 -59.341 1778.892 -61.353 Q 1778.496 -60.889 1779.306 -62.185 Q 1780.117 -63.482 1782.670 -65.411 Q 1782.291 -65.113 1781.027 -66.109 Q 1779.764 -67.104 1779.734 -67.080 Q 1779.705 -67.055 1779.782 -67.130 Q 1779.859 -67.205 1779.001 -67.272 Q 1778.143 -67.340 1776.393 -66.851 Q 1774.643 -66.362 1772.879 -65.281 Q 1771.115 -64.201 1769.998 -63.496 Q 1768.882 -62.792 1768.567 -62.028 Q 1768.252 -61.265 1768.316 -60.901 Q 1768.380 -60.537 1768.559 -60.231 Q 1768.737 -59.924 1769.116 -59.595 Q 1769.494 -59.266 1769.321 -59.358 Q 1769.147 -59.450 1769.887 -58.999 Q 1770.627 -58.547 1772.496 -57.099 Q 1774.365 -55.651 1774.735 -53.592 Q 1775.106 -51.533 1775.365 -50.107 Q 1775.624 -48.680 1778.432 -47.959 Q 1781.240 -47.237 1783.223 -46.596 Q 1785.206 -45.954 1785.807 -44.745 Q 1786.409 -43.536 1786.381 -42.721 Q 1786.353 -41.905 1786.346 -41.403 Q 1786.339 -40.900 1786.392 -40.553 Q 1786.444 -40.207 1786.083 -39.507 Q 1785.723 -38.807 1783.782 -34.959 Q 1781.843 -31.111 1781.578 -25.861 Q 1781.313 -20.610 1780.963 -17.131 Q 1780.612 -13.652 1782.141 -10.478 Q 1783.670 -7.305 1787.574 -4.412 Q 1791.478 -1.520 1795.026 -0.324 Q 1798.575 0.873 1800.820 1.460 Q 1803.064 2.047 1805.907 2.289 Q 1808.750 2.532 1810.193 2.232 Q 1811.635 1.933 1812.664 1.350 Q 1813.693 0.767 1814.913 -0.571 Q 1816.134 -1.909 1816.755 -3.000 Q 1817.377 -4.090 1818.014 -7.841 Q 1818.650 -11.591 1818.649 -14.213 Q 1818.649 -16.835 1818.045 -19.092 Q 1817.441 -21.349 1814.472 -22.218 Q 1811.503 -23.087 1809.366 -22.687 Q 1807.229 -22.286 1806.255 -21.807 Q 1805.280 -21.327 1804.759 -20.827 Q 1804.238 -20.326 1804.381 -19.832 Q 1804.524 -19.338 1805.244 -18.732 Q 1805.965 -18.125 1808.645 -17.156 Q 1811.325 -16.186 1818.846 -15.979 Q 1820.756 -19.011 1811.585 -23.076 Q 1802.414 -27.141 1797.108 -28.624 Q 1791.801 -30.106 1789.984 -30.748 Q 1788.167 -31.389 1785.565 -33.743 Q 1782.964 -36.097 1780.587 -38.951 Q 1780.371 -38.823 1782.373 -39.643 Q 1782.318 -38.077 1782.329 -38.397 Q 1782.388 -37.091 1782.443 -37.282 Q 1782.472 -37.182 1783.171 -36.178 Q 1783.870 -35.173 1783.845 -35.420 Q 1784.742 -35.440 1782.883 -35.487 Q 1781.024 -35.534 1779.733 -35.195 Q 1778.442 -34.855 1777.646 -34.932 Q 1776.851 -35.010 1777.018 -34.916 Q 1777.186 -34.823 1777.095 -34.916 Q 1777.005 -35.009 1776.854 -35.067 Q 1776.703 -35.124 1776.896 -34.955 Q 1777.089 -34.785 1776.359 -35.403 Q 1775.629 -36.022 1775.487 -36.366 Q 1775.346 -36.709 1775.026 -37.183 Q 1774.706 -37.657 1774.704 -37.632 Q 1774.703 -37.606 1774.794 -37.607 Q 1774.885 -37.608 1774.588 -37.879 Q 1774.291 -38.150 1772.842 -39.520 Q 1771.394 -40.889 1771.216 -41.545 Q 1771.038 -42.202 1770.902 -42.745 Q 1770.765 -43.288 1770.974 -43.858 Q 1771.184 -44.429 1771.112 -44.076 Q 1771.041 -43.724 1771.381 -46.208 Q 1771.722 -48.693 1771.713 -50.065 Q 1771.703 -51.436 1770.023 -54.266 Q 1768.343 -57.096 1768.030 -58.820 Q 1767.717 -60.544 1766.730 -60.993 Q 1765.743 -61.442 1765.063 -61.556 Q 1764.383 -61.669 1764.567 -61.641 Q 1764.752 -61.613 1764.724 -61.621 Q 1764.696 -61.628 1764.448 -61.678 Q 1764.201 -61.728 1764.485 -61.632 Q 1764.768 -61.535 1764.104 -61.584 Q 1763.440 -61.633 1763.038 -61.903 Q 1762.636 -62.174 1762.382 -62.252 Q 1762.127 -62.330 1761.910 -62.356 Q 1761.693 -62.381 1760.709 -62.574 Q 1759.725 -62.767 1759.877 -62.763 Q 1760.028 -62.758 1759.411 -63.108 Q 1758.794 -63.458 1758.885 -63.432 Q 1758.976 -63.405 1758.948 -63.439 Q 1758.919 -63.473 1758.406 -63.850 Q 1757.894 -64.226 1757.838 -64.146 Q 1757.783 -64.066 1758.056 -64.126 Q 1758.330 -64.186 1756.868 -63.914 Q 1756.535 -62.911 1756.469 -62.701 Q 1756.402 -62.490 1756.459 -62.639 Q 1756.376 -61.501 1756.485 -62.311 Q 1756.594 -63.120 1755.809 -60.413 Q 1755.025 -57.707 1754.839 -56.121 Q 1754.654 -54.535 1754.631 -53.754 Q 1754.609 -52.972 1754.585 -52.326 Q 1754.561 -51.680 1754.560 -51.632 Q 1754.558 -51.583 1754.556 -51.528 Q 1754.554 -51.472 1754.529 -50.775 Q 1754.505 -50.078 1754.520 -50.135 Q 1754.535 -50.193 1754.525 -50.109 Q 1754.515 -50.026 1754.464 -49.498 Q 1754.413 -48.970 1754.525 -48.547 Q 1754.637 -48.125 1754.741 -47.380 Q 1754.845 -46.634 1754.890 -46.068 Q 1754.936 -45.502 1754.932 -45.154 Q 1754.928 -44.807 1754.935 -44.572 Q 1754.942 -44.336 1755.005 -43.645 Q 1755.068 -42.953 1755.017 -43.268 Q 1754.965 -43.583 1755.072 -42.994 Q 1755.179 -42.406 1755.316 -40.487 Q 1755.453 -38.568 1755.386 -37.038 Q 1755.319 -35.508 1755.293 -34.314 Q 1755.266 -33.119 1755.285 -32.854 Q 1755.303 -32.588 1755.319 -32.525 Q 1755.335 -32.463 1755.326 -32.527 Q 1755.316 -32.592 1755.434 -30.898 Q 1755.552 -29.204 1755.710 -26.811 Q 1755.869 -24.418 1755.937 -22.843 Q 1756.004 -21.268 1756.149 -20.084 Q 1756.293 -18.899 1756.281 -19.158 Q 1756.269 -19.417 1756.415 -18.727 Q 1756.562 -18.036 1756.643 -17.537 Q 1756.725 -17.038 1756.822 -16.279 Q 1756.918 -15.520 1756.993 -14.672 Q 1757.068 -13.825 1757.018 -12.694 Q 1756.969 -11.563 1756.924 -10.220 Q 1756.878 -8.877 1756.853 -8.060 Q 1756.827 -7.244 1756.802 -6.633 Q 1756.776 -6.023 1756.771 -6.178 Q 1756.767 -6.332 1756.761 -6.294 Q 1756.756 -6.256 1756.825 -5.383 Q 1756.894 -4.510 1756.985 -3.440 Q 1757.077 -2.370 1757.110 -1.509 Q 1757.144 -0.648 1757.098 0.155 Q 1757.052 0.959 1757.024 1.889 Q 1756.996 2.820 1756.933 4.330 Q 1756.870 5.839 1756.851 6.603 Q 1756.831 7.366 1756.853 8.152 Q 1756.874 8.937 1756.883 9.105 Q 1756.892 9.274 1756.842 8.873 Q 1756.791 8.472 1756.672 12.463 Q 1756.554 16.454 1756.582 18.427 Q 1756.609 20.401 1756.704 21.361 Q 1756.800 22.322 1756.744 22.984 Q 1756.688 23.646 1756.704 23.559 Q 1756.720 23.472 1756.717 23.912 Q 1756.714 24.352 1756.783 25.175 Q 1756.852 25.998 1756.969 26.829 Q 1757.085 27.661 1757.072 27.606 Q 1757.058 27.551 1757.079 27.544 Q 1757.100 27.537 1757.082 28.228 Q 1757.065 28.920 1757.036 30.316 Q 1757.008 31.711 1757.049 32.354 Q 1757.091 32.997 1757.217 33.599 Q 1757.343 34.201 1757.328 34.075 Q 1757.313 33.949 1757.326 34.127 Q 1757.338 34.305 1757.337 34.185 Q 1757.336 34.064 1757.384 34.511 Q 1757.432 34.958 1757.467 36.876 Q 1757.501 38.794 1757.499 39.792 Q 1757.496 40.790 1757.483 41.726 Q 1757.471 42.662 1757.468 42.589 Q 1757.465 42.516 1757.448 42.840 Q 1757.430 43.164 1757.465 42.667 Q 1757.500 42.170 1757.420 45.448 Q 1757.340 48.725 1757.260 50.727 Q 1757.181 52.728 1757.152 53.629 Q 1757.123 54.531 1757.099 55.183 Q 1757.075 55.834 1757.079 55.717 Q 1757.084 55.600 1757.090 55.677 Q 1757.097 55.755 1756.993 57.554 Q 1756.889 59.352 1756.807 61.822 Q 1756.724 64.292 1756.699 65.495 Q 1756.674 66.698 1756.722 67.325 Q 1756.770 67.952 1756.861 68.593 Q 1756.953 69.234 1756.958 69.254 Q 1756.963 69.273 1756.993 69.533 Q 1757.023 69.793 1757.037 69.555 Q 1757.051 69.316 1757.111 70.859 Q 1757.171 72.401 1757.289 73.680 Q 1757.407 74.958 1757.419 75.486 Q 1757.432 76.014 1757.453 76.601 Q 1757.475 77.188 1757.473 77.085 Q 1757.471 76.982 1757.463 77.253 Q 1757.455 77.524 1757.469 77.097 Q 1757.484 76.670 1757.354 80.352 Q 1757.224 84.033 1757.099 87.552 Q 1756.974 91.071 1756.922 92.551 Q 1756.870 94.031 1756.844 94.776 Q 1756.817 95.520 1756.805 95.860 Q 1756.793 96.201 1756.809 96.231 Q 1756.825 96.262 1756.823 96.169 Q 1756.822 96.077 1756.696 98.061 Q 1756.571 100.044 1756.615 102.501 Q 1756.658 104.958 1756.789 105.925 Q 1756.920 106.893 1756.925 107.180 Q 1756.930 107.466 1756.993 108.572 Q 1757.056 109.677 1757.026 109.633 Q 1756.995 109.589 1757.029 109.677 Q 1757.062 109.766 1757.098 111.187 Q 1757.135 112.609 1757.051 114.445 Q 1756.968 116.281 1756.955 116.802 Q 1756.943 117.323 1756.888 118.830 Q 1756.833 120.337 1756.802 121.232 Q 1756.771 122.128 1756.756 122.534 Q 1756.741 122.940 1756.731 123.098 Q 1756.720 123.256 1756.758 123.220 Q 1756.796 123.184 1756.462 127.603 Q 1756.128 132.022 1755.983 135.105 Q 1755.837 138.188 1755.786 139.639 Q 1755.735 141.091 1755.721 141.483 Q 1755.708 141.875 1755.691 142.341 Q 1755.675 142.807 1755.689 142.944 Q 1755.704 143.082 1755.689 143.076 Q 1755.673 143.071 1755.464 148.165 Q 1755.255 153.258 1755.401 156.552 Q 1755.547 159.845 1755.693 161.094 Q 1755.838 162.344 1755.986 162.814 Q 1756.134 163.285 1756.240 163.864 Q 1756.345 164.443 1756.284 164.033 Q 1756.223 163.622 1756.378 165.017 Q 1756.533 166.411 1756.407 167.113 Q 1756.281 167.815 1756.523 168.928 Q 1756.766 170.042 1757.083 170.582 Q 1757.399 171.121 1757.439 171.154 Q 1757.479 171.187 1757.891 171.300 Q 1758.302 171.414 1758.851 171.497 Q 1759.400 171.580 1759.871 171.535 Q 1760.343 171.491 1760.579 171.330 Q 1760.815 171.169 1761.114 171.173 Q 1761.413 171.177 1766.965 167.497 Q 1772.517 163.818 1776.102 161.256 Q 1779.686 158.693 1784.266 155.653 Q 1788.846 152.612 1791.660 150.666 Q 1794.474 148.720 1800.889 145.366 Q 1807.305 142.012 1814.353 140.201 Q 1815.928 139.836 1810.130 145.419 Q 1804.333 151.001 1793.989 158.940 Q 1783.646 166.880 1769.850 176.759 L 1769.887 176.897 Q 1770.811 177.756 1778.769 173.277 Q 1786.727 168.798 1796.810 161.892 Q 1806.892 154.986 1820.509 145.148 Q 1834.125 135.311 1846.998 127.460 Q 1845.674 128.044 1841.995 130.940 Q 1838.316 133.837 1834.552 136.440 Q 1830.789 139.043 1822.895 144.711 Q 1815.001 150.379 1809.866 154.000 Q 1804.732 157.620 1783.083 174.157 Q 1783.071 174.235 1789.586 165.992 Q 1796.100 157.748 1799.264 153.033 Q 1802.427 148.318 1805.958 142.896 Q 1809.488 137.473 1811.717 133.510 Q 1813.945 129.547 1813.972 124.510 Q 1808.763 122.419 1773.369 154.762 Q 1773.593 154.995 1775.800 153.141 Q 1778.007 151.287 1783.376 146.323 Q 1788.745 141.360 1791.696 138.478 Q 1794.646 135.596 1799.391 130.390 Q 1804.135 125.183 1809.627 118.838 Q 1815.118 112.493 1818.146 108.240 Q 1821.173 103.987 1822.566 101.465 Q 1823.959 98.944 1824.267 96.675 Q 1822.653 95.316 1816.987 99.483 Q 1811.322 103.650 1805.374 108.280 Q 1799.425 112.911 1790.253 120.948 Q 1781.082 128.985 1775.664 133.918 Q 1770.246 138.851 1766.955 143.228 Q 1767.734 143.625 1774.009 138.458 Q 1780.284 133.292 1791.025 122.838 Q 1801.766 112.384 1809.450 103.549 Q 1817.134 94.715 1821.281 90.130 Q 1825.429 85.546 1827.833 81.944 Q 1830.237 78.342 1831.135 74.839 Q 1829.071 73.344 1817.983 80.206 Q 1806.896 87.068 1800.555 91.868 Q 1794.213 96.668 1787.252 102.309 Q 1780.291 107.950 1776.015 111.397 Q 1771.739 114.845 1765.353 120.568 Q 1765.216 120.130 1770.332 115.188 Q 1775.449 110.246 1782.411 100.227 Q 1789.374 90.208 1793.010 83.976 Q 1796.646 77.744 1799.068 72.589 Q 1801.490 67.433 1801.208 62.116 Q 1799.573 60.195 1791.823 65.894 Q 1784.074 71.592 1777.769 77.992 Q 1771.465 84.391 1768.258 87.995 Q 1765.052 91.600 1763.350 94.083 Q 1761.649 96.566 1761.782 99.798 Q 1764.689 99.807 1769.933 94.782 Q 1775.176 89.756 1778.280 86.820 Q 1781.383 83.884 1784.482 79.105 Q 1787.582 74.326 1790.099 70.074 Q 1792.617 65.823 1795.729 59.529 Q 1798.841 53.236 1800.299 48.542 Q 1801.757 43.848 1802.565 39.805 Q 1803.373 35.761 1802.133 34.768 Q 1800.892 33.775 1797.569 34.204 Q 1794.246 34.633 1788.189 38.924 Q 1782.131 43.215 1777.323 47.427 Q 1772.515 51.640 1768.666 55.443 Q 1764.817 59.247 1763.282 64.913 Q 1763.552 66.199 1768.270 61.718 Q 1772.988 57.237 1776.478 51.228 Q 1779.967 45.219 1781.423 40.442 Q 1782.879 35.664 1783.650 33.186 Q 1784.420 30.708 1785.315 25.839 Q 1786.211 20.971 1786.609 16.845 Q 1787.007 12.720 1786.952 9.955 Q 1786.898 7.191 1785.912 5.641 Q 1784.927 4.091 1783.903 3.076 Q 1782.880 2.061 1780.718 1.763 Q 1778.555 1.465 1777.226 1.571 Q 1775.897 1.677 1775.188 2.104 Q 1774.478 2.530 1773.674 3.152 Q 1772.870 3.775 1772.755 4.106 Q 1772.640 4.437 1772.467 4.961 Q 1772.295 5.485 1771.836 6.091 Q 1771.378 6.698 1770.772 16.532 Q 1770.166 26.366 1769.708 31.924 Q 1769.250 37.482 1768.708 48.606 Q 1768.165 59.730 1767.904 65.707 Q 1767.643 71.685 1768.122 75.742 Q 1768.600 79.800 1769.221 83.267 Q 1769.841 86.734 1771.717 91.069 Q 1773.594 95.404 1775.662 99.171 Q 1777.731 102.938 1785.089 106.238 Q 1792.448 109.537 1796.540 111.050 Q 1800.632 112.563 1803.271 112.988 Q 1805.911 113.414 1810.199 114.073 Q 1814.487 114.732 1840.067 87.080 Q 1839.682 86.373 1831.623 93.328 Q 1823.565 100.282 1818.622 105.655 Q 1813.679 111.028 1811.432 114.308 Q 1809.184 117.588 1808.320 119.174 Q 1807.457 120.760 1806.651 125.225 Q 1805.845 129.690 1805.798 132.773 Q 1805.750 135.856 1805.621 137.805 Q 1805.491 139.754 1807.364 142.827 Q 1809.236 145.901 1813.625 145.178 Q 1818.014 144.454 1825.177 139.873 Q 1832.341 135.291 1843.954 128.149 Q 1844.009 127.906 1838.816 131.973 Q 1833.622 136.039 1828.594 140.015 Q 1823.567 143.991 1818.248 148.617 Q 1812.929 153.242 1808.557 157.655 Q 1804.186 162.067 1801.852 167.172 Q 1801.933 168.093 1810.250 163.281 Q 1818.568 158.469 1824.418 155.363 Q 1830.268 152.256 1833.389 147.811 Q 1833.657 145.352 1808.531 155.022 Q 1809.275 154.227 1815.961 149.180 Q 1822.648 144.134 1827.130 140.298 Q 1831.612 136.463 1837.317 130.034 Q 1843.022 123.605 1846.233 119.808 Q 1849.443 116.011 1850.860 113.541 Q 1852.277 111.070 1852.771 109.211 Q 1853.266 107.352 1852.262 105.822 Q 1851.259 104.292 1848.408 103.919 Q 1845.557 103.547 1842.125 105.030 Q 1838.694 106.513 1830.910 111.784 Q 1823.126 117.055 1819.595 120.250 Q 1816.064 123.446 1813.710 125.483 Q 1811.355 127.520 1809.582 130.368 Q 1807.808 133.216 1807.804 136.846 Q 1809.822 138.854 1818.201 131.825 Q 1826.579 124.796 1831.857 119.648 Q 1837.136 114.499 1840.734 110.716 Q 1844.332 106.932 1845.838 99.786 Q 1845.399 97.717 1837.984 102.114 Q 1830.570 106.510 1826.028 109.796 Q 1821.487 113.081 1819.091 114.696 Q 1816.695 116.312 1814.369 117.671 Q 1812.044 119.029 1803.064 126.220 Q 1804.142 127.553 1810.963 123.475 Q 1817.784 119.396 1822.350 115.673 Q 1826.915 111.951 1829.744 108.070 Q 1832.573 104.189 1833.391 99.000 Q 1834.208 93.811 1834.511 89.608 Q 1834.813 85.405 1833.141 78.290 Q 1831.469 71.175 1828.526 63.333 Q 1825.583 55.491 1822.960 49.613 Q 1820.338 43.735 1818.153 38.961 Q 1815.969 34.187 1813.688 30.018 Q 1811.408 25.850 1809.356 18.552 Q 1807.303 11.253 1806.530 6.070 Q 1805.758 0.886 1804.351 -3.678 Q 1802.944 -8.242 1794.372 -16.876 Q 1793.457 -14.596 1793.611 -15.515 Q 1793.765 -16.433 1791.039 -0.898 Q 1790.830 -0.713 1791.175 -4.637 Q 1791.519 -8.560 1791.480 -10.872 Q 1791.442 -13.184 1791.291 -14.182 Q 1791.141 -15.179 1789.706 -16.295 Q 1788.271 -17.411 1786.846 -15.981 Q 1785.421 -14.550 1784.841 -13.789 Q 1784.262 -13.028 1783.785 -10.018 Q 1783.308 -7.007 1783.558 -4.977 Q 1783.809 -2.947 1783.992 -2.133 Q 1784.175 -1.320 1784.942 0.162 Q 1785.709 1.644 1786.630 2.849 Q 1787.551 4.053 1789.125 3.475 Q 1790.698 2.897 1791.647 1.813 Q 1792.596 0.729 1793.158 0.257 Q 1793.721 -0.215 1795.638 -2.873 Q 1795.001 -1.653 1792.860 2.934 Q 1790.719 7.520 1789.689 12.488 Q 1788.660 17.456 1791.441 25.422 Q 1794.221 33.388 1796.203 37.667 Q 1798.184 41.946 1799.976 47.646 Q 1801.769 53.346 1802.826 59.209 Q 1803.884 65.072 1803.887 69.451 Q 1803.891 73.831 1809.463 78.318 Q 1815.034 82.805 1818.269 85.134 Q 1821.503 87.463 1823.540 89.223 Q 1825.576 90.982 1829.390 94.274 Q 1833.204 97.565 1835.880 100.117 Q 1838.556 102.668 1842.649 105.669 Q 1846.742 108.669 1850.481 110.440 Q 1854.221 112.210 1857.398 113.007 Q 1860.576 113.805 1866.614 112.328 Q 1872.651 110.851 1880.421 111.290 Q 1881.458 111.805 1879.571 114.284 Q 1877.683 116.763 1872.180 120.393 Q 1866.676 124.023 1863.439 126.261 Q 1860.202 128.499 1858.431 130.673 Q 1857.948 131.768 1864.173 129.829 Q 1870.398 127.889 1874.770 126.460 Q 1879.142 125.031 1883.473 125.366 Q 1883.563 126.001 1883.387 127.618 Q 1883.210 129.234 1883.064 129.806 "></path>
    <path id="STROKE_e21995f4-ed41-4112-be67-772ea2279d93" opacity="0.500" fill="none" stroke="#bb3e45" stroke-width="25.304" stroke-opacity="1.000" stroke-linecap="round" stroke-linejoin="round" d="M 1830.539 -73.580 Q 1830.100 -73.160 1831.352 -70.194 Q 1832.604 -67.228 1833.458 -65.830 Q 1834.312 -64.432 1834.746 -63.584 Q 1835.179 -62.736 1835.868 -61.418 Q 1836.557 -60.101 1837.559 -58.965 Q 1838.561 -57.828 1839.183 -57.136 Q 1839.805 -56.444 1841.520 -54.295 Q 1843.235 -52.145 1844.544 -50.461 Q 1845.854 -48.776 1846.609 -47.934 Q 1847.365 -47.092 1848.123 -45.762 Q 1848.881 -44.431 1849.498 -43.596 Q 1850.115 -42.761 1851.217 -40.787 Q 1852.319 -38.813 1852.915 -37.356 Q 1853.511 -35.898 1853.937 -35.130 Q 1854.364 -34.362 1854.580 -34.029 Q 1854.795 -33.696 1855.104 -33.179 Q 1855.411 -32.662 1856.448 -31.153 Q 1857.484 -29.644 1858.141 -28.799 Q 1858.799 -27.954 1859.238 -27.391 Q 1859.677 -26.829 1859.892 -26.436 Q 1860.108 -26.043 1860.239 -25.842 Q 1860.370 -25.642 1860.344 -25.629 Q 1860.318 -25.617 1860.788 -25.048 Q 1861.258 -24.479 1862.585 -22.987 Q 1863.912 -21.495 1864.593 -20.562 Q 1865.275 -19.630 1865.594 -19.203 Q 1865.912 -18.775 1866.282 -18.263 Q 1866.651 -17.750 1866.885 -17.453 Q 1867.118 -17.156 1867.258 -16.958 Q 1867.397 -16.761 1867.539 -16.553 Q 1867.680 -16.345 1867.972 -15.967 Q 1868.264 -15.590 1868.195 -15.658 Q 1868.127 -15.727 1868.753 -15.056 Q 1869.379 -14.386 1870.403 -13.249 Q 1871.427 -12.112 1872.102 -11.272 Q 1872.777 -10.433 1872.891 -10.301 Q 1873.005 -10.169 1874.371 -8.483 Q 1875.738 -6.798 1877.086 -5.079 Q 1878.435 -3.360 1879.039 -2.547 Q 1879.643 -1.734 1880.496 -0.788 Q 1881.349 0.159 1882.110 1.078 Q 1882.871 1.997 1883.333 2.600 Q 1883.796 3.203 1884.222 3.752 Q 1884.648 4.301 1886.082 5.885 Q 1887.515 7.470 1888.703 8.728 Q 1889.891 9.985 1890.870 11.171 Q 1891.850 12.357 1892.692 13.151 Q 1893.533 13.945 1895.323 15.755 Q 1897.114 17.565 1898.548 19.227 Q 1899.983 20.889 1901.907 22.873 Q 1903.832 24.857 1905.073 26.042 Q 1906.314 27.226 1907.217 28.050 Q 1908.119 28.875 1909.238 29.885 Q 1910.358 30.896 1911.514 31.966 Q 1912.670 33.036 1913.218 33.564 Q 1913.766 34.092 1914.538 34.780 Q 1915.310 35.468 1915.708 35.792 Q 1916.106 36.115 1916.311 36.300 Q 1916.516 36.486 1916.515 36.460 Q 1916.513 36.435 1918.070 37.824 Q 1919.626 39.213 1921.060 40.450 Q 1922.493 41.686 1924.065 42.988 Q 1925.636 44.289 1926.861 45.322 Q 1928.087 46.354 1928.933 47.051 Q 1929.779 47.749 1930.197 48.057 Q 1930.614 48.365 1930.854 48.553 Q 1931.095 48.741 1931.494 49.064 Q 1931.893 49.386 1932.232 49.649 Q 1932.571 49.912 1932.909 50.225 Q 1933.247 50.538 1934.109 51.338 Q 1934.972 52.137 1937.400 53.763 Q 1939.828 55.389 1942.327 57.105 Q 1944.826 58.821 1946.576 59.951 Q 1948.325 61.080 1949.199 61.605 Q 1950.073 62.131 1952.040 63.472 Q 1954.008 64.813 1956.000 65.979 Q 1957.993 67.145 1963.617 70.826 Q 1969.242 74.506 1972.203 76.305 Q 1975.163 78.103 1976.381 78.877 Q 1977.598 79.650 1978.490 80.244 Q 1979.382 80.839 1980.040 81.297 Q 1980.698 81.756 1980.876 81.857 Q 1981.055 81.959 1981.188 82.041 Q 1981.321 82.124 1981.538 82.264 Q 1981.755 82.404 1982.425 82.807 Q 1983.095 83.210 1983.781 83.569 Q 1984.467 83.927 1985.309 84.461 Q 1986.151 84.994 1986.582 85.247 Q 1987.014 85.500 1987.344 85.696 Q 1987.673 85.891 1987.867 86.020 Q 1988.061 86.148 1988.023 86.126 Q 1987.985 86.105 1988.831 86.620 Q 1989.677 87.136 1991.623 88.303 Q 1993.569 89.471 1995.340 90.399 Q 1997.111 91.327 1998.844 92.389 Q 2000.577 93.451 2004.218 95.216 Q 2007.858 96.981 2009.608 97.883 Q 2011.357 98.786 2012.620 99.224 Q 2013.882 99.662 2016.719 100.853 Q 2019.555 102.043 2021.095 102.465 Q 2022.635 102.886 2024.387 103.430 Q 2026.139 103.975 2027.369 104.387 Q 2028.598 104.799 2029.319 104.963 Q 2030.039 105.126 2031.670 105.601 Q 2033.300 106.075 2034.862 106.579 Q 2036.425 107.083 2037.224 107.350 Q 2038.023 107.617 2039.201 107.962 Q 2040.378 108.308 2041.026 108.493 Q 2041.673 108.678 2042.259 108.871 Q 2042.845 109.064 2042.966 109.109 Q 2043.087 109.154 2046.047 110.195 Q 2049.008 111.237 2050.733 111.825 Q 2052.459 112.414 2054.517 113.065 Q 2056.575 113.716 2058.131 113.993 Q 2059.686 114.269 2061.942 114.922 Q 2064.198 115.574 2065.994 116.079 Q 2067.789 116.583 2069.371 117.011 Q 2070.952 117.439 2074.661 118.203 Q 2078.371 118.966 2080.929 119.631 Q 2083.488 120.296 2086.372 121.220 Q 2089.255 122.144 2091.226 122.667 Q 2093.197 123.190 2093.774 123.332 Q 2094.351 123.474 2095.754 123.769 Q 2097.157 124.063 2098.146 124.233 Q 2099.135 124.403 2099.976 124.555 Q 2100.816 124.706 2100.800 124.738 Q 2100.783 124.769 2103.581 125.278 Q 2106.379 125.787 2109.110 126.272 Q 2111.840 126.757 2113.369 127.074 Q 2114.898 127.392 2116.850 127.834 Q 2118.802 128.276 2120.350 128.515 Q 2121.897 128.754 2124.542 128.899 Q 2127.188 129.045 2130.573 129.504 Q 2133.957 129.963 2135.859 130.265 Q 2137.762 130.566 2139.297 130.785 Q 2140.832 131.004 2141.892 131.078 Q 2142.951 131.152 2145.627 131.385 Q 2148.302 131.618 2150.319 131.903 Q 2152.335 132.187 2153.713 132.337 Q 2155.092 132.488 2155.657 132.533 Q 2156.223 132.578 2157.489 132.740 Q 2158.755 132.902 2159.645 133.021 Q 2160.534 133.140 2160.853 133.185 Q 2161.171 133.230 2161.385 133.250 Q 2161.600 133.270 2161.944 133.304 Q 2162.287 133.338 2164.172 133.695 Q 2166.056 134.051 2169.065 134.372 Q 2172.075 134.694 2174.523 134.848 Q 2176.972 135.002 2178.776 135.024 Q 2180.581 135.046 2181.876 135.073 Q 2183.172 135.101 2184.477 135.115 Q 2185.781 135.130 2187.364 135.088 Q 2188.947 135.047 2190.008 135.153 Q 2191.068 135.260 2192.123 135.274 Q 2193.177 135.289 2193.889 135.174 Q 2194.601 135.059 2197.389 135.098 Q 2200.176 135.136 2201.544 135.108 Q 2202.912 135.080 2203.459 135.157 Q 2204.007 135.233 2204.236 135.240 Q 2204.466 135.246 2204.826 135.271 Q 2205.187 135.296 2205.456 135.306 Q 2205.726 135.316 2205.832 135.308 Q 2205.939 135.299 2206.297 135.258 Q 2206.656 135.216 2206.913 135.188 Q 2207.171 135.160 2207.534 135.127 Q 2207.896 135.093 2208.219 135.059 Q 2208.541 135.024 2208.516 135.030 Q 2208.491 135.035 2208.504 135.036 Q 2208.516 135.037 2208.545 135.035 Q 2208.574 135.033 2208.656 135.021 Q 2208.738 135.010 2208.842 134.985 Q 2208.947 134.959 2209.216 134.876 Q 2209.485 134.793 2209.717 134.503 Q 2209.949 134.213 2209.888 134.287 Q 2209.826 134.361 2209.790 134.394 Q 2209.834 133.356 2209.821 133.717 Q 2209.721 132.806 2209.704 133.082 Q 2209.688 133.358 2209.700 133.043 Q 2209.713 132.727 2209.430 131.475 Q 2209.146 130.222 2208.783 129.378 Q 2208.420 128.533 2207.262 127.440 Q 2206.104 126.347 2205.502 125.746 Q 2204.901 125.144 2204.312 124.984 Q 2203.722 124.824 2204.125 124.869 Q 2204.527 124.915 2202.441 124.701 Q 2200.355 124.487 2198.941 124.350 Q 2197.527 124.213 2196.124 123.820 Q 2194.721 123.427 2193.999 123.218 Q 2193.277 123.009 2191.906 122.526 Q 2190.534 122.042 2189.697 121.740 Q 2188.860 121.438 2188.383 121.324 Q 2187.906 121.209 2187.717 120.971 Q 2187.529 120.733 2183.291 119.731 Q 2179.054 118.730 2175.389 118.080 Q 2171.725 117.430 2169.923 116.932 Q 2168.122 116.434 2166.366 115.911 Q 2164.611 115.389 2161.123 114.721 Q 2157.635 114.052 2152.880 113.576 Q 2148.125 113.099 2145.931 112.932 Q 2143.737 112.764 2141.797 112.555 Q 2139.858 112.346 2137.606 112.293 Q 2135.354 112.240 2130.416 111.489 Q 2125.477 110.737 2121.281 109.526 Q 2117.085 108.314 2114.935 107.901 Q 2112.784 107.487 2110.179 107.011 Q 2107.574 106.535 2104.623 105.766 Q 2101.671 104.997 2098.904 104.513 Q 2096.136 104.030 2090.990 103.083 Q 2085.844 102.137 2081.830 101.301 Q 2077.815 100.466 2075.200 99.769 Q 2072.585 99.073 2069.923 98.439 Q 2067.262 97.806 2065.821 97.430 Q 2064.380 97.055 2063.393 96.754 Q 2062.406 96.453 2061.472 96.174 Q 2060.538 95.895 2058.466 95.231 Q 2056.394 94.566 2054.709 93.943 Q 2053.025 93.320 2048.316 92.172 Q 2043.607 91.024 2040.646 90.069 Q 2037.686 89.115 2035.930 88.375 Q 2034.175 87.635 2029.852 86.093 Q 2025.530 84.551 2022.053 83.132 Q 2018.576 81.713 2016.766 80.931 Q 2014.955 80.149 2014.264 79.857 Q 2013.573 79.566 2012.610 79.107 Q 2011.647 78.649 2010.886 78.330 Q 2010.126 78.011 2005.864 75.715 Q 2001.603 73.419 1995.322 70.159 Q 1989.041 66.898 1985.362 64.912 Q 1981.683 62.926 1976.297 59.664 Q 1970.911 56.401 1967.633 54.530 Q 1964.355 52.658 1958.682 48.048 Q 1953.009 43.438 1947.799 39.024 Q 1942.590 34.611 1940.285 32.375 Q 1937.980 30.140 1930.283 23.553 Q 1922.586 16.967 1917.541 12.559 Q 1912.496 8.152 1909.512 5.470 Q 1906.528 2.789 1904.764 1.136 Q 1903.000 -0.516 1897.878 -5.700 Q 1892.756 -10.884 1888.260 -14.693 Q 1883.765 -18.503 1879.678 -22.871 Q 1875.592 -27.239 1873.513 -29.722 Q 1871.434 -32.204 1870.043 -33.441 Q 1868.652 -34.678 1865.340 -38.720 Q 1862.027 -42.762 1860.283 -44.985 Q 1858.538 -47.209 1857.381 -48.708 Q 1856.225 -50.206 1855.251 -51.255 Q 1854.278 -52.304 1852.451 -55.051 Q 1850.625 -57.799 1849.761 -59.311 Q 1848.898 -60.823 1848.132 -62.382 Q 1847.366 -63.942 1846.065 -65.813 Q 1844.763 -67.684 1843.694 -69.409 Q 1842.624 -71.134 1842.239 -72.296 Q 1841.853 -73.458 1841.866 -73.995 Q 1841.879 -74.533 1842.108 -74.788 Q 1842.336 -75.044 1842.543 -75.252 Q 1842.750 -75.459 1843.016 -75.589 Q 1843.282 -75.718 1843.238 -75.868 Q 1843.193 -76.018 1844.144 -76.362 Q 1845.095 -76.706 1845.699 -76.720 Q 1846.302 -76.735 1846.666 -76.661 Q 1847.029 -76.587 1847.288 -76.470 Q 1847.546 -76.354 1847.843 -76.220 Q 1848.139 -76.087 1848.563 -75.879 Q 1848.986 -75.672 1849.269 -75.542 Q 1849.551 -75.411 1851.344 -74.217 Q 1853.137 -73.022 1854.549 -71.653 Q 1855.960 -70.283 1856.762 -69.370 Q 1857.564 -68.456 1858.337 -67.473 Q 1859.109 -66.490 1861.290 -64.301 Q 1863.471 -62.112 1865.854 -59.739 Q 1868.237 -57.365 1869.933 -55.496 Q 1871.628 -53.626 1873.593 -51.206 Q 1875.557 -48.786 1876.958 -47.137 Q 1878.359 -45.488 1879.224 -44.463 Q 1880.089 -43.438 1880.615 -42.849 Q 1881.140 -42.260 1881.836 -41.473 Q 1882.532 -40.687 1884.938 -38.549 Q 1887.343 -36.411 1890.655 -33.247 Q 1893.966 -30.083 1897.448 -26.320 Q 1900.930 -22.557 1907.022 -16.867 Q 1913.115 -11.176 1916.675 -8.005 Q 1920.235 -4.833 1922.283 -3.016 Q 1924.331 -1.200 1930.468 3.922 Q 1936.605 9.043 1940.608 12.147 Q 1944.611 15.252 1947.172 16.976 Q 1949.733 18.700 1955.292 22.595 Q 1960.851 26.491 1966.280 30.201 Q 1971.710 33.912 1974.388 35.738 Q 1977.067 37.564 1978.238 38.337 Q 1979.410 39.111 1983.185 41.535 Q 1986.960 43.959 1992.200 47.337 Q 1997.439 50.714 2000.187 52.383 Q 2002.934 54.052 2004.305 54.923 Q 2005.675 55.794 2009.494 57.665 Q 2013.313 59.537 2019.054 62.130 Q 2024.796 64.723 2034.085 68.724 Q 2043.375 72.725 2048.312 74.719 Q 2053.250 76.713 2055.720 77.528 Q 2058.191 78.344 2067.778 81.192 Q 2077.366 84.041 2084.254 86.085 Q 2091.142 88.129 2094.785 89.199 Q 2098.428 90.270 2104.872 91.926 Q 2111.317 93.582 2115.373 94.425 Q 2119.430 95.268 2122.981 96.006 Q 2126.533 96.745 2134.774 98.360 Q 2143.015 99.975 2149.257 101.287 Q 2155.498 102.598 2158.702 103.239 Q 2161.907 103.881 2164.302 104.029 Q 2166.696 104.178 2170.816 104.677 Q 2174.936 105.176 2179.607 105.485 Q 2184.279 105.794 2187.958 105.697 Q 2191.637 105.600 2194.074 105.419 Q 2196.510 105.238 2197.874 105.159 Q 2199.238 105.081 2201.202 104.221 Q 2203.167 103.361 2204.471 101.941 Q 2205.776 100.521 2206.467 99.489 Q 2207.158 98.456 2207.634 96.876 Q 2208.109 95.296 2208.284 93.472 Q 2208.458 91.649 2207.729 89.895 Q 2207.000 88.141 2204.655 86.622 Q 2202.310 85.103 2197.457 84.669 Q 2192.603 84.236 2187.457 84.597 Q 2182.311 84.958 2179.242 85.355 Q 2176.173 85.751 2174.499 85.987 Q 2172.825 86.224 2169.986 86.733 Q 2167.147 87.243 2163.303 87.882 Q 2159.460 88.522 2156.694 88.892 Q 2153.928 89.262 2149.156 89.294 Q 2144.383 89.325 2141.673 89.186 Q 2138.964 89.046 2136.821 88.882 Q 2134.678 88.718 2133.563 88.618 Q 2132.448 88.519 2129.967 88.161 Q 2127.486 87.804 2120.591 86.950 Q 2113.695 86.096 2108.690 85.272 Q 2103.686 84.449 2099.130 83.371 Q 2094.574 82.292 2087.209 79.334 Q 2079.844 76.375 2073.184 72.790 Q 2066.525 69.204 2063.350 67.287 Q 2060.176 65.370 2056.920 63.645 Q 2053.666 61.919 2051.630 60.735 Q 2049.595 59.550 2048.563 58.981 Q 2047.530 58.412 2046.889 58.058 Q 2046.248 57.704 2043.575 56.169 Q 2040.903 54.633 2035.630 52.024 Q 2030.358 49.415 2025.855 47.308 Q 2021.351 45.201 2019.415 44.125 Q 2017.479 43.049 2015.933 42.268 Q 2014.387 41.488 2010.919 39.688 Q 2007.451 37.889 2004.461 36.080 Q 2001.472 34.270 1998.260 32.345 Q 1995.048 30.420 1992.815 29.205 Q 1990.583 27.991 1988.435 26.909 Q 1986.287 25.826 1984.475 24.981 Q 1982.664 24.135 1976.844 21.647 Q 1971.024 19.159 1967.573 17.776 Q 1964.121 16.394 1959.143 14.099 Q 1954.164 11.804 1951.511 10.456 Q 1948.857 9.108 1946.761 8.186 Q 1944.664 7.265 1939.012 3.966 Q 1933.361 0.667 1930.186 -1.526 Q 1927.010 -3.719 1924.224 -5.741 Q 1921.437 -7.762 1917.760 -10.065 Q 1914.084 -12.368 1908.963 -16.810 Q 1903.841 -21.253 1900.494 -24.656 Q 1897.147 -28.060 1895.313 -29.937 Q 1893.480 -31.815 1892.454 -32.842 Q 1891.428 -33.870 1888.875 -36.047 Q 1886.321 -38.223 1882.876 -41.638 Q 1879.430 -45.053 1876.448 -48.377 Q 1873.465 -51.700 1871.729 -53.645 Q 1869.993 -55.591 1868.829 -56.900 Q 1867.666 -58.210 1866.329 -59.506 Q 1864.992 -60.802 1863.196 -62.724 Q 1861.400 -64.647 1860.255 -66.176 Q 1859.110 -67.704 1858.281 -70.215 Q 1857.452 -72.726 1857.157 -74.012 Q 1856.863 -75.298 1856.715 -75.659 Q 1856.567 -76.021 1856.333 -76.972 Q 1856.098 -77.924 1856.200 -79.027 Q 1856.302 -80.130 1856.698 -80.653 Q 1857.095 -81.176 1857.242 -81.216 Q 1857.389 -81.256 1857.778 -81.407 Q 1858.166 -81.557 1858.942 -81.430 Q 1859.718 -81.303 1860.225 -81.018 Q 1860.732 -80.732 1861.055 -80.502 Q 1861.378 -80.272 1861.695 -80.111 Q 1862.013 -79.949 1864.448 -77.983 Q 1866.883 -76.017 1868.276 -74.683 Q 1869.669 -73.349 1870.604 -72.346 Q 1871.539 -71.343 1872.522 -70.257 Q 1873.505 -69.171 1873.917 -68.783 Q 1874.329 -68.395 1875.058 -67.803 Q 1875.786 -67.210 1878.179 -65.142 Q 1880.573 -63.074 1882.459 -61.155 Q 1884.345 -59.236 1885.412 -58.101 Q 1886.480 -56.967 1889.142 -54.480 Q 1891.804 -51.992 1895.105 -49.015 Q 1898.405 -46.039 1901.602 -43.267 Q 1904.798 -40.495 1906.408 -39.007 Q 1908.018 -37.519 1912.088 -34.276 Q 1916.158 -31.034 1918.536 -29.322 Q 1920.913 -27.610 1923.300 -25.531 Q 1925.687 -23.453 1929.141 -20.675 Q 1932.595 -17.897 1934.145 -16.746 Q 1935.694 -15.595 1937.561 -14.183 Q 1939.428 -12.771 1940.446 -12.069 Q 1941.464 -11.367 1944.603 -9.193 Q 1947.742 -7.019 1949.762 -5.496 Q 1951.783 -3.972 1952.925 -3.135 Q 1954.068 -2.297 1955.449 -1.227 Q 1956.831 -0.157 1959.667 1.707 Q 1962.503 3.571 1964.702 4.872 Q 1966.901 6.173 1968.153 6.885 Q 1969.404 7.598 1970.164 8.062 Q 1970.923 8.527 1972.865 9.586 Q 1974.807 10.645 1975.960 11.270 Q 1977.114 11.896 1982.667 14.904 Q 1988.219 17.913 1992.570 19.941 Q 1996.921 21.970 1999.768 23.279 Q 2002.616 24.587 2010.131 28.102 Q 2017.646 31.617 2023.510 34.324 Q 2029.375 37.031 2032.651 38.625 Q 2035.928 40.219 2040.252 42.436 Q 2044.577 44.652 2047.238 45.828 Q 2049.899 47.003 2051.419 47.570 Q 2052.940 48.137 2055.427 49.003 Q 2057.913 49.868 2059.289 50.341 Q 2060.665 50.814 2064.550 52.486 Q 2068.434 54.157 2072.322 55.729 Q 2076.210 57.300 2080.138 58.621 Q 2084.066 59.941 2087.162 60.842 Q 2090.259 61.744 2093.109 62.744 Q 2095.960 63.744 2097.922 64.519 Q 2099.884 65.295 2104.467 66.476 Q 2109.050 67.657 2113.614 68.777 Q 2118.178 69.897 2120.467 70.503 Q 2122.756 71.110 2123.725 71.264 Q 2124.693 71.417 2128.963 72.508 Q 2133.234 73.599 2140.268 75.030 Q 2147.301 76.460 2150.910 77.326 Q 2154.518 78.192 2156.503 78.624 Q 2158.487 79.056 2161.673 79.418 Q 2164.859 79.780 2174.035 80.633 Q 2183.211 81.487 2188.164 82.358 Q 2193.116 83.229 2198.116 83.197 Q 2203.115 83.165 2206.462 82.748 Q 2209.810 82.331 2211.761 82.137 "></path>
    <path id="STROKE_34eb6ab1-4d7b-4faf-a396-ebc44ef335d2" opacity="1.000" fill="none" stroke="#000000" stroke-width="1.555" stroke-opacity="1.000" stroke-linecap="round" stroke-linejoin="round" d="M 2265.052 207.971 L 2265.326 207.766 Q 2265.715 207.234 2265.591 207.127 L 2265.572 206.720 Q 2265.614 206.402 2264.932 205.767 Q 2264.251 205.132 2263.385 204.925 Q 2262.519 204.719 2262.123 204.746 Q 2261.727 204.773 2261.458 204.873 Q 2261.190 204.972 2260.894 205.287 Q 2260.597 205.603 2260.405 205.971 Q 2260.212 206.340 2260.344 208.740 Q 2260.477 211.139 2260.750 212.511 Q 2261.024 213.883 2261.421 216.591 Q 2261.819 219.300 2261.972 220.696 Q 2262.126 222.093 2262.099 223.147 Q 2262.072 224.202 2262.077 224.216 Q 2262.082 224.230 2261.705 225.458 Q 2261.463 225.630 2260.460 225.392 Q 2259.456 225.153 2258.826 224.630 Q 2258.195 224.107 2257.896 223.750 Q 2257.598 223.394 2256.856 221.161 "></path>
    <path id="STROKE_d7b3e4af-7c7c-4bc0-8632-85a9f3f6e088" opacity="1.000" fill="none" stroke="#000000" stroke-width="1.555" stroke-opacity="1.000" stroke-linecap="round" stroke-linejoin="round" d="M 2254.786 217.279 Q 2254.875 217.230 2258.169 216.847 Q 2261.464 216.465 2264.213 215.830 L 2265.134 215.479 "></path>
    <path id="STROKE_4186bfac-0043-483c-8078-740ffc1e5b0a" opacity="1.000" fill="none" stroke="#000000" stroke-width="1.555" stroke-opacity="1.000" stroke-linecap="round" stroke-linejoin="round" d="M 2267.570 221.008 Q 2267.627 221.127 2267.644 222.675 Q 2267.661 224.223 2267.896 225.601 Q 2268.131 226.978 2269.021 229.143 "></path>
    <path id="STROKE_99d87cb4-e3b9-4b56-9bcb-fb56e41dcedf" opacity="1.000" fill="none" stroke="#000000" stroke-width="1.555" stroke-opacity="1.000" stroke-linecap="round" stroke-linejoin="round" d="M 1719.168 -87.177 Q 1718.901 -87.692 1718.142 -88.256 Q 1717.382 -88.820 1716.776 -88.987 Q 1716.170 -89.154 1715.748 -89.135 Q 1715.326 -89.115 1714.847 -88.859 Q 1714.368 -88.602 1713.845 -87.159 Q 1713.322 -85.715 1714.471 -82.115 Q 1715.621 -78.515 1716.294 -76.709 Q 1716.967 -74.903 1717.014 -74.009 Q 1717.060 -73.116 1716.976 -72.817 Q 1716.892 -72.518 1716.736 -72.311 Q 1716.580 -72.104 1716.213 -71.919 Q 1715.845 -71.733 1714.953 -71.610 Q 1714.060 -71.486 1713.241 -71.623 Q 1712.423 -71.759 1712.017 -72.051 Q 1711.610 -72.343 1711.508 -72.478 Q 1711.405 -72.613 1711.358 -72.856 Q 1711.312 -73.098 1711.494 -74.205 "></path>
    <path id="STROKE_f4422c85-33b1-4801-aa8a-d69761a423f3" opacity="1.000" fill="none" stroke="#000000" stroke-width="1.555" stroke-opacity="1.000" stroke-linecap="round" stroke-linejoin="round" d="M 1710.196 -76.859 Q 1710.214 -76.865 1710.329 -77.168 Q 1710.801 -77.442 1710.864 -77.436 Q 1712.125 -77.882 1713.959 -78.230 Q 1715.793 -78.577 1716.752 -78.747 "></path>
    <path id="STROKE_0c7cb383-8a03-45ff-911b-509ff5512a70" opacity="1.000" fill="none" stroke="#000000" stroke-width="1.555" stroke-opacity="1.000" stroke-linecap="round" stroke-linejoin="round" d="M 1719.098 -71.533 Q 1719.653 -71.597 1719.707 -71.635 Q 1721.241 -71.968 1722.440 -71.877 L 1722.647 -71.451 Q 1723.005 -70.396 1721.006 -64.876 Q 1721.303 -64.673 1724.467 -64.787 Q 1727.631 -64.900 1728.761 -65.080 "></path>
    <path id="STROKE_7a9e9081-41a7-439f-9831-b099d0e4926b" opacity="1.000" fill="none" stroke="#000000" stroke-width="1.830" stroke-opacity="1.000" stroke-linecap="round" stroke-linejoin="round" d="M 2075.228 115.504 L 2075.302 115.356 Q 2075.745 114.832 2081.025 111.674 Q 2086.305 108.516 2091.662 105.859 Q 2097.018 103.202 2102.056 102.615 Q 2102.356 102.858 2101.985 104.444 Q 2101.615 106.031 2101.274 107.372 Q 2100.935 108.713 2100.983 109.491 Q 2101.032 110.269 2101.274 110.678 Q 2101.515 111.086 2101.825 111.246 Q 2102.135 111.405 2102.374 111.531 Q 2102.612 111.656 2104.405 111.465 Q 2106.197 111.273 2107.236 110.903 Q 2108.274 110.534 2111.064 109.302 Q 2113.854 108.070 2118.574 105.837 Q 2123.294 103.604 2126.520 102.161 Q 2129.746 100.718 2131.793 99.844 Q 2133.840 98.970 2137.750 97.148 Q 2137.699 97.122 2135.917 97.720 "></path>
    <path id="STROKE_e76dc45a-2c28-4e2c-ad75-a72abb47507d" opacity="1.000" fill="none" stroke="#000000" stroke-width="1.555" stroke-opacity="1.000" stroke-linecap="round" stroke-linejoin="round" d="M 2078.726 107.680 L 2078.506 107.801 Q 2078.188 108.366 2077.581 109.340 Q 2076.973 110.313 2076.670 110.891 Q 2076.368 111.469 2076.034 112.025 Q 2075.701 112.580 2075.184 116.035 Q 2075.807 116.129 2075.825 116.201 Q 2075.843 116.274 2076.216 116.305 Q 2076.590 116.337 2079.018 116.484 Q 2081.445 116.631 2082.781 116.633 "></path>
    <path id="STROKE_e373896d-55cf-4c56-aa91-676e163cab06" opacity="1.000" fill="none" stroke="#000000" stroke-width="1.555" stroke-opacity="1.000" stroke-linecap="round" stroke-linejoin="round" d="M 2147.371 90.325 Q 2147.351 90.352 2147.306 90.382 Q 2147.261 90.412 2147.725 101.231 Q 2147.756 101.354 2147.421 101.302 "></path>
    <path id="STROKE_435bc9ee-02a7-465d-8eb7-96224e5ab4f3" opacity="1.000" fill="none" stroke="#000000" stroke-width="1.555" stroke-opacity="1.000" stroke-linecap="round" stroke-linejoin="round" d="M 2137.621 88.914 Q 2137.867 88.613 2137.956 88.420 Q 2138.045 88.227 2138.684 87.651 Q 2139.323 87.075 2141.167 86.535 Q 2143.011 85.995 2145.169 85.970 Q 2147.328 85.944 2148.714 86.197 Q 2150.100 86.450 2151.339 87.141 Q 2152.579 87.833 2153.026 88.716 Q 2153.474 89.599 2153.254 90.893 Q 2153.033 92.186 2151.776 93.108 Q 2150.520 94.030 2149.498 94.290 Q 2148.476 94.550 2147.303 94.604 L 2146.360 94.529 "></path>
    <path id="STROKE_706cf08e-e0c9-49c1-a3b1-68394b969d8f" opacity="1.000" fill="none" stroke="#000000" stroke-width="1.555" stroke-opacity="1.000" stroke-linecap="round" stroke-linejoin="round" d="M 2157.972 98.931 Q 2157.910 98.887 2157.652 98.086 Q 2157.393 97.286 2157.169 97.043 Q 2156.945 96.800 2156.686 96.589 Q 2156.426 96.378 2155.739 96.185 Q 2155.052 95.993 2154.088 96.257 Q 2153.124 96.522 2152.596 96.958 Q 2152.068 97.394 2151.918 97.628 Q 2151.769 97.861 2151.742 97.872 Q 2151.715 97.884 2151.624 98.925 Q 2151.533 99.966 2152.382 100.404 Q 2153.231 100.841 2153.687 100.884 Q 2154.142 100.926 2154.671 100.838 Q 2155.201 100.750 2155.471 100.644 Q 2155.741 100.537 2157.221 98.429 Q 2157.121 98.580 2157.245 98.591 Q 2157.364 98.894 2157.396 99.287 Q 2157.428 99.680 2158.713 100.790 Q 2159.997 101.901 2160.499 102.297 "></path>
    <path id="STROKE_8906e61e-88b5-4093-8aa3-a80fea0089bd" opacity="1.000" fill="none" stroke="#000000" stroke-width="1.555" stroke-opacity="1.000" stroke-linecap="round" stroke-linejoin="round" d="M 2160.668 94.979 L 2160.685 95.135 Q 2160.924 96.165 2161.524 97.858 Q 2162.124 99.550 2162.225 98.723 Q 2162.327 97.896 2162.497 97.065 Q 2162.666 96.235 2163.138 95.368 Q 2163.609 94.500 2166.697 92.981 "></path>
    <path id="STROKE_04738c65-e854-496e-b092-d317167add3f" opacity="1.000" fill="none" stroke="#000000" stroke-width="1.555" stroke-opacity="1.000" stroke-linecap="round" stroke-linejoin="round" d="M 2168.687 99.163 Q 2169.320 98.628 2169.552 98.402 Q 2169.784 98.176 2170.256 97.625 Q 2170.727 97.075 2170.869 96.474 Q 2171.011 95.873 2170.761 95.640 Q 2170.511 95.407 2170.046 95.408 Q 2169.581 95.410 2168.899 95.942 Q 2168.218 96.474 2167.915 97.322 Q 2167.613 98.170 2167.621 98.731 Q 2167.629 99.293 2167.855 99.834 Q 2168.080 100.375 2170.000 101.332 Q 2171.920 102.288 2173.721 102.382 Q 2175.521 102.476 2176.632 102.437 "></path>
    <path id="STROKE_acac3fe6-f721-4c69-940f-45ef6e41094b" opacity="1.000" fill="none" stroke="#000000" stroke-width="1.555" stroke-opacity="1.000" stroke-linecap="round" stroke-linejoin="round" d="M 2178.830 85.225 Q 2178.750 85.426 2178.896 90.094 Q 2179.041 94.762 2179.186 97.498 Q 2179.331 100.234 2179.525 101.546 Q 2179.719 102.858 2180.141 103.814 Q 2180.564 104.770 2181.037 105.768 "></path>
    <path id="STROKE_9dae7dc8-914d-4d89-91a0-f254dbc5674a" opacity="1.000" fill="none" stroke="#000000" stroke-width="1.555" stroke-opacity="1.000" stroke-linecap="round" stroke-linejoin="round" d="M 2175.411 97.621 Q 2175.692 97.211 2177.871 96.506 Q 2180.050 95.802 2181.698 95.901 Q 2183.345 96.000 2183.961 96.173 Q 2184.576 96.345 2184.774 96.456 Q 2184.971 96.566 2185.230 96.804 Q 2185.488 97.042 2185.650 97.311 Q 2185.812 97.580 2185.991 98.211 Q 2186.170 98.842 2186.163 99.059 Q 2186.156 99.275 2186.181 99.906 Q 2186.205 100.536 2186.380 101.183 Q 2186.554 101.830 2187.052 102.269 Q 2187.550 102.708 2188.514 102.953 Q 2189.478 103.198 2190.323 102.946 Q 2191.168 102.693 2191.372 102.538 Q 2191.576 102.383 2191.867 101.931 Q 2192.157 101.478 2192.154 100.946 Q 2192.151 100.414 2191.976 100.031 Q 2191.802 99.649 2191.304 99.172 Q 2190.807 98.695 2189.765 98.162 Q 2188.723 97.629 2187.447 97.349 Q 2186.170 97.070 2184.771 96.841 "></path>
    <path id="STROKE_5ad33373-6853-47f3-be26-af51c1f7760b" opacity="1.000" fill="none" stroke="#000000" stroke-width="1.555" stroke-opacity="1.000" stroke-linecap="round" stroke-linejoin="round" d="M 2154.414 113.975 L 2154.650 113.873 Q 2155.015 113.594 2155.037 113.082 Q 2155.059 112.571 2154.934 112.282 Q 2154.809 111.993 2154.336 111.660 Q 2153.864 111.328 2153.275 111.270 Q 2152.687 111.211 2151.980 111.467 Q 2151.273 111.722 2150.471 113.071 Q 2149.669 114.420 2150.044 117.247 Q 2150.419 120.075 2150.863 122.188 Q 2151.307 124.302 2151.075 126.124 L 2150.800 126.795 "></path>
    <path id="STROKE_325110ec-7366-47e6-a38b-d377c0e338f2" opacity="1.000" fill="none" stroke="#000000" stroke-width="1.555" stroke-opacity="1.000" stroke-linecap="round" stroke-linejoin="round" d="M 2146.054 120.709 Q 2146.274 120.585 2146.741 120.428 Q 2147.209 120.272 2147.288 120.288 Q 2147.367 120.304 2147.625 120.193 Q 2147.884 120.082 2151.752 119.974 Q 2155.620 119.866 2156.080 119.907 "></path>
    <path id="STROKE_ee49ad2c-7dd9-440b-9ea4-3917a0020a0f" opacity="1.000" fill="none" stroke="#000000" stroke-width="1.555" stroke-opacity="1.000" stroke-linecap="round" stroke-linejoin="round" d="M 2158.690 119.660 L 2158.599 119.672 Q 2158.475 119.721 2159.635 123.757 Q 2159.573 123.641 2159.197 122.773 Q 2158.820 121.906 2158.902 121.156 Q 2158.984 120.405 2159.129 120.144 Q 2159.274 119.883 2159.528 119.691 Q 2159.782 119.498 2161.039 119.233 Q 2162.295 118.968 2163.990 119.426 Q 2165.684 119.883 2166.226 120.462 Q 2166.767 121.040 2166.829 121.180 Q 2166.890 121.319 2167.285 122.031 Q 2167.679 122.744 2167.828 123.092 Q 2167.977 123.441 2168.339 123.801 Q 2168.702 124.162 2169.247 124.459 Q 2169.792 124.756 2170.669 124.951 Q 2171.546 125.145 2172.177 125.069 Q 2172.808 124.993 2173.049 124.820 Q 2173.289 124.647 2173.369 124.339 Q 2173.448 124.031 2173.340 123.663 Q 2173.231 123.296 2173.045 123.100 Q 2172.858 122.904 2171.903 122.337 Q 2170.948 121.770 2169.878 121.520 Q 2168.808 121.270 2167.980 121.197 Q 2167.151 121.125 2166.804 121.232 Q 2166.457 121.340 2165.443 121.588 "></path>
    <path id="STROKE_441e6598-ddce-4907-9749-fa9f3cf2ea5e" opacity="1.000" fill="none" stroke="#000000" stroke-width="1.555" stroke-opacity="1.000" stroke-linecap="round" stroke-linejoin="round" d="M 2177.186 119.691 Q 2177.183 120.477 2177.214 124.040 Q 2177.310 123.978 2177.542 123.307 Q 2177.775 122.637 2178.202 121.783 Q 2178.628 120.930 2178.937 120.581 Q 2179.246 120.233 2179.495 120.100 Q 2179.744 119.967 2179.933 120.024 Q 2180.122 120.081 2180.354 120.302 Q 2180.587 120.523 2180.919 121.082 Q 2181.251 121.641 2182.394 123.250 Q 2183.537 124.859 2184.042 125.568 "></path>
    <path id="STROKE_1c4c48a4-74c8-44e9-b796-d5011a6d4ea2" opacity="1.000" fill="none" stroke="#000000" stroke-width="1.555" stroke-opacity="1.000" stroke-linecap="round" stroke-linejoin="round" d="M 2187.441 113.693 L 2187.151 113.649 Q 2187.172 113.775 2187.074 116.014 Q 2186.976 118.253 2187.193 119.880 Q 2187.410 121.506 2187.727 122.450 Q 2188.043 123.395 2188.657 124.263 Q 2189.271 125.131 2189.921 125.617 Q 2190.571 126.104 2191.581 126.248 Q 2192.590 126.392 2193.086 126.410 "></path>
    <path id="STROKE_e51d97b4-b208-4e46-8f7e-d743a7e1e3fe" opacity="1.000" fill="none" stroke="#000000" stroke-width="1.555" stroke-opacity="1.000" stroke-linecap="round" stroke-linejoin="round" d="M 2183.050 119.411 Q 2183.195 119.415 2183.511 118.976 Q 2183.827 118.536 2185.744 118.232 Q 2187.662 117.928 2189.494 118.245 Q 2191.326 118.561 2192.150 119.004 Q 2192.975 119.447 2193.725 120.248 Q 2194.475 121.050 2194.850 122.222 Q 2195.224 123.394 2195.370 124.303 Q 2195.516 125.211 2195.787 126.177 "></path>
    <path id="STROKE_b8c0057e-72b3-44f1-9f63-14fb44b96b6a" opacity="1.000" fill="none" stroke="#000000" stroke-width="1.555" stroke-opacity="1.000" stroke-linecap="round" stroke-linejoin="round" d="M 2195.092 115.891 L 2195.322 114.837 Q 2195.385 114.814 2195.818 114.613 "></path>
    <path id="STROKE_d38d8e50-fb76-474c-a9d6-b4f8f78a88c7" opacity="1.000" fill="none" stroke="#000000" stroke-width="1.563" stroke-opacity="1.000" stroke-linecap="round" stroke-linejoin="round" d="M 2197.472 122.143 Q 2197.564 122.017 2198.289 121.633 Q 2199.014 121.249 2199.905 120.808 Q 2200.795 120.367 2201.078 120.185 Q 2201.360 120.004 2201.502 119.861 Q 2201.643 119.719 2201.781 119.455 Q 2201.918 119.191 2201.915 119.090 Q 2201.911 118.990 2201.906 118.782 Q 2201.900 118.574 2201.812 118.431 Q 2201.724 118.288 2201.157 118.029 Q 2200.590 117.769 2199.632 118.001 Q 2198.673 118.233 2198.074 118.862 Q 2197.476 119.491 2197.298 120.236 Q 2197.119 120.982 2197.297 121.653 Q 2197.475 122.324 2198.938 123.359 Q 2200.400 124.395 2202.031 124.723 Q 2203.662 125.052 2204.986 124.917 Q 2206.310 124.782 2207.180 124.131 Q 2208.051 123.479 2209.278 119.943 Q 2209.353 119.464 2210.457 124.251 Q 2210.468 124.155 2210.185 123.400 Q 2209.902 122.645 2210.005 121.544 Q 2210.108 120.444 2210.465 119.582 Q 2210.822 118.720 2212.515 117.730 Q 2214.209 116.740 2217.041 116.500 Q 2219.872 116.259 2221.215 116.237 "></path>
    <path id="STROKE_2773ffb9-62cd-4476-9680-cf9333b9b475" opacity="1.000" fill="none" stroke="#000000" stroke-width="1.555" stroke-opacity="1.000" stroke-linecap="round" stroke-linejoin="round" d="M 1796.564 120.858 Q 1796.533 120.963 1796.299 121.056 Q 1796.182 121.107 1796.135 123.056 Q 1796.087 125.006 1796.176 126.027 Q 1796.264 127.048 1796.483 127.946 Q 1796.701 128.843 1796.894 129.193 Q 1796.965 129.098 1796.879 127.900 Q 1796.792 126.703 1797.030 125.108 Q 1797.267 123.512 1797.802 122.515 Q 1798.336 121.517 1799.210 120.896 Q 1800.085 120.275 1800.714 120.131 Q 1801.343 119.987 1801.931 120.028 Q 1802.520 120.070 1802.848 120.203 Q 1803.176 120.337 1803.687 120.821 Q 1804.198 121.304 1804.692 123.853 Q 1805.185 126.402 1805.228 129.094 Q 1805.110 129.196 1805.234 129.086 Q 1805.359 128.975 1805.550 128.920 "></path>
    <path id="STROKE_06a7ab96-d315-4c4b-b43f-3a6e75266550" opacity="1.000" fill="none" stroke="#000000" stroke-width="1.555" stroke-opacity="1.000" stroke-linecap="round" stroke-linejoin="round" d="M 1812.738 122.395 Q 1812.603 122.147 1812.515 122.030 Q 1812.426 121.914 1812.336 121.825 Q 1812.246 121.737 1811.836 121.658 Q 1811.427 121.578 1811.313 121.575 Q 1811.199 121.572 1810.629 121.778 Q 1810.058 121.984 1809.133 123.047 Q 1808.208 124.110 1807.952 125.279 Q 1807.696 126.448 1807.844 127.045 Q 1807.994 127.642 1808.129 127.866 Q 1808.264 128.090 1808.776 128.529 Q 1809.287 128.969 1809.998 129.235 Q 1810.708 129.501 1811.331 129.614 Q 1811.954 129.727 1813.166 129.684 Q 1814.377 129.641 1814.957 129.504 Q 1815.537 129.367 1816.375 128.907 Q 1817.214 128.446 1817.689 127.939 Q 1818.164 127.431 1818.397 126.659 Q 1818.630 125.888 1818.486 125.229 Q 1818.342 124.571 1818.146 124.275 Q 1817.949 123.979 1817.599 123.548 Q 1817.249 123.117 1816.033 122.502 Q 1814.818 121.888 1813.718 121.707 Q 1812.618 121.526 1812.070 121.566 Q 1811.522 121.606 1810.417 121.734 "></path>
    <path id="STROKE_a91046f8-a3a5-4550-b603-dcb280ebe62f" opacity="1.000" fill="none" stroke="#000000" stroke-width="1.555" stroke-opacity="1.000" stroke-linecap="round" stroke-linejoin="round" d="M 1821.535 111.436 Q 1821.538 111.423 1821.560 111.423 Q 1821.654 111.525 1820.973 114.797 Q 1820.292 118.069 1820.130 120.592 Q 1819.968 123.114 1820.223 124.592 Q 1820.478 126.069 1821.047 126.913 Q 1821.616 127.757 1822.004 128.048 Q 1822.392 128.339 1822.716 128.505 Q 1823.039 128.671 1823.386 128.762 Q 1823.734 128.853 1824.645 129.021 Q 1825.555 129.190 1828.326 128.464 L 1829.312 128.038 "></path>
    <path id="STROKE_432439a4-fbab-4116-b80b-19fd4dc6894d" opacity="1.000" fill="none" stroke="#000000" stroke-width="1.555" stroke-opacity="1.000" stroke-linecap="round" stroke-linejoin="round" d="M 1815.741 119.179 Q 1815.744 119.089 1815.925 118.654 Q 1816.106 118.219 1820.954 118.576 Q 1825.803 118.933 1826.935 119.133 "></path>
    <path id="STROKE_db21bf6e-d6a0-40f9-98b8-227c0fca08fe" opacity="1.000" fill="none" stroke="#000000" stroke-width="1.555" stroke-opacity="1.000" stroke-linecap="round" stroke-linejoin="round" d="M 1813.322 148.220 L 1813.102 147.547 Q 1812.733 146.623 1812.310 145.941 Q 1811.888 145.258 1811.338 144.779 Q 1810.789 144.299 1810.299 144.131 Q 1809.809 143.962 1809.039 143.959 Q 1808.268 143.957 1807.911 144.086 Q 1807.554 144.216 1806.625 144.805 Q 1805.697 145.394 1804.993 146.572 Q 1804.289 147.750 1804.229 148.859 Q 1804.169 149.968 1804.304 150.480 Q 1804.440 150.992 1804.776 151.436 Q 1805.111 151.879 1805.848 152.131 Q 1806.586 152.382 1806.909 152.343 Q 1807.232 152.305 1807.804 151.909 Q 1808.376 151.513 1810.077 147.874 Q 1810.112 147.849 1810.254 148.513 Q 1810.396 149.177 1810.788 150.191 Q 1811.180 151.206 1813.143 153.271 "></path>
    <path id="STROKE_09d43239-5cac-4b03-a242-370c7fe4315e" opacity="1.000" fill="none" stroke="#000000" stroke-width="1.555" stroke-opacity="1.000" stroke-linecap="round" stroke-linejoin="round" d="M 1818.292 146.231 Q 1817.737 145.985 1817.019 145.996 Q 1816.803 146.078 1816.349 147.233 Q 1815.896 148.388 1815.942 149.317 Q 1815.988 150.245 1816.402 150.910 Q 1816.816 151.575 1817.268 151.896 Q 1817.720 152.217 1818.803 152.555 Q 1819.887 152.892 1821.907 152.622 Q 1823.928 152.352 1824.906 152.088 "></path>
    <path id="STROKE_506e761c-c4c2-48bc-8e16-f733c57bc332" opacity="1.000" fill="none" stroke="#000000" stroke-width="1.555" stroke-opacity="1.000" stroke-linecap="round" stroke-linejoin="round" d="M 1824.321 139.993 L 1824.258 139.690 Q 1824.294 139.590 1824.313 142.193 Q 1824.332 144.797 1824.585 146.895 Q 1824.838 148.993 1825.130 149.742 Q 1825.423 150.491 1825.731 150.735 Q 1826.039 150.979 1826.323 150.853 Q 1826.607 150.726 1826.779 150.490 Q 1826.951 150.254 1827.026 150.159 Q 1827.102 150.064 1827.468 149.298 Q 1827.833 148.532 1829.840 145.873 Q 1829.994 145.750 1830.219 146.614 Q 1830.444 147.477 1830.751 148.550 Q 1831.058 149.623 1831.533 150.327 Q 1832.007 151.032 1832.434 151.393 Q 1832.860 151.754 1833.193 151.934 Q 1833.526 152.113 1835.259 152.749 "></path>
    <path id="STROKE_09c361fd-ec70-453d-b76b-9d5fa9a553b2" opacity="1.000" fill="none" stroke="#000000" stroke-width="1.555" stroke-opacity="1.000" stroke-linecap="round" stroke-linejoin="round" d="M 1836.570 144.326 L 1836.532 144.457 Q 1836.392 144.819 1836.323 146.496 Q 1836.253 148.173 1836.602 149.335 Q 1836.951 150.497 1837.482 151.234 Q 1838.013 151.971 1838.534 152.165 Q 1839.056 152.359 1839.874 152.675 "></path>
    <path id="STROKE_8d1728af-6b98-4e45-a14e-69e45335df69" opacity="1.000" fill="none" stroke="#000000" stroke-width="1.555" stroke-opacity="1.000" stroke-linecap="round" stroke-linejoin="round" d="M 1836.438 139.934 Q 1836.437 139.917 1836.510 139.213 Q 1836.604 139.001 1837.641 139.693 "></path>
    <path id="STROKE_02e44685-8096-4e00-ba9d-62bd07a2177e" opacity="1.000" fill="none" stroke="#000000" stroke-width="1.555" stroke-opacity="1.000" stroke-linecap="round" stroke-linejoin="round" d="M 1840.901 146.736 Q 1841.024 146.725 1841.744 146.388 Q 1842.465 146.051 1842.948 145.762 Q 1843.432 145.473 1843.712 145.039 Q 1843.992 144.605 1844.053 144.086 Q 1844.115 143.567 1843.989 143.203 Q 1843.863 142.839 1843.594 142.677 Q 1843.326 142.516 1843.060 142.489 Q 1842.795 142.462 1842.480 142.529 Q 1842.165 142.595 1841.678 142.918 Q 1841.192 143.240 1840.669 144.051 Q 1840.147 144.862 1840.097 145.764 Q 1840.046 146.667 1840.293 147.139 Q 1840.540 147.611 1840.750 147.874 Q 1840.959 148.138 1842.232 148.678 Q 1843.504 149.219 1845.053 149.193 Q 1846.602 149.167 1847.364 148.814 Q 1848.125 148.460 1848.892 147.171 Q 1849.659 145.881 1849.728 144.241 Q 1849.715 144.358 1850.497 145.791 Q 1851.280 147.223 1852.002 148.233 Q 1852.724 149.243 1853.222 149.734 Q 1853.720 150.225 1854.877 150.428 Q 1855.166 150.590 1855.715 148.842 Q 1856.264 147.094 1856.493 146.028 Q 1856.723 144.962 1856.980 144.350 Q 1857.236 143.737 1858.255 142.293 "></path>
    <path id="STROKE_1ceb53ad-8e6f-48d8-9a43-9ccd7d0778eb" opacity="1.000" fill="none" stroke="#000000" stroke-width="1.555" stroke-opacity="1.000" stroke-linecap="round" stroke-linejoin="round" d="M 1865.112 144.271 Q 1865.089 144.281 1864.723 144.119 Q 1864.356 143.957 1863.910 143.930 Q 1863.465 143.902 1862.481 144.610 Q 1861.497 145.317 1860.909 146.718 Q 1860.320 148.120 1860.386 149.253 Q 1860.453 150.386 1860.953 150.924 Q 1861.454 151.461 1862.149 151.607 Q 1862.844 151.753 1863.549 151.431 Q 1864.254 151.110 1865.317 147.008 Q 1865.264 147.033 1865.314 147.682 Q 1865.365 148.331 1865.960 149.438 Q 1866.555 150.545 1869.561 152.761 "></path>
    <path id="STROKE_d4cc5f74-ceb8-4e55-9fc3-a5333bb79e4d" opacity="1.000" fill="none" stroke="#000000" stroke-width="1.569" stroke-opacity="1.000" stroke-linecap="round" stroke-linejoin="round" d="M 1869.987 135.588 L 1869.984 135.735 Q 1870.280 136.157 1870.915 140.264 Q 1871.551 144.370 1872.351 150.313 Q 1872.436 150.190 1872.650 149.506 Q 1872.864 148.821 1873.289 148.070 Q 1873.714 147.320 1874.332 146.905 Q 1874.951 146.491 1875.443 146.350 Q 1875.936 146.209 1876.836 146.212 Q 1877.736 146.215 1878.540 146.615 Q 1879.344 147.014 1879.604 147.321 Q 1879.864 147.628 1880.081 148.135 Q 1880.297 148.641 1880.167 149.257 Q 1880.038 149.873 1878.746 150.536 Q 1877.455 151.198 1875.021 150.768 Q 1874.952 150.745 1874.943 150.608 Q 1874.934 150.471 1875.015 150.258 Q 1875.096 150.045 1875.246 149.918 Q 1875.395 149.792 1876.135 149.049 "></path>
    <path id="STROKE_88553b79-e162-48b8-9974-01ef53dc1b1c" opacity="1.000" fill="none" stroke="#000000" stroke-width="1.555" stroke-opacity="1.000" stroke-linecap="round" stroke-linejoin="round" d="M 1884.073 133.728 L 1884.088 133.795 Q 1884.122 133.854 1884.215 137.600 Q 1884.307 141.345 1884.671 144.541 Q 1885.035 147.737 1885.962 149.226 Q 1886.888 150.714 1887.675 151.622 "></path>
    <path id="STROKE_e6d3bf6d-2873-4f2b-892e-04fdb9adce2d" opacity="1.000" fill="none" stroke="#000000" stroke-width="1.575" stroke-opacity="1.000" stroke-linecap="round" stroke-linejoin="round" d="M 1891.471 149.058 Q 1892.121 148.682 1892.566 148.374 Q 1893.010 148.065 1893.321 147.769 Q 1893.631 147.474 1893.746 147.325 Q 1893.861 147.176 1893.940 147.109 Q 1894.019 147.041 1894.186 146.519 Q 1894.353 145.997 1894.362 145.698 Q 1894.370 145.399 1894.187 144.887 Q 1894.004 144.376 1893.901 144.239 Q 1893.797 144.103 1893.425 143.876 Q 1893.053 143.648 1892.523 143.698 Q 1891.994 143.747 1891.429 144.297 Q 1890.864 144.846 1890.529 145.776 Q 1890.195 146.706 1890.429 147.604 Q 1890.664 148.501 1891.906 149.456 Q 1893.147 150.411 1896.229 151.080 Q 1899.311 151.749 1901.067 151.774 Q 1902.822 151.799 1904.095 151.761 "></path>
    <path id="STROKE_76b14981-11d5-44b4-b041-88163e34f62b" opacity="1.000" fill="none" stroke="#000000" stroke-width="1.555" stroke-opacity="1.000" stroke-linecap="round" stroke-linejoin="round" d="M 1938.584 25.974 L 1938.729 25.541 Q 1938.903 24.079 1938.755 23.335 Q 1938.607 22.592 1938.385 22.247 Q 1938.163 21.902 1937.911 21.659 Q 1937.660 21.415 1937.644 21.404 Q 1937.627 21.394 1936.902 21.148 Q 1936.177 20.902 1935.528 20.957 Q 1934.878 21.012 1933.597 21.812 Q 1932.316 22.612 1931.610 23.957 Q 1930.905 25.301 1930.855 26.048 Q 1930.806 26.794 1930.896 27.370 Q 1930.987 27.945 1931.729 28.679 Q 1932.470 29.413 1933.684 29.654 Q 1934.898 29.895 1935.982 29.531 Q 1937.066 29.166 1937.869 28.117 Q 1938.672 27.068 1939.090 23.479 Q 1938.768 23.455 1938.923 25.335 Q 1939.078 27.215 1940.137 28.194 Q 1941.196 29.174 1941.812 29.660 "></path>
    <path id="STROKE_a4f48c99-bc07-4636-953d-cc2ffc4475d7" opacity="1.000" fill="none" stroke="#000000" stroke-width="1.555" stroke-opacity="1.000" stroke-linecap="round" stroke-linejoin="round" d="M 1948.763 20.847 Q 1948.298 20.480 1948.160 20.403 Q 1948.022 20.327 1947.436 20.278 Q 1946.849 20.229 1946.664 20.252 Q 1946.478 20.274 1945.830 20.701 Q 1945.182 21.127 1944.717 22.158 Q 1944.252 23.189 1944.268 24.134 Q 1944.284 25.079 1944.868 25.952 Q 1945.451 26.826 1947.277 27.628 Q 1949.102 28.430 1952.323 28.819 "></path>
    <path id="STROKE_7e1d653f-b1e9-4a04-8e74-9308cd07993d" opacity="1.000" fill="none" stroke="#000000" stroke-width="1.555" stroke-opacity="1.000" stroke-linecap="round" stroke-linejoin="round" d="M 1951.272 11.072 L 1951.105 11.298 Q 1951.036 12.054 1951.529 16.222 Q 1952.021 20.390 1952.734 23.062 Q 1953.448 25.733 1954.054 26.862 Q 1954.661 27.992 1955.824 28.450 Q 1956.219 28.698 1957.620 23.130 Q 1957.683 22.972 1957.785 23.932 Q 1957.887 24.892 1958.206 25.912 Q 1958.524 26.932 1959.174 27.778 Q 1959.824 28.625 1960.535 29.095 Q 1961.246 29.565 1963.133 30.222 "></path>
    <path id="STROKE_b05a176b-7421-4b15-bd06-5fc5577edacd" opacity="1.000" fill="none" stroke="#000000" stroke-width="1.555" stroke-opacity="1.000" stroke-linecap="round" stroke-linejoin="round" d="M 1964.358 23.814 L 1964.355 23.948 Q 1964.316 24.004 1964.306 25.254 Q 1964.296 26.505 1964.498 27.637 Q 1964.701 28.769 1965.358 29.689 Q 1966.015 30.609 1966.412 31.154 "></path>
    <path id="STROKE_4f277dd0-ef26-4e7b-830f-2b9d2ff42cc6" opacity="1.000" fill="none" stroke="#000000" stroke-width="1.555" stroke-opacity="1.000" stroke-linecap="round" stroke-linejoin="round" d="M 1965.286 20.661 Q 1965.283 20.592 1965.224 20.372 Q 1965.165 20.152 1965.561 21.011 "></path>
    <path id="STROKE_cc7c72ec-0da8-46b8-b7e7-57fbf6450826" opacity="1.000" fill="none" stroke="#000000" stroke-width="1.555" stroke-opacity="1.000" stroke-linecap="round" stroke-linejoin="round" d="M 1968.355 27.946 Q 1968.511 27.885 1969.026 27.542 Q 1969.541 27.200 1970.496 26.315 Q 1971.451 25.430 1971.815 24.971 Q 1972.178 24.513 1972.344 23.816 Q 1972.509 23.119 1972.283 22.751 Q 1972.057 22.383 1971.334 22.403 Q 1970.611 22.423 1970.040 22.913 Q 1969.468 23.403 1969.164 24.166 Q 1968.859 24.929 1968.976 25.741 Q 1969.093 26.552 1969.799 27.222 Q 1970.505 27.891 1971.988 28.308 Q 1973.470 28.725 1974.498 28.579 Q 1975.527 28.434 1975.950 28.106 Q 1976.373 27.779 1976.491 27.621 Q 1976.609 27.462 1976.851 26.995 Q 1977.092 26.528 1977.346 25.526 Q 1977.601 24.524 1977.734 22.688 Q 1977.851 22.787 1978.689 24.296 Q 1979.527 25.805 1980.399 26.932 Q 1981.271 28.060 1981.822 28.459 Q 1982.372 28.859 1982.440 28.851 Q 1982.507 28.844 1982.586 28.883 Q 1982.665 28.923 1982.948 28.671 Q 1983.232 28.419 1983.669 26.372 Q 1984.106 24.324 1984.166 24.027 Q 1984.225 23.730 1984.351 23.537 Q 1984.477 23.344 1985.314 22.288 "></path>
    <path id="STROKE_edafe258-d527-48e3-8469-757af82400d0" opacity="1.000" fill="none" stroke="#000000" stroke-width="1.555" stroke-opacity="1.000" stroke-linecap="round" stroke-linejoin="round" d="M 1992.132 24.071 Q 1992.016 24.097 1991.229 24.479 Q 1990.441 24.861 1989.821 25.477 Q 1989.200 26.094 1989.035 26.330 Q 1988.870 26.566 1988.830 26.656 Q 1988.791 26.746 1988.604 27.165 Q 1988.417 27.584 1988.392 28.046 Q 1988.367 28.508 1988.480 28.837 Q 1988.593 29.166 1988.833 29.298 Q 1989.074 29.431 1989.353 29.422 Q 1989.633 29.413 1989.643 29.441 Q 1989.654 29.468 1990.254 28.929 Q 1990.854 28.390 1992.102 26.140 Q 1992.344 26.440 1993.126 27.367 Q 1993.908 28.294 1996.462 30.381 "></path>
    <path id="STROKE_f0ef8486-bbc2-4774-9e53-2b973cf79a19" opacity="1.000" fill="none" stroke="#000000" stroke-width="1.555" stroke-opacity="1.000" stroke-linecap="round" stroke-linejoin="round" d="M 1996.098 15.016 Q 1996.128 14.860 1996.262 13.824 Q 1996.323 13.859 1996.939 17.184 Q 1997.554 20.508 1997.993 22.892 Q 1998.431 25.277 1998.920 26.627 Q 1999.408 27.978 2000.757 29.161 Q 2000.947 29.019 2001.363 27.850 Q 2001.780 26.681 2002.093 25.967 Q 2002.406 25.252 2002.750 24.816 Q 2003.094 24.379 2003.959 24.104 Q 2004.825 23.828 2005.438 23.979 Q 2006.052 24.129 2007.014 25.178 Q 2007.977 26.227 2008.079 27.956 Q 2008.181 29.685 2007.088 29.946 Q 2005.995 30.207 2005.263 29.936 Q 2004.532 29.666 2004.092 29.255 Q 2003.652 28.845 2003.545 28.389 Q 2003.439 27.932 2003.380 27.644 "></path>
    <path id="STROKE_00ad7ce3-cdb4-4f76-a79f-16ec8e0d3f71" opacity="1.000" fill="none" stroke="#000000" stroke-width="1.555" stroke-opacity="1.000" stroke-linecap="round" stroke-linejoin="round" d="M 2011.966 11.961 L 2011.877 12.045 Q 2011.875 12.509 2012.341 16.349 Q 2012.806 20.190 2013.575 22.872 Q 2014.343 25.554 2015.250 27.229 Q 2016.157 28.904 2018.210 30.822 "></path>
    <path id="STROKE_01930664-5079-463d-b883-658fc038c484" opacity="1.000" fill="none" stroke="#000000" stroke-width="1.555" stroke-opacity="1.000" stroke-linecap="round" stroke-linejoin="round" d="M 2019.456 26.818 Q 2019.823 26.704 2021.038 26.160 Q 2022.254 25.616 2022.668 24.722 Q 2023.082 23.828 2023.075 23.440 Q 2023.069 23.053 2022.936 22.610 Q 2022.803 22.167 2021.976 21.743 Q 2021.148 21.318 2020.389 21.447 Q 2019.630 21.576 2018.951 22.259 Q 2018.272 22.942 2018.110 23.829 Q 2017.948 24.716 2018.054 25.384 Q 2018.161 26.052 2019.201 27.277 Q 2020.241 28.502 2022.945 29.418 Q 2025.648 30.335 2027.104 30.401 Q 2028.559 30.468 2029.657 30.456 "></path>
  </g>
</svg>