<?xml version="1.0" encoding="UTF-8" standalone="yes"?>
<svg xmlns="http://www.w3.org/2000/svg" xmlns:xlink="http://www.w3.org/1999/xlink" width="795.172pt" height="763.954pt" version="1.1" viewBox="-506.629 1083.713 795.172 763.954">
  <!--
	Exported with Concepts: Smarter Sketching
	Version: 1055 on iOS 15.2
	https://concepts.app/
	-->
  <title>Untitled</title>
  <desc>Drawing exported from Concepts: Smarter Sketching</desc>
  <defs></defs>
  <g id="Pen" opacity="1.000">
    <path id="STROKE_05c99220-99b8-48df-bcf0-fc43066095c2" opacity="1.000" fill="none" stroke="#bb3e45" stroke-width="24.657" stroke-opacity="1.000" stroke-linecap="round" stroke-linejoin="round" d="M -94.218 1443.846 Q -94.897 1445.172 -94.748 1444.752 Q -95.372 1444.665 -96.106 1448.176 Q -94.721 1448.612 -93.483 1448.501 Q -92.245 1448.390 -91.363 1447.795 Q -90.480 1447.201 -90.636 1447.214 Q -90.791 1447.227 -90.783 1447.273 Q -90.775 1447.320 -90.679 1447.023 Q -90.584 1446.727 -90.707 1445.379 Q -90.830 1444.031 -91.466 1443.908 Q -92.102 1443.785 -92.942 1443.640 Q -93.782 1443.495 -94.310 1444.047 Q -94.837 1444.598 -95.258 1445.038 Q -95.680 1445.478 -95.470 1448.841 Q -95.450 1448.970 -95.326 1448.957 Q -95.201 1448.944 -95.164 1448.955 Q -95.127 1448.965 -94.533 1449.077 Q -93.940 1449.188 -92.585 1448.487 Q -92.585 1448.346 -92.542 1448.147 Q -92.500 1447.949 -92.415 1447.638 "></path>
    <path id="STROKE_500b9377-6db1-41c7-8b37-d3c64f816beb" opacity="1.000" fill="none" stroke="#3c1416" stroke-width="24.657" stroke-opacity="1.000" stroke-linecap="round" stroke-linejoin="round" d="M -263.880 1472.615 Q -263.880 1471.832 -263.880 1471.767 Q -263.880 1471.702 -263.880 1471.778 Q -263.880 1471.854 -263.880 1471.609 Q -263.880 1471.365 -263.880 1468.753 Q -267.342 1470.457 -268.691 1477.367 Q -268.557 1477.421 -267.288 1477.585 Q -266.018 1477.749 -264.051 1476.534 Q -262.084 1475.319 -262.111 1474.465 Q -262.138 1473.610 -262.119 1473.766 Q -262.100 1473.923 -262.132 1472.732 Q -262.164 1471.541 -263.820 1471.341 Q -265.476 1471.141 -267.598 1473.997 Q -267.215 1474.245 -266.755 1474.412 Q -266.294 1474.579 -265.953 1474.799 Q -265.611 1475.020 -265.185 1475.379 "></path>
    <path id="STROKE_87195594-95e9-48d7-b30a-79f7e759fb9a" opacity="1.000" fill="none" stroke="#3c1416" stroke-width="6.033" stroke-opacity="1.000" stroke-linecap="round" stroke-linejoin="round" d="M -167.397 1261.775 Q -168.422 1261.599 -173.263 1259.316 Q -178.103 1257.033 -188.961 1253.551 Q -199.818 1250.070 -208.106 1248.199 Q -216.394 1246.329 -224.312 1244.982 Q -232.230 1243.635 -243.355 1242.735 Q -254.480 1241.835 -265.625 1242.000 Q -276.770 1242.164 -288.289 1243.473 Q -299.809 1244.781 -310.175 1247.080 Q -320.541 1249.379 -326.513 1251.228 Q -332.484 1253.077 -336.736 1254.455 Q -340.987 1255.833 -350.823 1259.696 Q -360.658 1263.558 -371.309 1269.387 Q -381.961 1275.216 -389.471 1280.181 Q -396.982 1285.147 -400.937 1288.340 Q -404.892 1291.533 -408.128 1293.813 Q -411.364 1296.093 -420.671 1304.875 Q -429.978 1313.657 -436.984 1321.369 Q -443.990 1329.081 -451.673 1340.184 Q -459.356 1351.286 -462.902 1357.508 Q -466.449 1363.730 -468.648 1368.181 Q -470.848 1372.633 -472.830 1376.532 Q -474.813 1380.432 -478.780 1390.455 Q -482.748 1400.478 -485.352 1409.878 Q -487.955 1419.278 -488.890 1423.797 Q -489.824 1428.317 -491.467 1436.961 Q -493.109 1445.605 -494.245 1460.231 Q -495.380 1474.857 -494.294 1489.351 Q -493.208 1503.845 -491.741 1512.115 Q -490.273 1520.385 -489.279 1525.163 Q -488.285 1529.941 -485.776 1538.822 Q -483.267 1547.702 -480.259 1556.002 Q -477.251 1564.303 -472.713 1573.932 Q -468.175 1583.561 -464.585 1589.879 Q -460.996 1596.197 -457.139 1602.002 Q -453.283 1607.808 -451.262 1610.859 Q -449.241 1613.911 -444.670 1619.397 Q -440.100 1624.884 -436.467 1629.349 Q -432.834 1633.815 -424.746 1641.636 Q -416.657 1649.458 -411.778 1653.374 Q -406.899 1657.291 -402.460 1660.774 Q -398.020 1664.257 -387.986 1671.061 Q -377.953 1677.865 -364.495 1684.310 Q -351.037 1690.755 -342.931 1693.619 Q -334.826 1696.482 -328.299 1698.642 Q -321.773 1700.801 -311.035 1702.877 Q -300.296 1704.952 -295.040 1705.923 Q -289.784 1706.893 -276.829 1707.780 Q -263.873 1708.666 -253.693 1708.263 Q -243.512 1707.859 -236.770 1706.972 Q -230.029 1706.085 -225.589 1705.659 Q -221.148 1705.233 -211.278 1702.864 Q -201.409 1700.495 -196.345 1699.047 Q -191.281 1697.599 -186.985 1696.055 Q -182.689 1694.510 -179.486 1693.460 Q -176.283 1692.410 -168.891 1689.167 Q -161.500 1685.924 -157.016 1683.576 Q -152.532 1681.227 -149.645 1679.689 Q -146.759 1678.151 -140.705 1674.595 Q -134.651 1671.038 -126.923 1665.506 Q -119.195 1659.974 -113.156 1655.045 Q -107.117 1650.116 -101.023 1644.360 Q -94.928 1638.604 -89.406 1632.449 Q -83.884 1626.295 -80.386 1622.006 Q -76.889 1617.717 -72.990 1612.245 Q -69.091 1606.774 -66.120 1602.412 Q -63.149 1598.050 -58.243 1589.428 Q -53.337 1580.806 -49.705 1572.558 Q -46.072 1564.310 -44.273 1559.766 Q -42.474 1555.221 -39.793 1547.201 Q -37.113 1539.180 -34.659 1529.205 Q -32.205 1519.231 -30.774 1507.786 Q -29.343 1496.341 -28.754 1490.174 Q -28.166 1484.008 -28.448 1471.754 Q -28.730 1459.500 -29.473 1451.998 Q -30.216 1444.495 -31.821 1434.781 Q -33.426 1425.066 -36.144 1415.303 Q -38.861 1405.540 -40.503 1400.582 Q -42.146 1395.624 -44.306 1390.228 Q -46.467 1384.831 -47.782 1381.862 Q -49.098 1378.894 -49.889 1377.256 Q -50.680 1375.619 -51.898 1372.990 Q -53.115 1370.361 -56.067 1365.078 Q -59.020 1359.795 -62.404 1353.524 Q -65.789 1347.252 -73.984 1336.533 Q -82.179 1325.814 -86.908 1320.520 Q -91.636 1315.225 -96.482 1310.427 Q -101.329 1305.628 -103.732 1303.480 Q -106.136 1301.333 -111.494 1296.699 Q -116.852 1292.066 -125.919 1285.412 Q -134.985 1278.758 -145.472 1272.819 Q -155.958 1266.880 -163.454 1263.574 Q -170.949 1260.268 -175.546 1258.479 Q -180.142 1256.690 -187.023 1254.178 Q -193.903 1251.667 -206.491 1248.551 Q -219.078 1245.435 -229.799 1244.185 Q -240.520 1242.935 -246.084 1242.432 Q -251.647 1241.929 -262.933 1241.969 Q -274.218 1242.010 -282.936 1242.961 Q -291.653 1243.913 -295.489 1244.565 Q -299.325 1245.216 -307.975 1246.597 Q -316.626 1247.978 -330.279 1252.410 Q -343.931 1256.843 -352.520 1260.379 Q -361.110 1263.916 -371.147 1269.376 Q -381.185 1274.837 -386.474 1278.234 Q -391.762 1281.631 -397.495 1285.853 Q -403.227 1290.074 -409.527 1294.921 Q -415.826 1299.767 -425.322 1309.179 Q -434.817 1318.591 -440.584 1325.708 Q -446.351 1332.826 -449.122 1336.627 Q -451.893 1340.427 -454.153 1343.777 Q -456.413 1347.127 -458.517 1350.265 Q -460.621 1353.403 -464.553 1360.453 Q -468.486 1367.504 -470.567 1371.827 Q -472.647 1376.151 -474.127 1379.111 Q -475.606 1382.071 -483.070 1402.361 "></path>
    <path id="STROKE_220f9f66-9de1-4f5d-8532-5c186954b102" opacity="1.000" fill="none" stroke="#3c1416" stroke-width="6.033" stroke-opacity="1.000" stroke-linecap="round" stroke-linejoin="round" d="M -167.397 1261.775 Q -168.422 1261.599 -173.263 1259.316 Q -178.103 1257.033 -188.961 1253.551 Q -199.818 1250.070 -208.106 1248.199 Q -216.394 1246.329 -224.312 1244.982 Q -232.230 1243.635 -243.355 1242.735 Q -254.480 1241.835 -265.625 1242.000 Q -276.770 1242.164 -288.289 1243.473 Q -299.809 1244.781 -310.175 1247.080 Q -320.541 1249.379 -326.513 1251.228 Q -332.484 1253.077 -336.736 1254.455 Q -340.987 1255.833 -350.823 1259.696 Q -360.658 1263.558 -371.309 1269.387 Q -381.961 1275.216 -389.471 1280.181 Q -396.982 1285.147 -400.937 1288.340 Q -404.892 1291.533 -408.128 1293.813 Q -411.364 1296.093 -420.671 1304.875 Q -429.978 1313.657 -436.984 1321.369 Q -443.990 1329.081 -451.673 1340.184 Q -459.356 1351.286 -462.902 1357.508 Q -466.449 1363.730 -468.648 1368.181 Q -470.848 1372.633 -472.830 1376.532 Q -474.813 1380.432 -478.780 1390.455 Q -482.748 1400.478 -485.352 1409.878 Q -487.955 1419.278 -488.890 1423.797 Q -489.824 1428.317 -491.467 1436.961 Q -493.109 1445.605 -494.245 1460.231 Q -495.380 1474.857 -494.294 1489.351 Q -493.208 1503.845 -491.741 1512.115 Q -490.273 1520.385 -489.279 1525.163 Q -488.285 1529.941 -485.776 1538.822 Q -483.267 1547.702 -480.259 1556.002 Q -477.251 1564.303 -472.713 1573.932 Q -468.175 1583.561 -464.585 1589.879 Q -460.996 1596.197 -457.139 1602.002 Q -453.283 1607.808 -451.262 1610.859 Q -449.241 1613.911 -444.670 1619.397 Q -440.100 1624.884 -436.467 1629.349 Q -432.834 1633.815 -424.746 1641.636 Q -416.657 1649.458 -411.778 1653.374 Q -406.899 1657.291 -402.460 1660.774 Q -398.020 1664.257 -387.986 1671.061 Q -377.953 1677.865 -364.495 1684.310 Q -351.037 1690.755 -342.931 1693.619 Q -334.826 1696.482 -328.299 1698.642 Q -321.773 1700.801 -311.035 1702.877 Q -300.296 1704.952 -295.040 1705.923 Q -289.784 1706.893 -276.829 1707.780 Q -263.873 1708.666 -253.693 1708.263 Q -243.512 1707.859 -236.770 1706.972 Q -230.029 1706.085 -225.589 1705.659 Q -221.148 1705.233 -211.278 1702.864 Q -201.409 1700.495 -196.345 1699.047 Q -191.281 1697.599 -186.985 1696.055 Q -182.689 1694.510 -179.486 1693.460 Q -176.283 1692.410 -168.891 1689.167 Q -161.500 1685.924 -157.016 1683.576 Q -152.532 1681.227 -149.645 1679.689 Q -146.759 1678.151 -140.705 1674.595 Q -134.651 1671.038 -126.923 1665.506 Q -119.195 1659.974 -113.156 1655.045 Q -107.117 1650.116 -101.023 1644.360 Q -94.928 1638.604 -89.406 1632.449 Q -83.884 1626.295 -80.386 1622.006 Q -76.889 1617.717 -72.990 1612.245 Q -69.091 1606.774 -66.120 1602.412 Q -63.149 1598.050 -58.243 1589.428 Q -53.337 1580.806 -49.705 1572.558 Q -46.072 1564.310 -44.273 1559.766 Q -42.474 1555.221 -39.793 1547.201 Q -37.113 1539.180 -34.659 1529.205 Q -32.205 1519.231 -30.774 1507.786 Q -29.343 1496.341 -28.754 1490.174 Q -28.166 1484.008 -28.448 1471.754 Q -28.730 1459.500 -29.473 1451.998 Q -30.216 1444.495 -31.821 1434.781 Q -33.426 1425.066 -36.144 1415.303 Q -38.861 1405.540 -40.503 1400.582 Q -42.146 1395.624 -44.306 1390.228 Q -46.467 1384.831 -47.782 1381.862 Q -49.098 1378.894 -49.889 1377.256 Q -50.680 1375.619 -51.898 1372.990 Q -53.115 1370.361 -56.067 1365.078 Q -59.020 1359.795 -62.404 1353.524 Q -65.789 1347.252 -73.984 1336.533 Q -82.179 1325.814 -86.908 1320.520 Q -91.636 1315.225 -96.482 1310.427 Q -101.329 1305.628 -103.732 1303.480 Q -106.136 1301.333 -111.494 1296.699 Q -116.852 1292.066 -125.919 1285.412 Q -134.985 1278.758 -145.472 1272.819 Q -155.958 1266.880 -163.454 1263.574 Q -170.949 1260.268 -175.546 1258.479 Q -180.142 1256.690 -187.023 1254.178 Q -193.903 1251.667 -206.491 1248.551 Q -219.078 1245.435 -229.799 1244.185 Q -240.520 1242.935 -246.084 1242.432 Q -251.647 1241.929 -262.933 1241.969 Q -274.218 1242.010 -282.936 1242.961 Q -291.653 1243.913 -295.489 1244.565 Q -299.325 1245.216 -307.975 1246.597 Q -316.626 1247.978 -330.279 1252.410 Q -343.931 1256.843 -352.520 1260.379 Q -361.110 1263.916 -371.147 1269.376 Q -381.185 1274.837 -386.474 1278.234 Q -391.762 1281.631 -397.495 1285.853 Q -403.227 1290.074 -409.527 1294.921 Q -415.826 1299.767 -425.322 1309.179 Q -434.817 1318.591 -440.584 1325.708 Q -446.351 1332.826 -449.122 1336.627 Q -451.893 1340.427 -454.153 1343.777 Q -456.413 1347.127 -458.517 1350.265 Q -460.621 1353.403 -464.553 1360.453 Q -468.486 1367.504 -470.567 1371.827 Q -472.647 1376.151 -474.127 1379.111 Q -475.606 1382.071 -483.070 1402.361 "></path>
    <path id="STROKE_da9b7a72-5548-49b3-a8bf-f344acf414d2" opacity="1.000" fill="none" stroke="#3c1416" stroke-width="24.657" stroke-opacity="1.000" stroke-linecap="round" stroke-linejoin="round" d="M 41.319 1327.282 Q 41.318 1326.499 41.318 1326.435 Q 41.318 1326.370 41.318 1326.446 Q 41.318 1326.521 41.318 1326.277 Q 41.318 1326.033 41.318 1323.420 Q 37.856 1325.124 36.507 1332.035 Q 36.641 1332.089 37.911 1332.253 Q 39.180 1332.417 41.147 1331.202 Q 43.114 1329.987 43.087 1329.132 Q 43.060 1328.278 43.079 1328.434 Q 43.098 1328.590 43.066 1327.399 Q 43.035 1326.208 41.378 1326.008 Q 39.722 1325.808 37.600 1328.665 Q 37.983 1328.913 38.443 1329.080 Q 38.904 1329.247 39.245 1329.467 Q 39.587 1329.687 40.013 1330.047 "></path>
    <path id="STROKE_ddaabb0e-1418-4db3-99cb-c424a22f9e16" opacity="1.000" fill="none" stroke="#3c1416" stroke-width="6.033" stroke-opacity="1.000" stroke-linecap="round" stroke-linejoin="round" d="M 137.801 1116.443 Q 136.776 1116.266 131.935 1113.983 Q 127.095 1111.700 116.238 1108.219 Q 105.381 1104.737 97.092 1102.867 Q 88.804 1100.996 80.886 1099.649 Q 72.968 1098.302 61.843 1097.403 Q 50.718 1096.503 39.573 1096.667 Q 28.428 1096.831 16.909 1098.140 Q 5.389 1099.449 -4.977 1101.748 Q -15.343 1104.047 -21.315 1105.896 Q -27.286 1107.745 -31.538 1109.123 Q -35.789 1110.501 -45.624 1114.363 Q -55.460 1118.225 -66.111 1124.054 Q -76.763 1129.883 -84.273 1134.849 Q -91.783 1139.815 -95.739 1143.008 Q -99.694 1146.201 -102.930 1148.481 Q -106.166 1150.761 -115.473 1159.543 Q -124.780 1168.325 -131.786 1176.037 Q -138.792 1183.749 -146.475 1194.851 Q -154.158 1205.953 -157.704 1212.175 Q -161.250 1218.397 -163.450 1222.849 Q -165.649 1227.301 -167.632 1231.200 Q -169.614 1235.099 -173.582 1245.122 Q -177.550 1255.145 -180.153 1264.545 Q -182.757 1273.945 -183.691 1278.465 Q -184.626 1282.985 -186.268 1291.629 Q -187.911 1300.272 -189.046 1314.898 Q -190.182 1329.525 -189.096 1344.019 Q -188.010 1358.513 -186.542 1366.783 Q -185.075 1375.053 -184.081 1379.831 Q -183.087 1384.609 -180.578 1393.489 Q -178.069 1402.369 -175.061 1410.670 Q -172.053 1418.970 -167.515 1428.599 Q -162.977 1438.228 -159.387 1444.546 Q -155.797 1450.865 -151.941 1456.670 Q -148.084 1462.475 -146.063 1465.527 Q -144.042 1468.579 -139.472 1474.065 Q -134.902 1479.551 -131.269 1484.017 Q -127.636 1488.483 -119.548 1496.304 Q -111.459 1504.125 -106.580 1508.042 Q -101.701 1511.958 -97.261 1515.441 Q -92.822 1518.925 -82.788 1525.729 Q -72.755 1532.533 -59.297 1538.978 Q -45.838 1545.423 -37.733 1548.286 Q -29.628 1551.150 -23.101 1553.309 Q -16.575 1555.469 -5.836 1557.544 Q 4.902 1559.620 10.158 1560.590 Q 15.414 1561.561 28.369 1562.447 Q 41.325 1563.334 51.506 1562.930 Q 61.686 1562.527 68.428 1561.640 Q 75.170 1560.753 79.610 1560.327 Q 84.050 1559.901 93.920 1557.532 Q 103.790 1555.162 108.853 1553.714 Q 113.917 1552.266 118.213 1550.722 Q 122.509 1549.178 125.712 1548.128 Q 128.916 1547.078 136.307 1543.835 Q 143.698 1540.592 148.182 1538.243 Q 152.666 1535.895 155.553 1534.357 Q 158.440 1532.818 164.493 1529.262 Q 170.547 1525.706 178.275 1520.174 Q 186.003 1514.642 192.042 1509.712 Q 198.081 1504.783 204.175 1499.027 Q 210.270 1493.271 215.792 1487.117 Q 221.314 1480.963 224.812 1476.674 Q 228.310 1472.384 232.209 1466.913 Q 236.108 1461.442 239.078 1457.080 Q 242.049 1452.717 246.955 1444.095 Q 251.861 1435.473 255.493 1427.225 Q 259.126 1418.978 260.925 1414.433 Q 262.724 1409.889 265.405 1401.868 Q 268.085 1393.848 270.539 1383.873 Q 272.993 1373.898 274.424 1362.453 Q 275.856 1351.008 276.444 1344.842 Q 277.032 1338.676 276.750 1326.421 Q 276.468 1314.167 275.725 1306.665 Q 274.982 1299.163 273.377 1289.448 Q 271.772 1279.734 269.055 1269.971 Q 266.337 1260.208 264.695 1255.250 Q 263.052 1250.292 260.892 1244.895 Q 258.731 1239.498 257.416 1236.530 Q 256.101 1233.561 255.309 1231.924 Q 254.518 1230.287 253.301 1227.658 Q 252.083 1225.029 249.131 1219.746 Q 246.179 1214.463 242.794 1208.191 Q 239.409 1201.920 231.214 1191.201 Q 223.019 1180.482 218.291 1175.188 Q 213.562 1169.893 208.716 1165.094 Q 203.869 1160.295 201.466 1158.148 Q 199.062 1156.001 193.704 1151.367 Q 188.346 1146.733 179.280 1140.079 Q 170.213 1133.425 159.726 1127.486 Q 149.240 1121.547 141.744 1118.241 Q 134.249 1114.935 129.652 1113.146 Q 125.056 1111.357 118.175 1108.846 Q 111.295 1106.334 98.707 1103.218 Q 86.120 1100.102 75.399 1098.852 Q 64.678 1097.602 59.114 1097.099 Q 53.551 1096.596 42.265 1096.637 Q 30.980 1096.678 22.262 1097.629 Q 13.545 1098.580 9.709 1099.232 Q 5.873 1099.884 -2.777 1101.265 Q -11.428 1102.646 -25.080 1107.078 Q -38.733 1111.510 -47.322 1115.047 Q -55.912 1118.584 -65.949 1124.044 Q -75.987 1129.504 -81.275 1132.901 Q -86.564 1136.298 -92.297 1140.520 Q -98.029 1144.742 -104.329 1149.588 Q -110.628 1154.435 -120.124 1163.846 Q -129.619 1173.258 -135.386 1180.376 Q -141.152 1187.494 -143.924 1191.294 Q -146.695 1195.095 -148.955 1198.445 Q -151.215 1201.795 -153.319 1204.932 Q -155.423 1208.070 -159.355 1215.121 Q -163.288 1222.172 -165.369 1226.495 Q -167.449 1230.818 -168.929 1233.778 Q -170.408 1236.738 -177.872 1257.029 "></path>
    <path id="STROKE_9032dc57-4e83-409f-8a9d-06c8d5beecf2" opacity="1.000" fill="none" stroke="#3c1416" stroke-width="6.033" stroke-opacity="1.000" stroke-linecap="round" stroke-linejoin="round" d="M 137.801 1116.443 Q 136.776 1116.266 131.935 1113.983 Q 127.095 1111.700 116.238 1108.219 Q 105.381 1104.737 97.092 1102.867 Q 88.804 1100.996 80.886 1099.649 Q 72.968 1098.302 61.843 1097.403 Q 50.718 1096.503 39.573 1096.667 Q 28.428 1096.831 16.909 1098.140 Q 5.389 1099.449 -4.977 1101.748 Q -15.343 1104.047 -21.315 1105.896 Q -27.286 1107.745 -31.538 1109.123 Q -35.789 1110.501 -45.624 1114.363 Q -55.460 1118.225 -66.111 1124.054 Q -76.763 1129.883 -84.273 1134.849 Q -91.783 1139.815 -95.739 1143.008 Q -99.694 1146.201 -102.930 1148.481 Q -106.166 1150.761 -115.473 1159.543 Q -124.780 1168.325 -131.786 1176.037 Q -138.792 1183.749 -146.475 1194.851 Q -154.158 1205.953 -157.704 1212.175 Q -161.250 1218.397 -163.450 1222.849 Q -165.649 1227.301 -167.632 1231.200 Q -169.614 1235.099 -173.582 1245.122 Q -177.550 1255.145 -180.153 1264.545 Q -182.757 1273.945 -183.691 1278.465 Q -184.626 1282.985 -186.268 1291.629 Q -187.911 1300.272 -189.046 1314.898 Q -190.182 1329.525 -189.096 1344.019 Q -188.010 1358.513 -186.542 1366.783 Q -185.075 1375.053 -184.081 1379.831 Q -183.087 1384.609 -180.578 1393.489 Q -178.069 1402.369 -175.061 1410.670 Q -172.053 1418.970 -167.515 1428.599 Q -162.977 1438.228 -159.387 1444.546 Q -155.797 1450.865 -151.941 1456.670 Q -148.084 1462.475 -146.063 1465.527 Q -144.042 1468.579 -139.472 1474.065 Q -134.902 1479.551 -131.269 1484.017 Q -127.636 1488.483 -119.548 1496.304 Q -111.459 1504.125 -106.580 1508.042 Q -101.701 1511.958 -97.261 1515.441 Q -92.822 1518.925 -82.788 1525.729 Q -72.755 1532.533 -59.297 1538.978 Q -45.838 1545.423 -37.733 1548.286 Q -29.628 1551.150 -23.101 1553.309 Q -16.575 1555.469 -5.836 1557.544 Q 4.902 1559.620 10.158 1560.590 Q 15.414 1561.561 28.369 1562.447 Q 41.325 1563.334 51.506 1562.930 Q 61.686 1562.527 68.428 1561.640 Q 75.170 1560.753 79.610 1560.327 Q 84.050 1559.901 93.920 1557.532 Q 103.790 1555.162 108.853 1553.714 Q 113.917 1552.266 118.213 1550.722 Q 122.509 1549.178 125.712 1548.128 Q 128.916 1547.078 136.307 1543.835 Q 143.698 1540.592 148.182 1538.243 Q 152.666 1535.895 155.553 1534.357 Q 158.440 1532.818 164.493 1529.262 Q 170.547 1525.706 178.275 1520.174 Q 186.003 1514.642 192.042 1509.712 Q 198.081 1504.783 204.175 1499.027 Q 210.270 1493.271 215.792 1487.117 Q 221.314 1480.963 224.812 1476.674 Q 228.310 1472.384 232.209 1466.913 Q 236.108 1461.442 239.078 1457.080 Q 242.049 1452.717 246.955 1444.095 Q 251.861 1435.473 255.493 1427.225 Q 259.126 1418.978 260.925 1414.433 Q 262.724 1409.889 265.405 1401.868 Q 268.085 1393.848 270.539 1383.873 Q 272.993 1373.898 274.424 1362.453 Q 275.856 1351.008 276.444 1344.842 Q 277.032 1338.676 276.750 1326.421 Q 276.468 1314.167 275.725 1306.665 Q 274.982 1299.163 273.377 1289.448 Q 271.772 1279.734 269.055 1269.971 Q 266.337 1260.208 264.695 1255.250 Q 263.052 1250.292 260.892 1244.895 Q 258.731 1239.498 257.416 1236.530 Q 256.101 1233.561 255.309 1231.924 Q 254.518 1230.287 253.301 1227.658 Q 252.083 1225.029 249.131 1219.746 Q 246.179 1214.463 242.794 1208.191 Q 239.409 1201.920 231.214 1191.201 Q 223.019 1180.482 218.291 1175.188 Q 213.562 1169.893 208.716 1165.094 Q 203.869 1160.295 201.466 1158.148 Q 199.062 1156.001 193.704 1151.367 Q 188.346 1146.733 179.280 1140.079 Q 170.213 1133.425 159.726 1127.486 Q 149.240 1121.547 141.744 1118.241 Q 134.249 1114.935 129.652 1113.146 Q 125.056 1111.357 118.175 1108.846 Q 111.295 1106.334 98.707 1103.218 Q 86.120 1100.102 75.399 1098.852 Q 64.678 1097.602 59.114 1097.099 Q 53.551 1096.596 42.265 1096.637 Q 30.980 1096.678 22.262 1097.629 Q 13.545 1098.580 9.709 1099.232 Q 5.873 1099.884 -2.777 1101.265 Q -11.428 1102.646 -25.080 1107.078 Q -38.733 1111.510 -47.322 1115.047 Q -55.912 1118.584 -65.949 1124.044 Q -75.987 1129.504 -81.275 1132.901 Q -86.564 1136.298 -92.297 1140.520 Q -98.029 1144.742 -104.329 1149.588 Q -110.628 1154.435 -120.124 1163.846 Q -129.619 1173.258 -135.386 1180.376 Q -141.152 1187.494 -143.924 1191.294 Q -146.695 1195.095 -148.955 1198.445 Q -151.215 1201.795 -153.319 1204.932 Q -155.423 1208.070 -159.355 1215.121 Q -163.288 1222.172 -165.369 1226.495 Q -167.449 1230.818 -168.929 1233.778 Q -170.408 1236.738 -177.872 1257.029 "></path>
    <path id="STROKE_c6301e95-5a66-498d-8d6a-94884cf7c1f2" opacity="1.000" fill="none" stroke="#3c1416" stroke-width="24.657" stroke-opacity="1.000" stroke-linecap="round" stroke-linejoin="round" d="M 14.977 1600.689 Q 14.977 1599.906 14.977 1599.841 Q 14.977 1599.777 14.977 1599.852 Q 14.977 1599.928 14.977 1599.684 Q 14.977 1599.439 14.977 1596.827 Q 11.515 1598.531 10.166 1605.441 Q 10.299 1605.495 11.569 1605.659 Q 12.839 1605.823 14.806 1604.608 Q 16.772 1603.393 16.745 1602.539 Q 16.718 1601.684 16.737 1601.841 Q 16.756 1601.997 16.725 1600.806 Q 16.693 1599.615 15.037 1599.415 Q 13.381 1599.215 11.258 1602.071 Q 11.642 1602.319 12.102 1602.486 Q 12.562 1602.653 12.904 1602.874 Q 13.245 1603.094 13.671 1603.453 "></path>
    <path id="STROKE_f99c2ed6-05a2-4a9e-9270-8d814b297e63" opacity="1.000" fill="none" stroke="#3c1416" stroke-width="6.033" stroke-opacity="1.000" stroke-linecap="round" stroke-linejoin="round" d="M 111.460 1389.849 Q 110.434 1389.673 105.594 1387.390 Q 100.753 1385.107 89.896 1381.625 Q 79.039 1378.144 70.751 1376.273 Q 62.462 1374.403 54.544 1373.056 Q 46.626 1371.709 35.501 1370.809 Q 24.377 1369.910 13.232 1370.074 Q 2.087 1370.238 -9.433 1371.547 Q -20.953 1372.856 -31.319 1375.155 Q -41.685 1377.453 -47.656 1379.302 Q -53.628 1381.152 -57.879 1382.530 Q -62.131 1383.908 -71.966 1387.770 Q -81.801 1391.632 -92.453 1397.461 Q -103.104 1403.290 -110.615 1408.256 Q -118.125 1413.222 -122.080 1416.414 Q -126.036 1419.607 -129.272 1421.887 Q -132.508 1424.167 -141.815 1432.949 Q -151.122 1441.731 -158.128 1449.443 Q -165.133 1457.156 -172.816 1468.258 Q -180.499 1479.360 -184.046 1485.582 Q -187.592 1491.804 -189.791 1496.256 Q -191.991 1500.708 -193.973 1504.607 Q -195.956 1508.506 -199.924 1518.529 Q -203.891 1528.552 -206.495 1537.952 Q -209.099 1547.352 -210.033 1551.872 Q -210.967 1556.391 -212.610 1565.035 Q -214.253 1573.679 -215.388 1588.305 Q -216.523 1602.931 -215.437 1617.425 Q -214.352 1631.920 -212.884 1640.189 Q -211.416 1648.459 -210.422 1653.237 Q -209.429 1658.016 -206.920 1666.896 Q -204.411 1675.776 -201.402 1684.076 Q -198.394 1692.377 -193.856 1702.006 Q -189.318 1711.635 -185.729 1717.953 Q -182.139 1724.271 -178.283 1730.077 Q -174.426 1735.882 -172.405 1738.934 Q -170.384 1741.985 -165.814 1747.472 Q -161.243 1752.958 -157.610 1757.423 Q -153.977 1761.889 -145.889 1769.710 Q -137.801 1777.532 -132.922 1781.448 Q -128.043 1785.365 -123.603 1788.848 Q -119.163 1792.331 -109.130 1799.135 Q -99.096 1805.939 -85.638 1812.384 Q -72.180 1818.829 -64.074 1821.693 Q -55.969 1824.556 -49.443 1826.716 Q -42.917 1828.875 -32.178 1830.951 Q -21.439 1833.027 -16.184 1833.997 Q -10.928 1834.967 2.028 1835.854 Q 14.983 1836.740 25.164 1836.337 Q 35.345 1835.933 42.086 1835.046 Q 48.828 1834.159 53.268 1833.733 Q 57.708 1833.307 67.578 1830.938 Q 77.448 1828.569 82.512 1827.121 Q 87.576 1825.673 91.872 1824.129 Q 96.168 1822.585 99.371 1821.535 Q 102.574 1820.484 109.965 1817.241 Q 117.357 1813.999 121.841 1811.650 Q 126.325 1809.301 129.211 1807.763 Q 132.098 1806.225 138.152 1802.669 Q 144.205 1799.113 151.934 1793.580 Q 159.662 1788.048 165.700 1783.119 Q 171.739 1778.190 177.834 1772.434 Q 183.928 1766.678 189.450 1760.524 Q 194.972 1754.370 198.470 1750.080 Q 201.968 1745.791 205.867 1740.320 Q 209.766 1734.849 212.737 1730.486 Q 215.707 1726.124 220.613 1717.502 Q 225.519 1708.880 229.152 1700.632 Q 232.784 1692.384 234.584 1687.840 Q 236.383 1683.295 239.063 1675.275 Q 241.744 1667.254 244.198 1657.280 Q 246.651 1647.305 248.083 1635.860 Q 249.514 1624.415 250.102 1618.249 Q 250.690 1612.082 250.408 1599.828 Q 250.126 1587.574 249.383 1580.072 Q 248.641 1572.570 247.036 1562.855 Q 245.430 1553.140 242.713 1543.377 Q 239.996 1533.614 238.353 1528.656 Q 236.711 1523.698 234.550 1518.302 Q 232.390 1512.905 231.074 1509.937 Q 229.759 1506.968 228.968 1505.331 Q 228.177 1503.693 226.959 1501.064 Q 225.741 1498.435 222.789 1493.152 Q 219.837 1487.869 216.452 1481.598 Q 213.067 1475.326 204.872 1464.608 Q 196.677 1453.889 191.949 1448.594 Q 187.221 1443.300 182.374 1438.501 Q 177.528 1433.702 175.124 1431.555 Q 172.721 1429.408 167.363 1424.774 Q 162.005 1420.140 152.938 1413.486 Q 143.871 1406.832 133.385 1400.893 Q 122.898 1394.954 115.403 1391.648 Q 107.907 1388.342 103.311 1386.553 Q 98.714 1384.764 91.834 1382.252 Q 84.953 1379.741 72.366 1376.625 Q 59.778 1373.509 49.057 1372.259 Q 38.337 1371.009 32.773 1370.506 Q 27.209 1370.003 15.924 1370.044 Q 4.638 1370.084 -4.079 1371.036 Q -12.797 1371.987 -16.632 1372.639 Q -20.468 1373.291 -29.119 1374.671 Q -37.770 1376.052 -51.422 1380.485 Q -65.074 1384.917 -73.664 1388.454 Q -82.253 1391.990 -92.291 1397.451 Q -102.328 1402.911 -107.617 1406.308 Q -112.906 1409.705 -118.638 1413.927 Q -124.371 1418.149 -130.670 1422.995 Q -136.970 1427.841 -146.465 1437.253 Q -155.961 1446.665 -161.727 1453.783 Q -167.494 1460.900 -170.265 1464.701 Q -173.037 1468.501 -175.296 1471.851 Q -177.556 1475.201 -179.660 1478.339 Q -181.764 1481.477 -185.697 1488.528 Q -189.630 1495.578 -191.710 1499.902 Q -193.791 1504.225 -195.270 1507.185 Q -196.750 1510.145 -204.213 1530.435 "></path>
    <path id="STROKE_900ac5fa-0ed7-4894-ac32-f6f41558d70e" opacity="1.000" fill="none" stroke="#3c1416" stroke-width="6.033" stroke-opacity="1.000" stroke-linecap="round" stroke-linejoin="round" d="M 111.460 1389.849 Q 110.434 1389.673 105.594 1387.390 Q 100.753 1385.107 89.896 1381.625 Q 79.039 1378.144 70.751 1376.273 Q 62.462 1374.403 54.544 1373.056 Q 46.626 1371.709 35.501 1370.809 Q 24.377 1369.910 13.232 1370.074 Q 2.087 1370.238 -9.433 1371.547 Q -20.953 1372.856 -31.319 1375.155 Q -41.685 1377.453 -47.656 1379.302 Q -53.628 1381.152 -57.879 1382.530 Q -62.131 1383.908 -71.966 1387.770 Q -81.801 1391.632 -92.453 1397.461 Q -103.104 1403.290 -110.615 1408.256 Q -118.125 1413.222 -122.080 1416.414 Q -126.036 1419.607 -129.272 1421.887 Q -132.508 1424.167 -141.815 1432.949 Q -151.122 1441.731 -158.128 1449.443 Q -165.133 1457.156 -172.816 1468.258 Q -180.499 1479.360 -184.046 1485.582 Q -187.592 1491.804 -189.791 1496.256 Q -191.991 1500.708 -193.973 1504.607 Q -195.956 1508.506 -199.924 1518.529 Q -203.891 1528.552 -206.495 1537.952 Q -209.099 1547.352 -210.033 1551.872 Q -210.967 1556.391 -212.610 1565.035 Q -214.253 1573.679 -215.388 1588.305 Q -216.523 1602.931 -215.437 1617.425 Q -214.352 1631.920 -212.884 1640.189 Q -211.416 1648.459 -210.422 1653.237 Q -209.429 1658.016 -206.920 1666.896 Q -204.411 1675.776 -201.402 1684.076 Q -198.394 1692.377 -193.856 1702.006 Q -189.318 1711.635 -185.729 1717.953 Q -182.139 1724.271 -178.283 1730.077 Q -174.426 1735.882 -172.405 1738.934 Q -170.384 1741.985 -165.814 1747.472 Q -161.243 1752.958 -157.610 1757.423 Q -153.977 1761.889 -145.889 1769.710 Q -137.801 1777.532 -132.922 1781.448 Q -128.043 1785.365 -123.603 1788.848 Q -119.163 1792.331 -109.130 1799.135 Q -99.096 1805.939 -85.638 1812.384 Q -72.180 1818.829 -64.074 1821.693 Q -55.969 1824.556 -49.443 1826.716 Q -42.917 1828.875 -32.178 1830.951 Q -21.439 1833.027 -16.184 1833.997 Q -10.928 1834.967 2.028 1835.854 Q 14.983 1836.740 25.164 1836.337 Q 35.345 1835.933 42.086 1835.046 Q 48.828 1834.159 53.268 1833.733 Q 57.708 1833.307 67.578 1830.938 Q 77.448 1828.569 82.512 1827.121 Q 87.576 1825.673 91.872 1824.129 Q 96.168 1822.585 99.371 1821.535 Q 102.574 1820.484 109.965 1817.241 Q 117.357 1813.999 121.841 1811.650 Q 126.325 1809.301 129.211 1807.763 Q 132.098 1806.225 138.152 1802.669 Q 144.205 1799.113 151.934 1793.580 Q 159.662 1788.048 165.700 1783.119 Q 171.739 1778.190 177.834 1772.434 Q 183.928 1766.678 189.450 1760.524 Q 194.972 1754.370 198.470 1750.080 Q 201.968 1745.791 205.867 1740.320 Q 209.766 1734.849 212.737 1730.486 Q 215.707 1726.124 220.613 1717.502 Q 225.519 1708.880 229.152 1700.632 Q 232.784 1692.384 234.584 1687.840 Q 236.383 1683.295 239.063 1675.275 Q 241.744 1667.254 244.198 1657.280 Q 246.651 1647.305 248.083 1635.860 Q 249.514 1624.415 250.102 1618.249 Q 250.690 1612.082 250.408 1599.828 Q 250.126 1587.574 249.383 1580.072 Q 248.641 1572.570 247.036 1562.855 Q 245.430 1553.140 242.713 1543.377 Q 239.996 1533.614 238.353 1528.656 Q 236.711 1523.698 234.550 1518.302 Q 232.390 1512.905 231.074 1509.937 Q 229.759 1506.968 228.968 1505.331 Q 228.177 1503.693 226.959 1501.064 Q 225.741 1498.435 222.789 1493.152 Q 219.837 1487.869 216.452 1481.598 Q 213.067 1475.326 204.872 1464.608 Q 196.677 1453.889 191.949 1448.594 Q 187.221 1443.300 182.374 1438.501 Q 177.528 1433.702 175.124 1431.555 Q 172.721 1429.408 167.363 1424.774 Q 162.005 1420.140 152.938 1413.486 Q 143.871 1406.832 133.385 1400.893 Q 122.898 1394.954 115.403 1391.648 Q 107.907 1388.342 103.311 1386.553 Q 98.714 1384.764 91.834 1382.252 Q 84.953 1379.741 72.366 1376.625 Q 59.778 1373.509 49.057 1372.259 Q 38.337 1371.009 32.773 1370.506 Q 27.209 1370.003 15.924 1370.044 Q 4.638 1370.084 -4.079 1371.036 Q -12.797 1371.987 -16.632 1372.639 Q -20.468 1373.291 -29.119 1374.671 Q -37.770 1376.052 -51.422 1380.485 Q -65.074 1384.917 -73.664 1388.454 Q -82.253 1391.990 -92.291 1397.451 Q -102.328 1402.911 -107.617 1406.308 Q -112.906 1409.705 -118.638 1413.927 Q -124.371 1418.149 -130.670 1422.995 Q -136.970 1427.841 -146.465 1437.253 Q -155.961 1446.665 -161.727 1453.783 Q -167.494 1460.900 -170.265 1464.701 Q -173.037 1468.501 -175.296 1471.851 Q -177.556 1475.201 -179.660 1478.339 Q -181.764 1481.477 -185.697 1488.528 Q -189.630 1495.578 -191.710 1499.902 Q -193.791 1504.225 -195.270 1507.185 Q -196.750 1510.145 -204.213 1530.435 "></path>
    <path id="STROKE_514e8565-359c-48f5-8824-bd055638bf60" opacity="1.000" fill="none" stroke="#3c1416" stroke-width="6.658" stroke-opacity="1.000" stroke-linecap="round" stroke-linejoin="round" d="M -279.492 1394.586 L -279.317 1394.451 Q -278.608 1394.917 -278.443 1394.992 Q -278.279 1395.066 -278.147 1403.039 Q -278.014 1411.013 -277.780 1417.001 Q -277.545 1422.989 -274.726 1429.710 Q -274.531 1430.111 -274.465 1429.036 Q -274.398 1427.962 -274.420 1426.114 Q -274.441 1424.266 -274.085 1423.289 Q -273.729 1422.312 -272.559 1421.778 Q -271.389 1421.245 -268.973 1421.056 Q -266.557 1420.868 -264.949 1421.173 Q -263.341 1421.478 -262.160 1422.297 Q -260.978 1423.116 -260.213 1425.282 Q -259.448 1427.448 -259.674 1429.567 Q -259.900 1431.687 -260.752 1433.392 Q -261.605 1435.098 -263.972 1436.694 Q -266.340 1438.289 -271.771 1436.409 L -272.622 1435.026 "></path>
    <path id="STROKE_50f26494-3854-4106-943a-bbe218c7797e" opacity="1.000" fill="none" stroke="#3c1416" stroke-width="6.658" stroke-opacity="1.000" stroke-linecap="round" stroke-linejoin="round" d="M -252.128 1433.436 Q -250.362 1432.297 -240.311 1432.449 Q -240.080 1432.440 -239.688 1433.645 Q -239.295 1434.849 -242.292 1439.330 Q -245.288 1443.811 -250.363 1446.676 Q -251.541 1447.311 -243.053 1447.046 Q -234.566 1446.782 -233.337 1446.575 "></path>
    <path id="STROKE_7060374b-5551-465b-b9d5-605c99ca0e7f" opacity="1.000" fill="none" stroke="#3c1416" stroke-width="6.658" stroke-opacity="1.000" stroke-linecap="round" stroke-linejoin="round" d="M 58.236 1257.589 Q 58.026 1258.035 57.915 1258.365 Q 57.803 1258.695 57.674 1297.086 Q 57.537 1297.693 58.639 1293.866 Q 59.741 1290.039 61.000 1288.226 Q 62.260 1286.413 64.726 1285.172 Q 67.191 1283.930 70.140 1284.234 Q 73.088 1284.538 75.063 1286.995 Q 77.037 1289.451 77.416 1290.625 Q 77.796 1291.798 77.781 1294.124 Q 77.767 1296.449 76.791 1297.832 Q 75.816 1299.215 74.690 1299.705 Q 73.565 1300.195 70.941 1300.451 Q 68.317 1300.708 67.225 1300.728 Q 66.133 1300.749 61.132 1298.947 L 61.614 1298.256 "></path>
    <path id="STROKE_a9343ae5-739f-40da-8952-465fac4fee19" opacity="1.000" fill="none" stroke="#3c1416" stroke-width="6.658" stroke-opacity="1.000" stroke-linecap="round" stroke-linejoin="round" d="M 90.056 1300.187 L 90.225 1300.524 L 90.368 1302.172 Q 90.319 1302.728 90.719 1307.647 Q 91.120 1312.565 91.390 1314.008 "></path>
    <path id="STROKE_c9e70c04-571a-4a13-9a71-87ce1b5682d1" opacity="1.000" fill="none" stroke="#3c1416" stroke-width="6.658" stroke-opacity="1.000" stroke-linecap="round" stroke-linejoin="round" d="M 48.727 1614.357 Q 48.579 1614.372 50.260 1611.762 Q 49.822 1612.621 50.751 1642.514 Q 50.793 1642.694 50.955 1641.254 Q 51.116 1639.814 52.644 1637.455 Q 54.173 1635.097 55.926 1634.472 Q 57.679 1633.848 59.811 1633.988 Q 61.942 1634.128 61.981 1634.138 Q 62.020 1634.149 64.379 1635.474 Q 66.739 1636.799 67.652 1638.050 Q 68.566 1639.300 68.990 1642.104 Q 69.415 1644.908 69.159 1646.102 Q 68.903 1647.296 67.305 1649.493 Q 65.708 1651.691 54.143 1651.188 Q 54.057 1650.491 54.631 1649.496 "></path>
    <path id="STROKE_871d640c-3d15-46e3-b9b3-742b0ea485eb" opacity="1.000" fill="none" stroke="#3c1416" stroke-width="6.658" stroke-opacity="1.000" stroke-linecap="round" stroke-linejoin="round" d="M 79.213 1648.398 Q 79.563 1646.967 90.089 1648.997 Q 90.313 1653.261 88.750 1654.745 Q 87.188 1656.229 84.166 1657.355 Q 84.561 1657.352 85.700 1657.386 Q 86.838 1657.420 88.942 1657.908 Q 91.047 1658.397 93.076 1659.960 Q 95.105 1661.524 95.949 1663.325 Q 96.793 1665.126 96.742 1666.256 Q 96.692 1667.386 96.349 1668.026 Q 96.006 1668.665 94.911 1669.278 Q 93.816 1669.892 91.683 1670.169 Q 89.550 1670.446 87.582 1670.369 Q 85.614 1670.293 83.371 1669.266 Q 81.127 1668.238 80.064 1667.520 "></path>
    <path id="STROKE_c7a2f482-eb09-42b8-9d2b-b691b0f0edc7" opacity="1.000" fill="none" stroke="#3c1416" stroke-width="6.658" stroke-opacity="1.000" stroke-linecap="round" stroke-linejoin="round" d="M -84.967 1477.133 Q -84.868 1477.157 -79.982 1479.814 Q -75.095 1482.471 -72.221 1484.280 Q -69.347 1486.089 -68.100 1487.211 Q -66.852 1488.332 -65.791 1489.516 Q -64.729 1490.700 -62.543 1493.226 "></path>
    <path id="STROKE_39dd9ab5-a069-4b75-b110-f3149f773ac9" opacity="1.000" fill="none" stroke="#3c1416" stroke-width="6.658" stroke-opacity="1.000" stroke-linecap="round" stroke-linejoin="round" d="M -66.631 1478.572 Q -67.442 1477.968 -74.286 1483.249 Q -81.130 1488.530 -83.835 1492.769 Q -86.539 1497.008 -87.125 1498.148 "></path>
    <path id="STROKE_122ae314-6ba2-4394-90fe-31e75f969ad4" opacity="1.000" fill="none" stroke="#3c1416" stroke-width="6.658" stroke-opacity="1.000" stroke-linecap="round" stroke-linejoin="round" d="M 75.466 1327.110 Q 77.005 1326.190 65.491 1336.476 Q 66.897 1337.492 66.911 1337.519 Q 66.925 1337.545 67.478 1337.783 Q 68.030 1338.021 68.115 1338.020 Q 68.201 1338.020 69.496 1339.328 Q 70.792 1340.635 70.821 1340.776 Q 70.850 1340.916 70.965 1341.063 Q 71.081 1341.211 72.261 1342.814 Q 73.441 1344.417 74.149 1344.988 Q 74.857 1345.560 75.718 1345.991 Q 76.580 1346.422 77.651 1346.951 "></path>
    <path id="STROKE_d4c30716-ec98-498d-a911-9a173f2689b2" opacity="1.000" fill="none" stroke="#3c1416" stroke-width="6.658" stroke-opacity="1.000" stroke-linecap="round" stroke-linejoin="round" d="M 78.844 1338.659 L 79.291 1338.394 Q 82.899 1338.207 82.976 1338.222 Q 83.054 1338.238 85.412 1338.404 Q 87.770 1338.570 89.653 1338.641 Q 91.537 1338.713 97.644 1339.043 Q 103.752 1339.374 107.606 1339.447 Q 111.461 1339.520 113.119 1339.837 Q 114.777 1340.154 119.245 1340.852 Q 123.713 1341.550 126.672 1341.776 Q 129.632 1342.001 131.479 1342.297 Q 133.326 1342.593 135.951 1343.369 L 136.721 1343.960 "></path>
    <path id="STROKE_8b14d291-e271-4212-96cd-b651ff778c1f" opacity="1.000" fill="none" stroke="#3c1416" stroke-width="6.658" stroke-opacity="1.000" stroke-linecap="round" stroke-linejoin="round" d="M 173.480 1331.426 Q 173.276 1330.629 173.079 1329.187 Q 172.882 1327.745 171.763 1326.928 Q 170.644 1326.111 170.600 1326.112 Q 170.557 1326.113 168.352 1325.845 Q 166.147 1325.577 164.718 1326.301 Q 163.288 1327.025 162.892 1327.703 Q 162.496 1328.380 162.433 1328.845 Q 162.370 1329.311 162.442 1329.775 Q 162.515 1330.239 166.691 1333.788 Q 170.867 1337.337 173.330 1339.258 Q 175.794 1341.180 177.741 1343.698 Q 179.687 1346.215 180.127 1349.190 Q 180.568 1352.165 180.292 1353.574 Q 180.017 1354.982 179.458 1355.589 Q 178.898 1356.196 178.278 1356.521 Q 177.657 1356.846 176.313 1357.009 Q 174.969 1357.171 174.312 1357.092 Q 173.655 1357.013 172.481 1356.412 Q 171.307 1355.810 170.857 1355.316 Q 170.406 1354.822 170.162 1354.530 Q 169.918 1354.238 169.636 1353.019 Q 169.354 1351.799 169.781 1350.777 Q 170.209 1349.755 171.526 1348.879 Q 172.844 1348.003 173.849 1347.443 "></path>
    <path id="STROKE_9814bbad-017e-4c2e-95d6-917f815a5091" opacity="1.000" fill="none" stroke="#3c1416" stroke-width="6.658" stroke-opacity="1.000" stroke-linecap="round" stroke-linejoin="round" d="M 190.341 1352.139 Q 190.668 1351.900 200.037 1353.971 Q 200.357 1354.614 200.555 1355.458 Q 200.753 1356.303 189.304 1367.224 Q 187.534 1368.054 195.909 1367.795 Q 204.284 1367.536 205.527 1367.285 "></path>
    <path id="STROKE_41250078-b731-4b6f-9234-18f43fd3e198" opacity="1.000" fill="none" stroke="#3c1416" stroke-width="6.658" stroke-opacity="1.000" stroke-linecap="round" stroke-linejoin="round" d="M 213.617 1346.345 Q 213.786 1346.284 225.607 1346.904 Q 237.428 1347.523 246.213 1347.554 Q 254.999 1347.585 255.911 1347.557 "></path>
    <path id="STROKE_13c76804-0da7-41ef-bde5-f5fe7c466bf3" opacity="1.000" fill="none" stroke="#3c1416" stroke-width="6.658" stroke-opacity="1.000" stroke-linecap="round" stroke-linejoin="round" d="M 255.797 1342.256 Q 255.631 1341.906 255.749 1341.882 Q 255.867 1341.858 254.160 1339.984 Q 254.358 1340.616 254.473 1340.578 Q 254.890 1341.154 268.382 1346.678 Q 268.152 1346.615 262.810 1350.968 Q 257.467 1355.322 256.535 1356.228 "></path>
    <path id="STROKE_c62b329f-b2d6-4daf-ba27-117a47c0e1fd" opacity="1.000" fill="none" stroke="#3c1416" stroke-width="6.658" stroke-opacity="1.000" stroke-linecap="round" stroke-linejoin="round" d="M -4.808 1633.744 Q -4.820 1634.055 -5.594 1634.763 Q -6.369 1635.471 -13.716 1641.115 L -13.834 1641.204 "></path>
    <path id="STROKE_8f9f614e-af3b-4d78-80b6-a8065e2074d5" opacity="1.000" fill="none" stroke="#3c1416" stroke-width="6.658" stroke-opacity="1.000" stroke-linecap="round" stroke-linejoin="round" d="M -0.947 1633.744 L -1.232 1634.106 Q -1.115 1634.642 -1.059 1635.376 Q -1.003 1636.110 -0.973 1636.164 Q -0.943 1636.219 -0.835 1637.155 Q -0.728 1638.091 0.183 1642.068 Q 1.093 1646.044 2.623 1647.936 Q 4.152 1649.829 5.070 1650.708 "></path>
    <path id="STROKE_dfa13efd-5ba9-424e-bdd6-7c2ce89daa23" opacity="1.000" fill="none" stroke="#3c1416" stroke-width="6.658" stroke-opacity="1.000" stroke-linecap="round" stroke-linejoin="round" d="M -6.113 1642.150 L -6.000 1642.454 L -6.277 1645.213 Q -7.202 1647.207 -19.509 1691.709 L -19.994 1691.716 "></path>
    <path id="STROKE_7a495eee-0e1e-47b6-bc21-764f8b7bbfb5" opacity="1.000" fill="none" stroke="#3c1416" stroke-width="6.658" stroke-opacity="1.000" stroke-linecap="round" stroke-linejoin="round" d="M -22.037 1718.639 L -21.228 1717.827 Q -20.576 1716.994 -20.588 1716.874 Q -20.216 1715.388 -20.273 1715.323 L -20.474 1714.036 Q -21.052 1713.171 -22.592 1712.453 Q -24.132 1711.735 -27.246 1711.744 Q -30.360 1711.752 -32.466 1712.710 Q -34.573 1713.667 -35.577 1714.481 Q -36.581 1715.295 -36.989 1715.806 Q -37.397 1716.318 -37.796 1716.936 Q -38.196 1717.555 -38.289 1719.063 Q -38.381 1720.572 -34.814 1723.775 Q -31.247 1726.979 -29.230 1728.392 Q -27.212 1729.805 -25.581 1731.917 Q -23.950 1734.030 -23.497 1735.634 Q -23.043 1737.238 -22.963 1737.689 Q -22.883 1738.140 -22.974 1739.316 Q -23.064 1740.492 -23.304 1741.228 Q -23.544 1741.964 -24.057 1742.579 Q -24.569 1743.194 -24.799 1743.460 Q -25.029 1743.726 -27.124 1744.385 Q -29.219 1745.044 -31.007 1744.612 Q -32.795 1744.179 -33.533 1743.130 Q -34.272 1742.082 -34.404 1741.373 Q -34.536 1740.663 -34.154 1739.876 Q -33.772 1739.088 -33.128 1738.586 Q -32.484 1738.084 -30.121 1736.924 Q -27.759 1735.763 -26.607 1735.262 "></path>
    <path id="STROKE_6dc8e21d-abd6-4156-a166-8d17ef687276" opacity="1.000" fill="none" stroke="#3c1416" stroke-width="6.658" stroke-opacity="1.000" stroke-linecap="round" stroke-linejoin="round" d="M -12.982 1737.647 L -12.878 1737.572 Q -12.768 1737.429 -3.095 1737.245 Q -2.802 1737.457 -2.717 1738.561 Q -2.632 1739.665 -3.615 1740.945 Q -4.598 1742.226 -4.993 1742.547 Q -5.389 1742.869 -6.014 1743.240 Q -6.639 1743.612 -7.914 1744.132 Q -8.537 1744.235 -6.152 1744.744 Q -3.766 1745.253 -1.731 1746.157 Q 0.304 1747.061 0.672 1747.333 Q 1.041 1747.606 2.396 1749.619 Q 3.750 1751.631 3.377 1752.626 Q 3.004 1753.621 2.353 1754.182 Q 1.702 1754.744 -0.517 1755.455 Q -2.735 1756.166 -4.325 1756.542 "></path>
    <path id="STROKE_c18aff24-215d-46fd-a026-184f8652d5be" opacity="1.000" fill="none" stroke="#3c1416" stroke-width="6.658" stroke-opacity="1.000" stroke-linecap="round" stroke-linejoin="round" d="M -42.418 1772.407 Q -42.472 1772.353 -41.979 1772.076 L -42.045 1773.294 L -52.311 1795.729 L -52.296 1796.490 "></path>
    <path id="STROKE_fbcb547e-5b5a-472a-aba7-2b955ed5a8a2" opacity="1.000" fill="none" stroke="#3c1416" stroke-width="6.658" stroke-opacity="1.000" stroke-linecap="round" stroke-linejoin="round" d="M -64.218 1788.197 L -63.980 1788.180 Q -62.376 1789.186 -62.270 1789.391 Q -61.191 1790.418 -54.591 1803.235 L -53.986 1803.483 L -53.517 1803.420 Q -52.500 1803.111 -52.619 1803.240 Q -52.738 1803.370 -47.568 1799.920 Q -42.397 1796.470 -41.453 1795.771 "></path>
    <path id="STROKE_827fc366-0b13-492a-85c6-978296e6b0fb" opacity="1.000" fill="none" stroke="#3c1416" stroke-width="6.658" stroke-opacity="1.000" stroke-linecap="round" stroke-linejoin="round" d="M -467.657 1513.559 L -467.527 1513.032 L -467.291 1512.908 L -467.417 1513.710 Q -468.222 1515.253 -473.181 1527.033 Q -473.014 1527.508 -472.108 1527.101 Q -471.201 1526.695 -467.323 1527.296 Q -463.444 1527.896 -460.126 1529.349 Q -456.808 1530.802 -453.692 1531.962 "></path>
    <path id="STROKE_4ca9f3aa-699f-4dfe-93df-9b0559dd057d" opacity="1.000" fill="none" stroke="#3c1416" stroke-width="6.658" stroke-opacity="1.000" stroke-linecap="round" stroke-linejoin="round" d="M -461.157 1523.669 L -462.010 1523.186 Q -462.043 1522.602 -447.951 1519.033 Q -433.860 1515.464 -432.829 1514.998 "></path>
    <path id="STROKE_f2588203-99d7-4987-acc9-5493f2ff36c3" opacity="1.000" fill="none" stroke="#3c1416" stroke-width="6.658" stroke-opacity="1.000" stroke-linecap="round" stroke-linejoin="round" d="M -399.306 1490.120 Q -399.136 1489.006 -399.084 1488.948 Q -399.032 1488.890 -399.919 1484.419 Q -401.852 1483.265 -401.975 1483.247 Q -403.474 1483.039 -404.882 1483.050 Q -406.289 1483.061 -408.779 1483.973 Q -411.268 1484.885 -412.761 1486.259 Q -414.255 1487.633 -414.695 1488.884 Q -415.136 1490.134 -414.507 1491.509 Q -413.879 1492.884 -412.829 1493.604 Q -411.779 1494.324 -405.879 1496.740 Q -399.979 1499.155 -396.890 1501.157 Q -393.802 1503.160 -392.609 1504.448 Q -391.416 1505.737 -390.707 1506.931 Q -389.999 1508.126 -389.658 1509.130 Q -389.316 1510.134 -389.197 1512.688 Q -389.078 1515.242 -389.444 1516.176 Q -389.810 1517.110 -390.294 1517.626 Q -390.777 1518.142 -393.167 1518.606 Q -395.558 1519.070 -397.496 1518.736 Q -399.433 1518.401 -400.701 1517.699 Q -401.968 1516.997 -403.156 1515.141 Q -404.344 1513.285 -403.848 1511.633 Q -403.352 1509.981 -401.105 1508.339 Q -398.857 1506.697 -396.159 1505.848 Q -393.460 1505.000 -392.323 1504.661 "></path>
    <path id="STROKE_2c522d0d-00dd-4b25-a983-91a6f47e0883" opacity="1.000" fill="none" stroke="#3c1416" stroke-width="6.658" stroke-opacity="1.000" stroke-linecap="round" stroke-linejoin="round" d="M -380.032 1515.983 Q -379.639 1515.816 -378.858 1515.358 Q -378.077 1514.899 -371.588 1515.036 Q -370.438 1516.362 -373.043 1527.600 Q -372.731 1528.459 -367.184 1527.262 Q -361.637 1526.066 -360.503 1525.601 "></path>
    <path id="STROKE_c8d2216d-aa24-4ab2-af30-c6f720bf8bdf" opacity="1.000" fill="none" stroke="#3c1416" stroke-width="6.658" stroke-opacity="1.000" stroke-linecap="round" stroke-linejoin="round" d="M -365.811 1499.360 Q -364.486 1499.212 -348.136 1495.338 Q -331.785 1491.464 -316.238 1487.082 L -316.023 1487.470 "></path>
    <path id="STROKE_ec362aa1-2459-4b52-a412-9e2080f94493" opacity="1.000" fill="none" stroke="#3c1416" stroke-width="6.658" stroke-opacity="1.000" stroke-linecap="round" stroke-linejoin="round" d="M -319.032 1480.844 Q -319.515 1479.991 -319.462 1479.613 Q -318.478 1480.029 -318.428 1479.959 Q -318.377 1479.888 -318.197 1480.020 Q -318.017 1480.152 -315.258 1480.902 Q -312.498 1481.652 -300.225 1481.760 Q -299.962 1481.722 -305.115 1490.328 Q -310.269 1498.934 -311.794 1501.177 "></path>
  </g>
</svg>