<?xml version="1.0" encoding="UTF-8" standalone="yes"?>
<svg xmlns="http://www.w3.org/2000/svg" xmlns:xlink="http://www.w3.org/1999/xlink" width="552.543pt" height="433.037pt" version="1.1" viewBox="-406.301 428.516 552.543 433.037">
  <!--
	Exported with Concepts: Smarter Sketching
	Version: 1055 on iOS 15.2
	https://concepts.app/
	-->
  <title>Untitled</title>
  <desc>Drawing exported from Concepts: Smarter Sketching</desc>
  <defs></defs>
  <g id="Pen" opacity="1.000">
    <path id="STROKE_91a3dc54-fd37-46c0-849d-92d33e4047dc" opacity="1.000" fill="none" stroke="#000000" stroke-width="2.900" stroke-opacity="1.000" stroke-linecap="round" stroke-linejoin="round" d="M -392.587 680.328 Q -392.348 679.994 -391.615 679.344 Q -390.881 678.695 -388.909 676.978 Q -386.938 675.261 -385.069 673.806 Q -383.201 672.352 -376.678 667.974 Q -370.156 663.596 -363.903 659.831 Q -357.651 656.067 -353.084 653.600 Q -348.516 651.133 -341.653 647.880 Q -334.789 644.628 -328.709 642.056 Q -322.630 639.485 -319.890 638.391 Q -317.151 637.296 -312.335 635.490 Q -307.520 633.684 -304.347 632.582 Q -301.174 631.480 -294.556 629.401 Q -287.937 627.321 -282.524 625.867 Q -277.110 624.413 -267.620 622.240 Q -258.131 620.067 -249.988 618.419 Q -241.846 616.770 -234.701 615.536 Q -227.555 614.301 -218.842 613.145 Q -210.128 611.989 -200.110 611.309 Q -190.092 610.628 -184.092 610.411 Q -178.092 610.194 -166.599 610.034 Q -155.106 609.875 -145.571 610.333 Q -136.036 610.791 -131.115 611.285 Q -126.193 611.779 -122.782 612.213 Q -119.372 612.646 -110.984 614.046 Q -102.597 615.445 -93.374 617.691 Q -84.151 619.938 -74.461 623.218 Q -64.770 626.499 -58.776 628.868 Q -52.782 631.238 -49.912 632.431 Q -47.042 633.624 -39.967 636.881 Q -32.892 640.138 -25.982 643.854 Q -19.072 647.570 -15.001 650.009 Q -10.930 652.447 -8.187 654.184 Q -5.443 655.921 1.891 660.790 Q 9.226 665.659 14.507 669.349 Q 19.789 673.039 24.566 676.566 Q 29.343 680.093 37.300 686.571 Q 45.256 693.049 49.286 696.704 Q 53.317 700.359 58.474 705.588 Q 63.630 710.818 66.395 713.763 Q 69.160 716.708 72.307 720.390 Q 75.454 724.073 77.221 726.300 Q 78.987 728.527 80.839 730.959 Q 82.692 733.391 86.732 739.024 Q 90.772 744.656 93.990 749.727 Q 97.209 754.797 99.699 759.240 Q 102.189 763.682 105.964 770.482 Q 109.739 777.282 111.488 780.402 Q 113.237 783.523 113.997 784.954 Q 114.758 786.386 116.647 790.031 L 117.724 792.656 "></path>
    <path id="STROKE_e274358f-dbd1-495c-b301-2d6a04987399" opacity="1.000" fill="none" stroke="#000000" stroke-width="3.400" stroke-opacity="1.000" stroke-linecap="round" stroke-linejoin="round" d="M -86.688 617.297 Q -86.724 617.025 -86.677 617.026 Q -86.631 617.027 -86.774 616.829 Q -86.918 616.630 -87.543 616.218 Q -88.168 615.806 -88.206 615.815 Q -88.245 615.824 -88.597 615.773 Q -88.949 615.721 -89.262 615.697 Q -89.575 615.673 -90.067 615.892 Q -90.559 616.112 -90.945 616.592 Q -91.330 617.072 -91.490 617.150 Q -91.650 617.227 -91.797 618.669 Q -91.945 620.110 -91.929 620.487 Q -91.914 620.864 -91.623 621.476 Q -91.333 622.088 -91.328 622.094 Q -91.323 622.100 -90.622 622.386 Q -89.922 622.673 -88.924 622.700 Q -87.926 622.727 -87.906 622.722 Q -87.887 622.717 -87.527 622.718 Q -87.168 622.718 -86.624 622.624 Q -86.081 622.529 -85.652 622.187 Q -85.223 621.844 -84.925 621.054 Q -84.628 620.264 -84.610 619.632 Q -84.593 618.999 -84.724 618.442 Q -84.855 617.885 -85.610 616.972 Q -86.366 616.059 -86.583 615.915 Q -86.800 615.771 -87.516 615.489 Q -88.233 615.207 -89.073 615.245 Q -89.913 615.283 -90.494 615.734 Q -91.075 616.186 -91.111 616.274 Q -91.146 616.361 -91.172 616.380 Q -91.198 616.398 -91.561 617.142 Q -91.924 617.885 -91.993 619.402 Q -92.062 620.918 -92.060 620.942 Q -92.057 620.965 -91.759 621.365 Q -91.461 621.764 -91.238 621.934 Q -91.014 622.104 -90.929 622.135 Q -90.843 622.166 -90.811 622.220 Q -90.778 622.274 -89.907 622.496 Q -89.035 622.718 -88.526 622.648 Q -88.017 622.578 -87.539 622.251 Q -87.061 621.924 -87.059 621.882 Q -87.057 621.840 -86.975 621.766 Q -86.893 621.691 -86.630 620.574 Q -86.367 619.456 -86.726 618.576 Q -87.084 617.697 -87.398 617.395 Q -87.712 617.093 -88.123 616.858 Q -88.533 616.622 -89.166 616.542 Q -89.799 616.462 -89.817 616.465 Q -89.834 616.467 -90.721 616.688 Q -91.607 616.910 -91.699 617.047 Q -91.791 617.184 -91.795 617.171 Q -91.799 617.159 -91.986 617.383 Q -92.174 617.607 -92.639 618.896 Q -93.105 620.186 -93.107 620.374 Q -93.109 620.562 -93.039 621.050 Q -92.969 621.538 -92.034 622.129 Q -91.098 622.720 -89.373 622.743 Q -87.649 622.767 -87.522 622.759 Q -87.396 622.751 -87.163 622.619 Q -86.931 622.488 -86.549 621.506 Q -86.167 620.525 -86.177 620.391 Q -86.187 620.258 -86.259 619.701 Q -86.332 619.145 -87.021 618.527 Q -87.710 617.909 -88.526 617.583 Q -89.342 617.258 -89.663 617.294 Q -89.983 617.330 -90.453 617.642 Q -90.922 617.954 -90.923 617.975 Q -90.924 617.995 -90.978 618.001 Q -91.031 618.007 -91.481 618.936 Q -91.932 619.864 -91.934 620.426 Q -91.935 620.987 -91.860 621.360 Q -91.784 621.733 -91.423 622.012 Q -91.063 622.291 -90.585 622.374 Q -90.107 622.457 -89.407 622.534 Q -88.707 622.611 -88.101 622.477 Q -87.496 622.343 -87.278 622.188 Q -87.059 622.032 -87.059 621.996 Q -87.059 621.960 -86.770 621.362 Q -86.481 620.764 -86.587 619.900 Q -86.692 619.037 -86.983 618.632 Q -87.274 618.227 -87.420 618.095 Q -87.567 617.962 -87.584 617.960 Q -87.601 617.958 -88.155 617.725 Q -88.708 617.492 -89.467 617.631 Q -90.227 617.771 -90.237 617.804 Q -90.246 617.837 -90.533 618.240 Q -90.820 618.643 -91.068 619.268 Q -91.317 619.894 -91.328 620.489 Q -91.339 621.084 -91.289 621.540 Q -91.239 621.996 -91.203 622.008 Q -91.167 622.020 -91.168 622.048 Q -91.170 622.075 -90.964 622.169 Q -90.757 622.262 -89.934 622.390 Q -89.111 622.518 -88.614 622.289 Q -88.116 622.059 -88.091 622.054 Q -88.067 622.049 -87.761 621.476 Q -87.454 620.902 -87.450 620.436 Q -87.445 619.970 -87.420 619.513 Q -87.396 619.057 -87.910 618.451 Q -88.425 617.845 -89.132 617.640 Q -89.840 617.434 -90.425 617.794 Q -91.010 618.154 -91.220 619.039 Q -91.429 619.924 -91.311 620.505 Q -91.193 621.087 -91.180 621.168 Q -91.167 621.249 -90.347 621.612 Q -89.528 621.976 -89.239 621.944 Q -88.951 621.912 -88.528 621.595 Q -88.104 621.279 -88.073 621.262 Q -88.042 621.246 -87.902 618.025 Q -87.843 617.932 -88.660 617.755 Q -89.476 617.578 -90.985 619.700 Q -90.887 619.735 -90.057 619.493 Q -89.228 619.252 -88.731 618.953 "></path>
    <path id="STROKE_91c6e188-b107-4e6a-8215-d9f958794868" opacity="1.000" fill="none" stroke="#000000" stroke-width="3.400" stroke-opacity="1.000" stroke-linecap="round" stroke-linejoin="round" d="M -89.335 618.625 L -42.979 452.547 "></path>
    <path id="STROKE_4d6ae86e-4253-4d71-9db5-442e02b4cc04" opacity="1.000" fill="none" stroke="#000000" stroke-width="3.400" stroke-opacity="1.000" stroke-linecap="round" stroke-linejoin="round" d="M -53.172 459.516 L -44.313 452.281 "></path>
    <path id="STROKE_94c22f58-8e23-4b3a-bfc1-e8dba9149375" opacity="1.000" fill="none" stroke="#000000" stroke-width="3.400" stroke-opacity="1.000" stroke-linecap="round" stroke-linejoin="round" d="M -42.375 453.281 L -40.666 463.297 "></path>
    <path id="STROKE_dfb8c5ae-e078-48fd-83db-0f73d5b65cc1" opacity="1.000" fill="none" stroke="#000000" stroke-width="3.400" stroke-opacity="1.000" stroke-linecap="round" stroke-linejoin="round" d="M -74.927 635.907 Q -73.812 636.128 -73.703 636.219 Q -72.004 637.014 -67.695 640.673 Q -63.387 644.331 -59.312 646.618 Q -59.167 646.671 -59.396 646.422 Q -59.625 646.173 -60.024 645.860 "></path>
    <path id="STROKE_09e521d9-4447-45a3-bad4-c8fe5f8bbc35" opacity="1.000" fill="none" stroke="#000000" stroke-width="3.400" stroke-opacity="1.000" stroke-linecap="round" stroke-linejoin="round" d="M -62.150 636.172 L -62.167 636.127 Q -62.774 636.568 -62.788 636.598 Q -63.539 637.261 -65.587 639.203 Q -67.635 641.146 -69.147 642.832 Q -70.659 644.518 -71.611 645.609 Q -72.562 646.700 -72.988 647.136 Q -73.415 647.572 -73.405 647.516 "></path>
    <path id="STROKE_9857dd98-45a3-4507-8223-c2c88036a35e" opacity="1.000" fill="none" stroke="#000000" stroke-width="3.400" stroke-opacity="1.000" stroke-linecap="round" stroke-linejoin="round" d="M -26.305 440.062 L -26.197 440.009 Q -25.578 440.359 -25.570 440.400 Q -24.968 440.889 -22.394 443.971 Q -19.819 447.052 -18.294 448.596 Q -16.769 450.139 -15.928 450.702 Q -15.086 451.264 -14.795 451.318 Q -14.504 451.372 -14.505 451.377 Q -14.507 451.381 -14.570 451.014 Q -14.633 450.648 -14.778 450.359 "></path>
    <path id="STROKE_72d62835-9d31-42b3-9976-83fdd98d28d8" opacity="1.000" fill="none" stroke="#000000" stroke-width="3.400" stroke-opacity="1.000" stroke-linecap="round" stroke-linejoin="round" d="M -15.508 440.266 Q -15.505 440.278 -15.751 440.086 Q -16.100 440.403 -18.819 443.964 Q -21.538 447.525 -26.750 451.323 L -26.951 451.547 "></path>
    <path id="STROKE_dc90254b-ff88-43bd-923b-30f8059ac48a" opacity="1.000" fill="none" stroke="#000000" stroke-width="3.400" stroke-opacity="1.000" stroke-linecap="round" stroke-linejoin="round" d="M -0.875 439.016 Q -0.876 439.101 -1.499 439.224 Q -1.981 440.087 -1.754 452.525 Q -1.716 452.567 -1.809 452.416 Q -1.903 452.265 -2.063 452.016 "></path>
    <path id="STROKE_30119a1d-42d4-4a8c-851f-bf3f68732384" opacity="1.000" fill="none" stroke="#000000" stroke-width="3.400" stroke-opacity="1.000" stroke-linecap="round" stroke-linejoin="round" d="M -7.962 447.562 L -7.957 447.567 Q -7.431 447.604 -4.260 447.278 Q -1.089 446.953 1.231 446.802 Q 3.550 446.651 4.294 446.578 "></path>
    <path id="STROKE_cb747c05-8781-48a6-94dd-e3642fd5265f" opacity="1.000" fill="none" stroke="#000000" stroke-width="3.400" stroke-opacity="1.000" stroke-linecap="round" stroke-linejoin="round" d="M 16.737 443.250 L 16.835 443.138 Q 16.836 443.084 19.362 445.856 Q 21.888 448.628 23.556 450.914 Q 25.223 453.201 26.384 453.634 Q 26.526 453.680 26.217 453.155 Q 25.909 452.630 25.554 452.219 "></path>
    <path id="STROKE_84129fc2-0c16-4c35-92ba-5953cab8bcac" opacity="1.000" fill="none" stroke="#000000" stroke-width="3.400" stroke-opacity="1.000" stroke-linecap="round" stroke-linejoin="round" d="M 16.821 441.391 L 16.177 439.921 Q 16.667 439.610 21.478 439.376 Q 26.289 439.141 31.240 440.121 Q 31.431 440.159 31.343 441.476 Q 31.254 442.793 29.398 447.722 Q 27.543 452.651 26.989 454.937 Q 26.435 457.223 26.346 457.781 "></path>
    <path id="STROKE_725d6a9a-7920-45b4-b4f9-a28aaa473e61" opacity="1.000" fill="none" stroke="#000000" stroke-width="3.400" stroke-opacity="1.000" stroke-linecap="round" stroke-linejoin="round" d="M 45.481 441.062 Q 46.093 438.928 46.090 438.172 Q 46.088 437.415 45.921 436.888 Q 45.755 436.362 45.286 436.193 Q 44.818 436.025 44.193 436.052 Q 43.569 436.080 43.094 436.321 Q 42.620 436.562 41.979 437.301 Q 41.338 438.039 41.163 444.953 Q 40.988 451.866 40.744 457.067 Q 40.501 462.268 39.938 467.344 Q 39.886 467.412 39.793 467.379 Q 39.700 467.346 39.486 467.121 Q 39.272 466.896 38.936 466.406 "></path>
    <path id="STROKE_376a509f-75e8-4244-96ec-2fc2a3c961bd" opacity="1.000" fill="none" stroke="#000000" stroke-width="3.400" stroke-opacity="1.000" stroke-linecap="round" stroke-linejoin="round" d="M 34.559 451.953 L 34.707 451.805 Q 34.982 451.647 39.807 451.329 Q 44.632 451.010 45.210 450.953 "></path>
    <path id="STROKE_9873b6af-3a77-40f0-80d0-5546f59053f6" opacity="1.000" fill="none" stroke="#000000" stroke-width="3.400" stroke-opacity="1.000" stroke-linecap="round" stroke-linejoin="round" d="M 58.800 444.250 Q 58.528 444.173 58.229 444.136 Q 57.929 444.098 57.409 444.226 Q 56.888 444.355 56.866 444.377 Q 56.845 444.400 55.886 445.143 Q 54.928 445.886 54.015 447.212 Q 53.102 448.538 52.703 450.448 Q 52.304 452.358 53.393 454.697 Q 54.481 457.035 55.849 458.188 Q 57.216 459.340 57.862 459.781 "></path>
    <path id="STROKE_de3e3fb9-3914-4bd7-af83-a3349929f1d4" opacity="1.000" fill="none" stroke="#000000" stroke-width="3.400" stroke-opacity="1.000" stroke-linecap="round" stroke-linejoin="round" d="M 60.905 450.094 Q 60.786 449.786 63.545 452.069 Q 66.305 454.351 70.910 456.984 "></path>
    <path id="STROKE_0749f144-abf6-4b33-a7af-7b927e268104" opacity="1.000" fill="none" stroke="#000000" stroke-width="3.400" stroke-opacity="1.000" stroke-linecap="round" stroke-linejoin="round" d="M 70.180 448.562 Q 69.347 449.441 69.069 449.706 Q 68.791 449.970 66.918 451.774 Q 65.045 453.577 63.550 455.513 Q 62.055 457.449 61.843 458.730 Q 61.630 460.011 61.634 460.312 "></path>
    <path id="STROKE_f43c98f4-ba11-4be8-aa90-0eff167a8b18" opacity="1.000" fill="none" stroke="#000000" stroke-width="3.400" stroke-opacity="1.000" stroke-linecap="round" stroke-linejoin="round" d="M 74.807 444.719 Q 76.910 445.319 78.562 448.128 Q 80.214 450.937 80.663 453.428 Q 81.113 455.919 80.576 458.195 Q 80.040 460.471 77.675 462.202 Q 75.310 463.933 74.349 464.484 "></path>
    <path id="STROKE_5f462d50-8c40-4dd8-97d1-e0568cdf9fdf" opacity="1.000" fill="none" stroke="#bb3e45" stroke-width="3.299" stroke-opacity="1.000" stroke-linecap="round" stroke-linejoin="round" d="M -277.752 560.384 L 138.765 687.339 "></path>
    <path id="STROKE_f83507e2-6793-44b1-ba4e-8634cba14e98" opacity="0.204" fill="#000000" stroke="#000000" stroke-width="0.500" stroke-opacity="1.000" stroke-linecap="round" stroke-linejoin="round" d="M -400.834 687.500 Q -400.646 687.548 -400.857 687.320 Q -401.068 687.091 -400.542 685.983 Q -400.016 684.874 -398.775 683.479 Q -397.534 682.084 -396.621 681.362 Q -395.708 680.641 -395.414 680.377 Q -395.120 680.113 -393.876 679.262 Q -392.632 678.412 -391.356 677.530 Q -390.079 676.648 -388.997 675.798 Q -387.915 674.948 -385.881 673.816 Q -383.847 672.684 -379.780 670.422 Q -375.712 668.160 -372.769 665.862 Q -369.827 663.564 -366.441 661.508 Q -363.056 659.453 -361.821 658.671 Q -360.586 657.889 -357.709 656.165 Q -354.832 654.442 -351.651 652.771 Q -348.470 651.100 -346.828 650.506 Q -345.186 649.913 -343.688 649.209 Q -342.191 648.505 -340.640 647.766 Q -339.088 647.027 -336.924 645.944 Q -334.759 644.862 -331.482 643.554 Q -328.204 642.247 -322.574 639.808 Q -316.944 637.369 -313.439 636.060 Q -309.935 634.750 -306.532 633.698 Q -303.130 632.646 -301.102 631.799 Q -299.073 630.951 -297.953 630.553 Q -296.834 630.154 -296.315 629.862 Q -295.797 629.570 -290.003 627.917 Q -284.208 626.265 -278.859 624.874 Q -273.511 623.484 -269.941 622.564 Q -266.371 621.644 -263.482 620.979 Q -260.592 620.314 -255.281 619.040 Q -249.970 617.765 -247.686 617.367 Q -245.403 616.968 -243.967 616.595 Q -242.531 616.222 -242.384 616.227 Q -242.237 616.232 -239.315 615.786 Q -236.394 615.339 -233.433 614.699 Q -230.471 614.058 -228.879 613.979 Q -227.287 613.900 -224.975 613.531 Q -222.663 613.162 -222.154 613.029 Q -221.645 612.896 -219.719 612.709 Q -217.792 612.522 -214.757 611.997 Q -211.721 611.472 -210.243 611.292 Q -208.764 611.111 -207.732 610.961 Q -206.700 610.811 -206.212 610.743 Q -205.725 610.675 -205.279 610.627 Q -204.833 610.578 -204.721 610.566 Q -204.610 610.554 -204.012 610.480 Q -203.413 610.407 -202.136 610.394 Q -200.859 610.380 -200.203 610.326 Q -199.547 610.271 -199.059 610.211 Q -198.572 610.151 -198.352 610.147 Q -198.132 610.144 -197.982 610.107 Q -197.833 610.070 -197.925 610.087 Q -198.017 610.103 -195.092 609.980 Q -192.167 609.856 -190.309 609.547 Q -188.451 609.238 -187.582 609.145 Q -186.712 609.051 -186.638 609.069 Q -186.563 609.088 -186.221 609.080 Q -185.878 609.073 -185.352 609.049 Q -184.826 609.025 -184.092 609.018 Q -183.357 609.011 -183.707 609.038 Q -184.057 609.065 -181.610 608.958 Q -179.163 608.851 -177.041 608.722 Q -174.919 608.593 -172.761 608.618 Q -170.603 608.642 -169.346 608.634 Q -168.088 608.626 -166.925 608.629 Q -165.761 608.632 -164.761 608.631 Q -163.760 608.630 -163.142 608.630 Q -162.524 608.631 -162.035 608.631 Q -161.546 608.630 -161.112 608.630 Q -160.678 608.630 -160.786 608.641 Q -160.893 608.651 -160.890 608.643 Q -160.888 608.635 -159.126 608.631 Q -157.365 608.626 -155.033 608.724 Q -152.701 608.822 -151.565 608.866 Q -150.430 608.910 -147.594 609.410 Q -144.759 609.910 -142.442 610.164 Q -140.124 610.418 -139.248 610.418 Q -138.372 610.418 -137.815 610.446 Q -137.258 610.473 -136.643 610.473 Q -136.029 610.472 -135.238 610.465 Q -134.446 610.458 -133.851 610.460 Q -133.255 610.463 -132.810 610.508 Q -132.364 610.553 -132.123 610.566 Q -131.881 610.579 -131.589 610.592 Q -131.296 610.605 -131.058 610.627 Q -130.820 610.650 -130.757 610.645 Q -130.693 610.641 -130.411 610.655 Q -130.128 610.668 -127.750 610.903 Q -125.371 611.137 -123.167 611.447 Q -120.963 611.756 -119.376 612.106 Q -117.789 612.456 -116.471 612.480 Q -115.152 612.503 -111.781 613.102 Q -108.409 613.700 -106.366 614.135 Q -104.323 614.570 -102.636 615.007 Q -100.948 615.444 -99.775 615.527 Q -98.601 615.610 -97.636 615.889 Q -96.671 616.167 -96.198 616.338 Q -95.726 616.509 -95.293 616.666 Q -94.860 616.824 -94.667 616.869 Q -94.474 616.914 -94.220 616.989 Q -93.965 617.063 -94.035 617.030 Q -94.106 616.997 -93.740 617.085 Q -93.375 617.173 -92.190 617.596 Q -91.005 618.018 -89.892 618.287 Q -88.778 618.557 -88.379 618.652 Q -87.980 618.748 -87.534 618.870 Q -87.087 618.992 -87.043 619.001 Q -86.999 619.009 -87.050 618.995 Q -87.101 618.981 -86.642 619.116 Q -86.183 619.251 -85.914 619.295 Q -85.646 619.338 -85.314 619.385 Q -84.983 619.432 -84.294 619.613 Q -83.605 619.794 -83.245 619.935 Q -82.885 620.075 -82.580 620.131 Q -82.274 620.188 -81.778 620.338 Q -81.282 620.488 -80.803 620.651 Q -80.325 620.814 -79.953 620.902 Q -79.582 620.990 -79.092 621.131 Q -78.602 621.272 -78.165 621.425 Q -77.729 621.579 -77.699 621.585 Q -77.669 621.592 -77.530 621.627 Q -77.391 621.663 -76.997 621.791 Q -76.604 621.919 -76.411 621.997 Q -76.218 622.075 -76.093 622.132 Q -75.968 622.190 -76.010 622.151 Q -76.052 622.113 -75.611 622.302 Q -75.170 622.490 -73.979 623.137 Q -72.788 623.785 -71.801 624.312 Q -70.814 624.839 -70.357 625.130 Q -69.900 625.421 -69.478 625.671 Q -69.055 625.921 -68.821 626.031 Q -68.587 626.141 -68.594 626.141 Q -68.602 626.141 -68.628 626.125 Q -68.654 626.109 -68.597 626.142 Q -68.541 626.176 -68.595 626.104 Q -68.649 626.033 -68.249 626.382 Q -67.849 626.730 -65.416 628.068 Q -62.983 629.406 -61.703 630.018 Q -60.423 630.630 -59.903 630.775 Q -59.383 630.919 -59.156 631.036 Q -58.928 631.153 -58.796 631.197 Q -58.663 631.242 -58.638 631.257 Q -58.613 631.272 -58.179 631.445 Q -57.745 631.619 -57.603 631.677 Q -57.461 631.735 -57.443 631.757 Q -57.425 631.779 -57.333 631.742 Q -57.242 631.706 -55.999 632.233 Q -54.757 632.761 -53.700 633.267 Q -52.642 633.773 -52.001 633.968 Q -51.361 634.163 -51.133 634.263 Q -50.905 634.364 -50.965 634.337 Q -51.025 634.311 -50.966 634.337 Q -50.907 634.364 -50.796 634.425 Q -50.686 634.485 -50.346 634.655 Q -50.006 634.825 -50.357 634.715 Q -50.707 634.605 -48.879 635.489 Q -47.052 636.372 -46.127 636.784 Q -45.203 637.195 -44.554 637.400 Q -43.904 637.604 -43.579 637.740 Q -43.253 637.876 -43.169 637.907 Q -43.084 637.939 -43.128 637.937 Q -43.172 637.934 -42.493 638.243 Q -41.813 638.552 -38.644 639.745 Q -35.476 640.937 -33.891 641.591 Q -32.306 642.246 -31.709 642.609 Q -31.111 642.971 -30.876 643.095 Q -30.640 643.218 -30.335 643.379 Q -30.030 643.540 -30.012 643.540 Q -29.993 643.540 -30.033 643.529 Q -30.073 643.517 -29.672 643.690 Q -29.271 643.863 -28.562 644.224 Q -27.853 644.585 -27.937 644.526 Q -28.022 644.468 -27.307 644.943 Q -26.593 645.419 -25.727 646.048 Q -24.862 646.677 -24.420 646.953 Q -23.979 647.228 -23.556 647.497 Q -23.134 647.766 -23.147 647.758 Q -23.160 647.749 -23.054 647.818 Q -22.948 647.886 -22.268 648.300 Q -21.588 648.714 -20.759 649.207 Q -19.930 649.700 -19.391 650.009 Q -18.852 650.318 -18.731 650.406 Q -18.610 650.493 -18.626 650.466 Q -18.642 650.439 -18.662 650.447 Q -18.682 650.454 -17.700 650.970 Q -16.718 651.487 -14.206 652.982 Q -11.694 654.478 -10.112 655.359 Q -8.529 656.240 -7.113 656.967 Q -5.697 657.694 -5.009 658.109 Q -4.321 658.525 -4.076 658.708 Q -3.832 658.890 -3.552 659.110 Q -3.272 659.329 -3.044 659.498 Q -2.815 659.667 -2.721 659.703 Q -2.627 659.739 -2.865 659.614 Q -3.104 659.489 -1.451 660.394 Q 0.202 661.300 1.071 661.755 Q 1.940 662.209 2.409 662.520 Q 2.879 662.831 2.992 662.919 Q 3.105 663.006 3.344 663.185 Q 3.583 663.364 3.735 663.466 Q 3.886 663.567 4.273 663.799 Q 4.660 664.031 4.415 663.891 Q 4.170 663.752 5.205 664.316 Q 6.240 664.879 6.739 665.148 Q 7.238 665.417 7.402 665.526 Q 7.565 665.635 8.210 666.030 Q 8.856 666.424 8.812 666.437 Q 8.767 666.449 8.887 666.507 Q 9.006 666.565 8.894 666.534 Q 8.781 666.502 9.801 667.099 Q 10.821 667.696 11.968 668.419 Q 13.115 669.141 13.609 669.560 Q 14.103 669.979 14.351 670.210 Q 14.598 670.441 15.172 670.834 Q 15.745 671.228 16.107 671.438 Q 16.469 671.649 16.840 671.900 Q 17.210 672.150 17.195 672.146 Q 17.179 672.142 17.156 672.103 Q 17.134 672.064 17.361 672.272 Q 17.589 672.480 18.461 673.222 Q 19.333 673.963 20.107 674.507 Q 20.881 675.052 21.272 675.317 Q 21.663 675.582 22.216 676.020 Q 22.770 676.458 23.274 676.878 Q 23.779 677.298 24.995 678.166 Q 26.210 679.034 26.786 679.479 Q 27.361 679.924 27.766 680.257 Q 28.170 680.589 28.205 680.641 Q 28.241 680.693 28.363 680.787 Q 28.485 680.880 28.972 681.272 Q 29.459 681.664 29.189 681.435 Q 28.920 681.207 30.232 682.385 Q 31.544 683.564 33.030 684.710 Q 34.515 685.857 35.225 686.331 Q 35.935 686.806 36.245 687.048 Q 36.556 687.289 36.696 687.392 Q 36.836 687.496 37.230 687.828 Q 37.623 688.160 37.711 688.208 Q 37.799 688.257 37.657 688.153 Q 37.515 688.050 38.146 688.704 Q 38.777 689.358 40.311 690.448 Q 41.845 691.539 43.658 692.808 Q 45.471 694.077 46.905 695.044 Q 48.339 696.010 48.712 696.383 Q 49.084 696.756 49.465 697.086 Q 49.846 697.416 49.903 697.464 Q 49.960 697.513 49.945 697.499 Q 49.931 697.485 49.989 697.537 Q 50.048 697.589 50.535 698.012 Q 51.023 698.436 51.037 698.440 Q 51.051 698.443 50.987 698.394 Q 50.922 698.344 51.311 698.653 Q 51.700 698.963 51.848 699.093 Q 51.996 699.223 52.382 699.549 Q 52.767 699.875 52.787 699.885 Q 52.806 699.894 53.064 700.097 Q 53.321 700.301 53.264 700.228 Q 53.206 700.156 53.271 700.259 Q 53.335 700.363 54.986 701.909 Q 56.637 703.454 59.276 706.162 Q 61.916 708.869 63.262 710.294 Q 64.609 711.719 64.844 711.926 Q 65.078 712.133 67.065 714.281 Q 69.051 716.429 70.064 717.581 Q 71.077 718.733 71.509 719.168 Q 71.942 719.602 72.245 719.948 Q 72.548 720.294 72.598 720.357 Q 72.648 720.419 72.553 720.300 Q 72.457 720.181 72.992 720.844 Q 73.526 721.508 73.995 722.132 Q 74.464 722.755 74.752 723.174 Q 75.041 723.592 75.252 723.877 Q 75.462 724.162 75.832 724.675 Q 76.202 725.189 76.206 725.267 Q 76.210 725.346 76.917 726.076 Q 77.624 726.806 78.098 727.277 Q 78.571 727.748 78.811 727.997 Q 79.052 728.246 79.303 728.512 Q 79.555 728.777 79.548 728.777 Q 79.540 728.777 79.671 728.923 Q 79.802 729.069 80.053 729.358 Q 80.304 729.647 80.371 729.728 Q 80.437 729.808 80.835 730.336 Q 81.233 730.864 81.762 731.372 Q 82.291 731.880 83.363 733.020 Q 84.436 734.161 85.018 734.841 Q 85.600 735.522 85.887 735.851 Q 86.173 736.179 86.615 736.620 Q 87.057 737.061 87.400 737.398 Q 87.743 737.735 87.830 737.814 Q 87.918 737.893 87.888 737.871 Q 87.858 737.849 88.302 738.304 Q 88.745 738.759 89.169 739.188 Q 89.592 739.617 89.946 739.987 Q 90.299 740.358 90.390 740.446 Q 90.481 740.535 90.510 740.573 Q 90.539 740.610 90.487 740.536 Q 90.435 740.463 91.210 741.339 Q 91.986 742.215 92.395 742.693 Q 92.804 743.170 93.239 743.626 Q 93.674 744.082 93.897 744.342 Q 94.120 744.602 94.092 744.604 Q 94.063 744.605 94.391 745.005 Q 94.719 745.406 94.911 745.689 Q 95.103 745.972 95.290 746.237 Q 95.478 746.502 95.340 746.326 Q 95.203 746.151 96.342 747.620 Q 97.481 749.090 98.896 750.910 Q 100.311 752.731 101.074 753.700 Q 101.837 754.669 102.135 755.096 Q 102.433 755.523 103.386 756.967 Q 104.340 758.411 105.194 759.660 Q 106.049 760.909 106.644 761.820 Q 107.239 762.730 107.574 763.358 Q 107.909 763.986 108.084 764.198 Q 108.259 764.410 108.706 765.184 Q 109.153 765.957 109.441 766.500 Q 109.729 767.043 110.111 767.840 Q 110.492 768.638 110.575 768.824 Q 110.658 769.011 110.835 769.435 Q 111.012 769.860 111.169 770.126 Q 111.326 770.392 112.300 771.617 Q 113.274 772.841 113.840 773.967 Q 114.405 775.092 114.697 775.650 Q 114.988 776.208 115.311 776.843 Q 115.633 777.478 115.796 777.817 Q 115.959 778.156 115.979 778.192 Q 116.000 778.228 116.235 778.628 Q 116.470 779.029 116.444 778.977 Q 116.418 778.926 116.472 779.049 Q 116.527 779.173 116.666 779.519 Q 116.805 779.866 117.047 780.391 Q 117.289 780.916 117.453 781.286 Q 117.617 781.657 117.779 782.088 Q 117.942 782.518 117.980 782.653 Q 118.019 782.787 118.023 782.775 Q 118.028 782.763 118.222 783.378 Q 118.416 783.993 118.849 785.241 Q 119.281 786.488 119.499 787.130 Q 119.718 787.771 119.813 788.016 Q 119.908 788.261 120.039 788.633 Q 120.171 789.005 120.308 789.403 Q 120.445 789.800 120.481 789.934 Q 120.516 790.069 120.497 790.015 Q 120.479 789.962 120.483 789.935 Q 120.487 789.908 120.758 790.834 Q 121.029 791.760 121.365 792.572 Q 121.702 793.385 121.947 793.918 Q 122.193 794.451 122.143 794.329 Q 122.093 794.207 122.259 794.713 Q 122.426 795.218 122.494 795.522 Q 122.562 795.827 122.624 796.236 Q 122.685 796.646 122.924 797.794 Q 123.163 798.942 123.274 799.305 Q 123.385 799.668 123.450 799.899 Q 123.515 800.131 123.575 800.372 Q 123.634 800.612 123.690 800.822 Q 123.745 801.032 123.766 801.135 Q 123.786 801.239 123.748 801.061 Q 123.711 800.884 123.950 802.035 Q 124.189 803.186 124.355 803.880 Q 124.521 804.575 124.665 805.305 Q 124.809 806.035 124.904 806.553 Q 124.999 807.070 124.973 806.960 Q 124.947 806.850 125.247 808.786 Q 125.548 810.722 125.717 811.955 Q 125.886 813.188 125.928 814.086 Q 125.970 814.984 125.971 815.439 Q 125.972 815.893 125.972 816.019 Q 125.972 816.146 125.972 816.374 Q 125.972 816.603 125.972 816.769 Q 125.972 816.936 125.972 817.186 Q 125.972 817.437 125.972 817.679 Q 125.972 817.922 125.964 818.008 Q 125.956 818.095 125.936 817.932 Q 125.917 817.769 126.016 819.472 Q 126.116 821.174 125.590 824.361 Q 125.064 827.547 124.552 830.100 Q 124.039 832.652 123.740 833.819 Q 123.440 834.987 123.358 835.297 Q 123.277 835.607 123.128 835.930 Q 122.980 836.253 123.000 836.172 Q 123.020 836.092 122.903 836.480 Q 122.786 836.867 122.203 838.278 Q 121.621 839.688 121.230 840.169 Q 120.839 840.650 120.649 841.342 Q 120.459 842.034 120.277 842.605 Q 120.095 843.175 120.032 843.573 Q 119.968 843.970 119.879 844.444 Q 119.790 844.917 119.860 844.653 Q 119.929 844.389 119.666 845.427 Q 119.403 846.465 119.221 847.246 Q 119.039 848.027 118.976 848.556 Q 118.914 849.084 118.944 848.745 Q 118.974 848.406 118.737 850.162 Q 118.500 851.917 118.376 852.979 Q 118.251 854.040 118.286 854.485 Q 118.320 854.930 118.274 855.339 Q 118.228 855.749 118.326 855.899 Q 118.423 856.050 118.555 856.136 "></path>
    <path id="STROKE_7b3e918c-268b-4cde-8291-383b683d5cc5" opacity="1.000" fill="none" stroke="#3c1416" stroke-width="3.400" stroke-opacity="1.000" stroke-linecap="round" stroke-linejoin="round" d="M -265.411 657.976 Q -265.397 658.052 -264.370 660.491 Q -263.343 662.930 -263.130 665.146 Q -262.917 667.362 -262.509 669.939 Q -262.102 672.517 -261.586 674.122 Q -261.579 673.812 -261.623 673.501 "></path>
    <path id="STROKE_417e4527-68dd-44c0-a884-fe4a08dc912a" opacity="1.000" fill="none" stroke="#3c1416" stroke-width="3.400" stroke-opacity="1.000" stroke-linecap="round" stroke-linejoin="round" d="M -265.569 656.136 L -266.152 656.378 Q -265.954 656.767 -265.902 656.749 Q -265.689 657.096 -254.790 655.919 Q -254.802 656.077 -255.714 657.030 "></path>
    <path id="STROKE_396e28d0-415d-4017-b70d-63f2826700f6" opacity="1.000" fill="none" stroke="#3c1416" stroke-width="3.400" stroke-opacity="1.000" stroke-linecap="round" stroke-linejoin="round" d="M -263.745 674.552 L -262.873 674.498 L -261.858 674.389 Q -261.045 674.279 -256.923 674.051 Q -252.802 673.823 -252.312 673.882 "></path>
    <path id="STROKE_e3ba72c8-816e-45f4-abbf-b184f98db6f5" opacity="1.000" fill="none" stroke="#3c1416" stroke-width="3.400" stroke-opacity="1.000" stroke-linecap="round" stroke-linejoin="round" d="M -239.231 658.371 Q -239.247 658.344 -238.940 656.334 Q -239.284 656.040 -239.944 655.954 Q -240.604 655.868 -241.079 655.960 Q -241.553 656.052 -242.010 656.379 Q -242.467 656.705 -243.034 657.595 Q -243.602 658.485 -243.647 658.677 Q -243.693 658.869 -243.795 660.002 Q -243.898 661.136 -242.964 663.470 Q -242.030 665.804 -240.833 668.787 Q -239.635 671.769 -239.065 673.907 Q -238.494 676.046 -238.816 679.262 L -238.922 679.277 Q -238.972 679.188 -238.871 678.434 Q -238.770 677.679 -238.670 677.181 "></path>
    <path id="STROKE_ba957607-3036-4e8a-9d96-8882ed72f81c" opacity="1.000" fill="none" stroke="#3c1416" stroke-width="3.400" stroke-opacity="1.000" stroke-linecap="round" stroke-linejoin="round" d="M -244.404 669.307 L -244.565 668.542 Q -244.320 668.351 -241.079 668.046 Q -237.839 667.742 -236.072 667.483 Q -234.305 667.224 -233.707 667.073 "></path>
    <path id="STROKE_73e24349-66d7-499c-a252-5959487211ca" opacity="1.000" fill="none" stroke="#3c1416" stroke-width="3.400" stroke-opacity="1.000" stroke-linecap="round" stroke-linejoin="round" d="M -219.732 657.648 L -219.855 657.502 Q -220.196 657.772 -224.910 664.138 Q -225.019 664.267 -221.415 664.406 Q -217.812 664.544 -217.558 664.615 "></path>
    <path id="STROKE_8277b6eb-5fc2-4d78-822d-b312d644ba38" opacity="1.000" fill="none" stroke="#3c1416" stroke-width="3.400" stroke-opacity="1.000" stroke-linecap="round" stroke-linejoin="round" d="M -224.361 672.212 Q -224.323 671.835 -218.878 671.482 Q -213.433 671.129 -212.928 671.148 "></path>
    <path id="STROKE_5e6acf21-0128-4b95-88fe-e4b553869a27" opacity="1.000" fill="none" stroke="#3c1416" stroke-width="3.400" stroke-opacity="1.000" stroke-linecap="round" stroke-linejoin="round" d="M -194.937 659.146 Q -194.728 659.062 -194.058 658.697 Q -193.894 657.849 -194.134 657.349 Q -194.374 656.849 -195.064 656.497 Q -195.753 656.146 -195.832 656.127 Q -195.910 656.108 -197.321 656.329 Q -198.732 656.550 -198.982 658.275 Q -199.233 660.001 -199.114 660.786 Q -198.994 661.571 -198.237 663.377 Q -197.479 665.184 -196.553 668.321 Q -195.626 671.458 -195.267 673.820 Q -194.909 676.183 -194.946 676.962 Q -194.983 677.741 -195.280 678.325 Q -195.578 678.909 -195.593 678.905 Q -195.609 678.902 -195.678 678.923 Q -195.747 678.944 -195.747 679.002 Q -195.747 679.060 -196.275 678.837 Q -196.802 678.614 -197.234 678.298 "></path>
    <path id="STROKE_f98ea5f3-c886-496c-9fea-639626623c0d" opacity="1.000" fill="none" stroke="#3c1416" stroke-width="3.400" stroke-opacity="1.000" stroke-linecap="round" stroke-linejoin="round" d="M -200.461 670.306 Q -200.542 668.955 -196.208 668.378 Q -191.875 667.802 -191.202 667.691 "></path>
    <path id="STROKE_b6b128ae-a96b-4831-ac19-05cfaab28d27" opacity="1.000" fill="none" stroke="#3c1416" stroke-width="3.400" stroke-opacity="1.000" stroke-linecap="round" stroke-linejoin="round" d="M -179.173 660.158 L -179.480 659.950 Q -180.057 660.087 -180.501 660.466 Q -180.945 660.844 -181.670 662.522 Q -182.395 664.199 -182.496 666.031 Q -182.598 667.864 -181.605 669.384 Q -180.612 670.904 -176.999 672.212 "></path>
    <path id="STROKE_3c048c96-7b83-44a8-ae2e-42c5a252b25b" opacity="1.000" fill="none" stroke="#3c1416" stroke-width="3.400" stroke-opacity="1.000" stroke-linecap="round" stroke-linejoin="round" d="M -171.721 663.668 Q -171.632 663.683 -166.646 666.923 Q -161.660 670.163 -161.130 670.477 "></path>
    <path id="STROKE_31f34deb-ac30-4f57-9ec1-1d66af05ee74" opacity="1.000" fill="none" stroke="#3c1416" stroke-width="3.400" stroke-opacity="1.000" stroke-linecap="round" stroke-linejoin="round" d="M -164.076 662.827 Q -164.847 663.045 -167.000 666.033 Q -169.153 669.022 -169.392 670.846 Q -169.630 672.669 -169.547 673.211 "></path>
    <path id="STROKE_23af8393-4b6d-4f3e-8102-809c1cdf1046" opacity="1.000" fill="none" stroke="#3c1416" stroke-width="3.400" stroke-opacity="1.000" stroke-linecap="round" stroke-linejoin="round" d="M -161.691 660.435 Q -160.943 660.371 -159.922 660.917 Q -158.901 661.463 -157.920 663.165 Q -156.940 664.866 -156.737 666.530 Q -156.533 668.194 -157.162 669.969 Q -157.791 671.743 -159.156 672.632 Q -160.521 673.522 -161.025 673.777 "></path>
    <path id="STROKE_2d161814-dbf1-4a42-b529-d8b33620c482" opacity="1.000" fill="none" stroke="#3c1416" stroke-width="3.400" stroke-opacity="1.000" stroke-linecap="round" stroke-linejoin="round" d="M -152.432 655.571 L -151.845 655.489 Q -151.767 655.447 -146.627 654.692 Q -146.253 654.440 -145.935 657.824 Q -145.616 661.208 -145.312 663.593 Q -145.008 665.978 -144.353 668.620 Q -143.698 671.262 -143.401 672.960 Q -143.105 674.657 -142.144 678.240 Q -142.108 678.350 -144.918 678.506 Q -147.727 678.661 -148.645 678.680 "></path>
    <path id="STROKE_d486cdfd-ee15-47e5-b7b6-fbc3182edfae" opacity="1.000" fill="none" stroke="#3c1416" stroke-width="3.400" stroke-opacity="1.000" stroke-linecap="round" stroke-linejoin="round" d="M -82.643 605.449 Q -82.496 605.285 -82.236 605.047 L -81.818 604.972 Q -81.376 605.055 -78.366 605.626 Q -75.355 606.198 -73.249 606.384 Q -71.142 606.569 -70.664 606.661 Q -70.185 606.752 -69.793 606.987 L -69.544 607.342 "></path>
    <path id="STROKE_2365884a-0051-4535-b370-1c583e5367da" opacity="1.000" fill="none" stroke="#3c1416" stroke-width="3.400" stroke-opacity="1.000" stroke-linecap="round" stroke-linejoin="round" d="M -71.385 608.078 L -71.146 608.001 Q -70.816 607.790 -72.613 615.075 Q -74.411 622.360 -74.559 623.090 "></path>
  </g>
</svg>